AfacadFlux-SuperBackslant.ufo
<glyph name="exclam" format="2">
  <advance width="480"/>
  <unicode hex="0021"/>
  <outline>
    <contour>
      <point x="118" y="330" type="line"/>
      <point x="346" y="330" type="line"/>
      <point x="264" y="900" type="line"/>
      <point x="-84" y="900" type="line"/>
    </contour>
    <contour>
      <point x="302" y="-20" type="curve" smooth="yes"/>
      <point x="369" y="-20"/>
      <point x="425" y="31"/>
      <point x="425" y="105" type="curve" smooth="yes"/>
      <point x="425" y="186"/>
      <point x="351" y="260"/>
      <point x="268" y="260" type="curve" smooth="yes"/>
      <point x="196" y="260"/>
      <point x="145" y="207"/>
      <point x="145" y="137" type="curve" smooth="yes"/>
      <point x="145" y="54"/>
      <point x="219" y="-20"/>
    </contour>
  </outline>
</glyph>
<glyph name="numbersign" format="2">
  <advance width="750"/>
  <unicode hex="0023"/>
  <outline>
    <contour>
      <point x="253" y="0" type="line"/>
      <point x="475" y="0" type="line"/>
      <point x="406" y="168" type="line"/>
      <point x="507" y="168" type="line"/>
      <point x="576" y="0" type="line"/>
      <point x="798" y="0" type="line"/>
      <point x="729" y="168" type="line"/>
      <point x="784" y="168" type="line"/>
      <point x="693" y="384" type="line"/>
      <point x="638" y="384" type="line"/>
      <point x="583" y="516" type="line"/>
      <point x="642" y="516" type="line"/>
      <point x="554" y="732" type="line"/>
      <point x="495" y="732" type="line"/>
      <point x="423" y="900" type="line"/>
      <point x="201" y="900" type="line"/>
      <point x="273" y="732" type="line"/>
      <point x="172" y="732" type="line"/>
      <point x="100" y="900" type="line"/>
      <point x="-122" y="900" type="line"/>
      <point x="-50" y="732" type="line"/>
      <point x="-107" y="732" type="line"/>
      <point x="-19" y="516" type="line"/>
      <point x="38" y="516" type="line"/>
      <point x="93" y="384" type="line"/>
      <point x="32" y="384" type="line"/>
      <point x="123" y="168" type="line"/>
      <point x="184" y="168" type="line"/>
    </contour>
    <contour>
      <point x="307" y="372" type="line"/>
      <point x="244" y="528" type="line"/>
      <point x="369" y="528" type="line"/>
      <point x="432" y="372" type="line"/>
    </contour>
  </outline>
</glyph>
<glyph name="dollar" format="2">
  <advance width="750"/>
  <unicode hex="0024"/>
  <outline>
    <contour>
      <point x="426" y="-120" type="line"/>
      <point x="564" y="-120" type="line"/>
      <point x="532" y="4" type="line"/>
      <point x="644" y="43"/>
      <point x="712" y="127"/>
      <point x="712" y="245" type="curve" smooth="yes"/>
      <point x="712" y="385"/>
      <point x="617" y="507"/>
      <point x="438" y="567" type="curve" smooth="yes"/>
      <point x="306" y="611" type="line" smooth="yes"/>
      <point x="264" y="625"/>
      <point x="254" y="633"/>
      <point x="254" y="644" type="curve" smooth="yes"/>
      <point x="254" y="663"/>
      <point x="280" y="672"/>
      <point x="323" y="672" type="curve" smooth="yes"/>
      <point x="395" y="672"/>
      <point x="475" y="646"/>
      <point x="546" y="600" type="curve"/>
      <point x="546" y="870" type="line"/>
      <point x="470" y="903"/>
      <point x="390" y="920"/>
      <point x="303" y="920" type="curve"/>
      <point x="286" y="990" type="line"/>
      <point x="148" y="990" type="line"/>
      <point x="170" y="900" type="line"/>
      <point x="57" y="864"/>
      <point x="-15" y="780"/>
      <point x="-15" y="654" type="curve" smooth="yes"/>
      <point x="-15" y="506"/>
      <point x="85" y="402"/>
      <point x="281" y="334" type="curve" smooth="yes"/>
      <point x="379" y="300" type="line" smooth="yes"/>
      <point x="425" y="284"/>
      <point x="442" y="274"/>
      <point x="442" y="260" type="curve" smooth="yes"/>
      <point x="442" y="240"/>
      <point x="411" y="228"/>
      <point x="364" y="228" type="curve" smooth="yes"/>
      <point x="280" y="228"/>
      <point x="186" y="267"/>
      <point x="109" y="328" type="curve"/>
      <point x="109" y="45" type="line"/>
      <point x="178" y="4"/>
      <point x="277" y="-20"/>
      <point x="400" y="-20" type="curve"/>
    </contour>
  </outline>
</glyph>
<glyph name="ampersand" format="2">
  <advance width="860"/>
  <unicode hex="0026"/>
  <outline>
    <contour>
      <point x="373" y="-17" type="curve" smooth="yes"/>
      <point x="442" y="-17"/>
      <point x="528" y="2"/>
      <point x="595" y="57" type="curve"/>
      <point x="654" y="0" type="line"/>
      <point x="946" y="0" type="line"/>
      <point x="763" y="188" type="line"/>
      <point x="794" y="234"/>
      <point x="816" y="282"/>
      <point x="827" y="333" type="curve"/>
      <point x="629" y="536" type="line"/>
      <point x="634" y="480"/>
      <point x="623" y="414"/>
      <point x="602" y="354" type="curve"/>
      <point x="467" y="493" type="line"/>
      <point x="482" y="508" type="line" smooth="yes"/>
      <point x="533" y="559"/>
      <point x="560" y="608"/>
      <point x="560" y="664" type="curve" smooth="yes"/>
      <point x="560" y="803"/>
      <point x="417" y="918"/>
      <point x="277" y="918" type="curve" smooth="yes"/>
      <point x="149" y="918"/>
      <point x="51" y="829"/>
      <point x="51" y="709" type="curve" smooth="yes"/>
      <point x="51" y="662"/>
      <point x="71" y="586"/>
      <point x="142" y="523" type="curve" smooth="yes"/>
      <point x="150" y="516" type="line"/>
      <point x="73" y="454"/>
      <point x="36" y="383"/>
      <point x="36" y="292" type="curve" smooth="yes"/>
      <point x="36" y="140"/>
      <point x="169" y="-17"/>
    </contour>
    <contour>
      <point x="371" y="208" type="curve" smooth="yes"/>
      <point x="315" y="208"/>
      <point x="275" y="253"/>
      <point x="275" y="298" type="curve" smooth="yes"/>
      <point x="275" y="320"/>
      <point x="284" y="338"/>
      <point x="301" y="354" type="curve"/>
      <point x="434" y="227" type="line"/>
      <point x="413" y="213"/>
      <point x="394" y="208"/>
    </contour>
    <contour>
      <point x="311" y="616" type="line"/>
      <point x="292" y="634" type="line" smooth="yes"/>
      <point x="275" y="651"/>
      <point x="257" y="667"/>
      <point x="257" y="691" type="curve" smooth="yes"/>
      <point x="257" y="714"/>
      <point x="274" y="732"/>
      <point x="301" y="732" type="curve" smooth="yes"/>
      <point x="329" y="732"/>
      <point x="355" y="707"/>
      <point x="355" y="680" type="curve" smooth="yes"/>
      <point x="355" y="663"/>
      <point x="345" y="646"/>
      <point x="327" y="630" type="curve" smooth="yes"/>
    </contour>
  </outline>
</glyph>
<glyph name="quotesingle" format="2">
  <advance width="330"/>
  <unicode hex="0027"/>
  <outline>
    <contour>
      <point x="27" y="510" type="line"/>
      <point x="223" y="510" type="line"/>
      <point x="147" y="900" type="line"/>
      <point x="-117" y="900" type="line"/>
    </contour>
  </outline>
</glyph>
<glyph name="parenleft" format="2">
  <advance width="480"/>
  <unicode hex="0028"/>
  <outline>
    <contour>
      <point x="324" y="-180" type="curve"/>
      <point x="616" y="-180" type="line"/>
      <point x="371" y="44"/>
      <point x="248" y="356"/>
      <point x="248" y="636" type="curve" smooth="yes"/>
      <point x="248" y="752"/>
      <point x="268" y="861"/>
      <point x="308" y="960" type="curve"/>
      <point x="60" y="960" type="line"/>
      <point x="21" y="853"/>
      <point x="0" y="738"/>
      <point x="0" y="617" type="curve" smooth="yes"/>
      <point x="0" y="325"/>
      <point x="123" y="42"/>
    </contour>
  </outline>
</glyph>
<glyph name="parenright" format="2">
  <advance width="480"/>
  <unicode hex="0029"/>
  <outline>
    <contour>
      <point x="127" y="-180" type="curve"/>
      <point x="375" y="-180" type="line"/>
      <point x="414" y="-73"/>
      <point x="435" y="42"/>
      <point x="435" y="163" type="curve" smooth="yes"/>
      <point x="435" y="455"/>
      <point x="312" y="738"/>
      <point x="111" y="960" type="curve"/>
      <point x="-181" y="960" type="line"/>
      <point x="64" y="736"/>
      <point x="187" y="424"/>
      <point x="187" y="144" type="curve" smooth="yes"/>
      <point x="187" y="28"/>
      <point x="167" y="-81"/>
    </contour>
  </outline>
</glyph>
<glyph name="asterisk" format="2">
  <advance width="660"/>
  <unicode hex="002A"/>
  <outline>
    <contour>
      <point x="243" y="314" type="line"/>
      <point x="290" y="459" type="line"/>
      <point x="410" y="329" type="line"/>
      <point x="546" y="472" type="line"/>
      <point x="406" y="583" type="line"/>
      <point x="554" y="638" type="line"/>
      <point x="442" y="827" type="line"/>
      <point x="311" y="746" type="line"/>
      <point x="285" y="900" type="line"/>
      <point x="75" y="900" type="line"/>
      <point x="133" y="724" type="line"/>
      <point x="-29" y="769" type="line"/>
      <point x="-44" y="564" type="line"/>
      <point x="122" y="548" type="line"/>
      <point x="45" y="416" type="line"/>
    </contour>
  </outline>
</glyph>
<glyph name="plus" format="2">
  <advance width="750"/>
  <unicode hex="002B"/>
  <outline>
    <contour>
      <point x="321" y="115" type="line"/>
      <point x="525" y="115" type="line"/>
      <point x="465" y="352" type="line"/>
      <point x="698" y="352" type="line"/>
      <point x="650" y="548" type="line"/>
      <point x="417" y="548" type="line"/>
      <point x="357" y="785" type="line"/>
      <point x="153" y="785" type="line"/>
      <point x="213" y="548" type="line"/>
      <point x="-20" y="548" type="line"/>
      <point x="28" y="352" type="line"/>
      <point x="261" y="352" type="line"/>
    </contour>
  </outline>
</glyph>
<glyph name="comma" format="2">
  <advance width="330"/>
  <unicode hex="002C"/>
  <outline>
    <contour>
      <point x="78" y="-120" type="curve"/>
      <point x="321" y="-120" type="line"/>
      <point x="353" y="-21"/>
      <point x="361" y="130"/>
      <point x="307" y="270" type="curve"/>
      <point x="67" y="270" type="line"/>
      <point x="126" y="113"/>
      <point x="102" y="-31"/>
    </contour>
  </outline>
</glyph>
<glyph name="hyphen" format="2">
  <advance width="400"/>
  <unicode hex="002D"/>
  <outline>
    <contour>
      <point x="51" y="217" type="line"/>
      <point x="391" y="217" type="line"/>
      <point x="343" y="413" type="line"/>
      <point x="3" y="413" type="line"/>
    </contour>
  </outline>
</glyph>
<glyph name="period" format="2">
  <advance width="330"/>
  <unicode hex="002E"/>
  <outline>
    <contour>
      <point x="226" y="-20" type="curve" smooth="yes"/>
      <point x="296" y="-20"/>
      <point x="355" y="34"/>
      <point x="355" y="111" type="curve" smooth="yes"/>
      <point x="355" y="196"/>
      <point x="277" y="274"/>
      <point x="190" y="274" type="curve" smooth="yes"/>
      <point x="115" y="274"/>
      <point x="61" y="218"/>
      <point x="61" y="145" type="curve" smooth="yes"/>
      <point x="61" y="58"/>
      <point x="139" y="-20"/>
    </contour>
  </outline>
</glyph>
<glyph name="slash" format="2">
  <advance width="560"/>
  <unicode hex="002F"/>
  <outline>
    <contour>
      <point x="23" y="-180" type="line"/>
      <point x="217" y="-180" type="line"/>
      <point x="492" y="960" type="line"/>
      <point x="298" y="960" type="line"/>
    </contour>
  </outline>
</glyph>
<glyph name="one" format="2">
  <advance width="750"/>
  <unicode hex="0031"/>
  <outline>
    <contour>
      <point x="183" y="0" type="line"/>
      <point x="765" y="0" type="line"/>
      <point x="711" y="216" type="line"/>
      <point x="583" y="216" type="line"/>
      <point x="407" y="920" type="line"/>
      <point x="347" y="920" type="line"/>
      <point x="13" y="728" type="line"/>
      <point x="67" y="508" type="line"/>
      <point x="215" y="587" type="line"/>
      <point x="307" y="216" type="line"/>
      <point x="129" y="216" type="line"/>
    </contour>
  </outline>
</glyph>
<glyph name="four" format="2">
  <advance width="750"/>
  <unicode hex="0034"/>
  <outline>
    <contour>
      <point x="486" y="0" type="line"/>
      <point x="750" y="0" type="line"/>
      <point x="702" y="194" type="line"/>
      <point x="758" y="194" type="line"/>
      <point x="707" y="398" type="line"/>
      <point x="651" y="398" type="line"/>
      <point x="591" y="638" type="line"/>
      <point x="376" y="499" type="line"/>
      <point x="401" y="398" type="line"/>
      <point x="318" y="398" type="line"/>
      <point x="412" y="900" type="line"/>
      <point x="140" y="900" type="line"/>
      <point x="7" y="196" type="line"/>
      <point x="8" y="194" type="line"/>
      <point x="438" y="194" type="line"/>
    </contour>
  </outline>
</glyph>
<glyph name="seven" format="2">
  <advance width="750"/>
  <unicode hex="0037"/>
  <outline>
    <contour>
      <point x="134" y="0" type="line"/>
      <point x="428" y="0" type="line"/>
      <point x="582" y="898" type="line"/>
      <point x="582" y="900" type="line"/>
      <point x="-108" y="900" type="line"/>
      <point x="-45" y="648" type="line"/>
      <point x="261" y="648" type="line"/>
    </contour>
  </outline>
</glyph>
<glyph name="eight" format="2">
  <advance width="750"/>
  <unicode hex="0038"/>
  <outline>
    <contour>
      <point x="407" y="-20" type="curve" smooth="yes"/>
      <point x="574" y="-20"/>
      <point x="717" y="95"/>
      <point x="717" y="267" type="curve" smooth="yes"/>
      <point x="717" y="367"/>
      <point x="669" y="468"/>
      <point x="571" y="543" type="curve"/>
      <point x="580" y="567"/>
      <point x="585" y="592"/>
      <point x="585" y="619" type="curve" smooth="yes"/>
      <point x="585" y="771"/>
      <point x="438" y="920"/>
      <point x="260" y="920" type="curve" smooth="yes"/>
      <point x="108" y="920"/>
      <point x="-7" y="817"/>
      <point x="-7" y="669" type="curve" smooth="yes"/>
      <point x="-7" y="615"/>
      <point x="9" y="545"/>
      <point x="72" y="479" type="curve"/>
      <point x="46" y="435"/>
      <point x="32" y="388"/>
      <point x="32" y="336" type="curve" smooth="yes"/>
      <point x="32" y="154"/>
      <point x="196" y="-20"/>
    </contour>
    <contour>
      <point x="382" y="220" type="curve" smooth="yes"/>
      <point x="325" y="220"/>
      <point x="276" y="270"/>
      <point x="276" y="328" type="curve" smooth="yes"/>
      <point x="276" y="376"/>
      <point x="310" y="410"/>
      <point x="358" y="410" type="curve" smooth="yes"/>
      <point x="415" y="410"/>
      <point x="464" y="360"/>
      <point x="464" y="302" type="curve" smooth="yes"/>
      <point x="464" y="254"/>
      <point x="430" y="220"/>
    </contour>
    <contour>
      <point x="303" y="550" type="curve" smooth="yes"/>
      <point x="256" y="550"/>
      <point x="216" y="591"/>
      <point x="216" y="638" type="curve" smooth="yes"/>
      <point x="216" y="676"/>
      <point x="244" y="704"/>
      <point x="283" y="704" type="curve" smooth="yes"/>
      <point x="331" y="704"/>
      <point x="370" y="663"/>
      <point x="370" y="616" type="curve" smooth="yes"/>
      <point x="370" y="578"/>
      <point x="343" y="550"/>
    </contour>
  </outline>
</glyph>
<glyph name="nine" format="2">
  <advance width="750"/>
  <unicode hex="0039"/>
  <outline>
    <contour>
      <point x="236" y="0" type="line"/>
      <point x="505" y="0" type="line"/>
      <point x="625" y="423" type="line" smooth="yes"/>
      <point x="642" y="482"/>
      <point x="645" y="519"/>
      <point x="645" y="547" type="curve" smooth="yes"/>
      <point x="645" y="743"/>
      <point x="473" y="920"/>
      <point x="265" y="920" type="curve" smooth="yes"/>
      <point x="87" y="920"/>
      <point x="-42" y="799"/>
      <point x="-42" y="631" type="curve" smooth="yes"/>
      <point x="-42" y="440"/>
      <point x="124" y="270"/>
      <point x="311" y="270" type="curve" smooth="yes"/>
      <point x="313" y="270"/>
      <point x="315" y="270"/>
      <point x="317" y="270" type="curve"/>
    </contour>
    <contour>
      <point x="315" y="490" type="curve" smooth="yes"/>
      <point x="258" y="490"/>
      <point x="209" y="540"/>
      <point x="209" y="598" type="curve" smooth="yes"/>
      <point x="209" y="646"/>
      <point x="243" y="680"/>
      <point x="291" y="680" type="curve" smooth="yes"/>
      <point x="348" y="680"/>
      <point x="397" y="630"/>
      <point x="397" y="572" type="curve" smooth="yes"/>
      <point x="397" y="524"/>
      <point x="363" y="490"/>
    </contour>
  </outline>
</glyph>
<glyph name="less" format="2">
  <advance width="750"/>
  <unicode hex="003C"/>
  <outline>
    <contour>
      <point x="741" y="95" type="line"/>
      <point x="680" y="339" type="line"/>
      <point x="459" y="422" type="line" smooth="yes"/>
      <point x="422" y="436"/>
      <point x="380" y="451"/>
      <point x="341" y="466" type="curve"/>
      <point x="372" y="479"/>
      <point x="407" y="494"/>
      <point x="438" y="508" type="curve" smooth="yes"/>
      <point x="617" y="591" type="line"/>
      <point x="563" y="805" type="line"/>
      <point x="14" y="531" type="line"/>
      <point x="54" y="369" type="line"/>
    </contour>
  </outline>
</glyph>
<glyph name="equal" format="2">
  <advance width="750"/>
  <unicode hex="003D"/>
  <outline>
    <contour>
      <point x="24" y="486" type="line"/>
      <point x="634" y="486" type="line"/>
      <point x="591" y="660" type="line"/>
      <point x="-19" y="660" type="line"/>
    </contour>
    <contour>
      <point x="85" y="240" type="line"/>
      <point x="695" y="240" type="line"/>
      <point x="652" y="414" type="line"/>
      <point x="42" y="414" type="line"/>
    </contour>
  </outline>
</glyph>
<glyph name="greater" format="2">
  <advance width="750"/>
  <unicode hex="003E"/>
  <outline>
    <contour>
      <point x="112" y="95" type="line"/>
      <point x="661" y="369" type="line"/>
      <point x="621" y="531" type="line"/>
      <point x="-66" y="805" type="line"/>
      <point x="-5" y="561" type="line"/>
      <point x="216" y="478" type="line" smooth="yes"/>
      <point x="253" y="464"/>
      <point x="295" y="449"/>
      <point x="334" y="434" type="curve"/>
      <point x="303" y="421"/>
      <point x="268" y="406"/>
      <point x="237" y="392" type="curve" smooth="yes"/>
      <point x="58" y="309" type="line"/>
    </contour>
  </outline>
</glyph>
<glyph name="question" format="2">
  <advance width="480"/>
  <unicode hex="003F"/>
  <outline>
    <contour>
      <point x="116" y="330" type="curve"/>
      <point x="348" y="330" type="line"/>
      <point x="310" y="444"/>
      <point x="382" y="545"/>
      <point x="382" y="655" type="curve" smooth="yes"/>
      <point x="382" y="772"/>
      <point x="310" y="920"/>
      <point x="120" y="920" type="curve" smooth="yes"/>
      <point x="41" y="920"/>
      <point x="-43" y="900"/>
      <point x="-110" y="840" type="curve"/>
      <point x="-53" y="610" type="line"/>
      <point x="-24" y="654"/>
      <point x="19" y="692"/>
      <point x="64" y="692" type="curve" smooth="yes"/>
      <point x="104" y="692"/>
      <point x="119" y="665"/>
      <point x="119" y="637" type="curve" smooth="yes"/>
      <point x="119" y="589"/>
      <point x="74" y="465"/>
    </contour>
    <contour>
      <point x="302" y="-20" type="curve" smooth="yes"/>
      <point x="369" y="-20"/>
      <point x="425" y="31"/>
      <point x="425" y="105" type="curve" smooth="yes"/>
      <point x="425" y="186"/>
      <point x="351" y="260"/>
      <point x="268" y="260" type="curve" smooth="yes"/>
      <point x="196" y="260"/>
      <point x="145" y="207"/>
      <point x="145" y="137" type="curve" smooth="yes"/>
      <point x="145" y="54"/>
      <point x="219" y="-20"/>
    </contour>
  </outline>
</glyph>
<glyph name="at" format="2">
  <advance width="1260"/>
  <unicode hex="0040"/>
  <outline>
    <contour>
      <point x="671" y="-192" type="curve" smooth="yes"/>
      <point x="807" y="-192"/>
      <point x="955" y="-146"/>
      <point x="1046" y="-73" type="curve"/>
      <point x="972" y="91" type="line"/>
      <point x="897" y="25"/>
      <point x="774" y="-17"/>
      <point x="665" y="-17" type="curve" smooth="yes"/>
      <point x="434" y="-17"/>
      <point x="249" y="171"/>
      <point x="249" y="400" type="curve" smooth="yes"/>
      <point x="249" y="602"/>
      <point x="394" y="737"/>
      <point x="596" y="737" type="curve" smooth="yes"/>
      <point x="816" y="737"/>
      <point x="987" y="576"/>
      <point x="987" y="382" type="curve" smooth="yes"/>
      <point x="987" y="327"/>
      <point x="973" y="298"/>
      <point x="947" y="298" type="curve" smooth="yes"/>
      <point x="927" y="298"/>
      <point x="911" y="317"/>
      <point x="903" y="349" type="curve" smooth="yes"/>
      <point x="835" y="619" type="line"/>
      <point x="667" y="619" type="line"/>
      <point x="674" y="594" type="line"/>
      <point x="630" y="628"/>
      <point x="587" y="644"/>
      <point x="538" y="644" type="curve" smooth="yes"/>
      <point x="412" y="644"/>
      <point x="319" y="539"/>
      <point x="319" y="397" type="curve" smooth="yes"/>
      <point x="319" y="222"/>
      <point x="461" y="76"/>
      <point x="633" y="76" type="curve" smooth="yes"/>
      <point x="722" y="76"/>
      <point x="794" y="115"/>
      <point x="820" y="177" type="curve"/>
      <point x="861" y="142"/>
      <point x="905" y="126"/>
      <point x="958" y="126" type="curve" smooth="yes"/>
      <point x="1087" y="126"/>
      <point x="1167" y="223"/>
      <point x="1167" y="382" type="curve" smooth="yes"/>
      <point x="1167" y="670"/>
      <point x="902" y="912"/>
      <point x="575" y="912" type="curve" smooth="yes"/>
      <point x="273" y="912"/>
      <point x="53" y="706"/>
      <point x="53" y="417" type="curve" smooth="yes"/>
      <point x="53" y="89"/>
      <point x="336" y="-192"/>
    </contour>
    <contour>
      <point x="626" y="280" type="curve" smooth="yes"/>
      <point x="579" y="280"/>
      <point x="539" y="322"/>
      <point x="539" y="371" type="curve" smooth="yes"/>
      <point x="539" y="411"/>
      <point x="567" y="440"/>
      <point x="607" y="440" type="curve" smooth="yes"/>
      <point x="654" y="440"/>
      <point x="693" y="399"/>
      <point x="693" y="349" type="curve" smooth="yes"/>
      <point x="693" y="308"/>
      <point x="665" y="280"/>
    </contour>
  </outline>
</glyph>
<glyph name="B" format="2">
  <advance width="830"/>
  <unicode hex="0042"/>
  <outline>
    <contour>
      <point x="135" y="0" type="line"/>
      <point x="477" y="0" type="line" smooth="yes"/>
      <point x="688" y="0"/>
      <point x="807" y="94"/>
      <point x="807" y="260" type="curve" smooth="yes"/>
      <point x="807" y="404"/>
      <point x="717" y="491"/>
      <point x="639" y="533" type="curve"/>
      <point x="657" y="561"/>
      <point x="666" y="592"/>
      <point x="666" y="633" type="curve" smooth="yes"/>
      <point x="666" y="795"/>
      <point x="547" y="900"/>
      <point x="363" y="900" type="curve" smooth="yes"/>
      <point x="-90" y="900" type="line"/>
    </contour>
    <contour>
      <point x="367" y="222" type="line"/>
      <point x="324" y="396" type="line"/>
      <point x="417" y="396" type="line" smooth="yes"/>
      <point x="471" y="396"/>
      <point x="515" y="351"/>
      <point x="515" y="296" type="curve" smooth="yes"/>
      <point x="515" y="251"/>
      <point x="486" y="222"/>
      <point x="439" y="222" type="curve" smooth="yes"/>
    </contour>
    <contour>
      <point x="281" y="564" type="line"/>
      <point x="245" y="708" type="line"/>
      <point x="331" y="708" type="line" smooth="yes"/>
      <point x="375" y="708"/>
      <point x="412" y="671"/>
      <point x="412" y="625" type="curve" smooth="yes"/>
      <point x="412" y="588"/>
      <point x="388" y="564"/>
      <point x="349" y="564" type="curve" smooth="yes"/>
    </contour>
  </outline>
</glyph>
<glyph name="C" format="2">
  <advance width="830"/>
  <unicode hex="0043"/>
  <anchor x="535" y="0" name="bottom"/>
  <anchor x="374" y="900" name="top"/>
  <outline>
    <contour>
      <point x="535" y="-20" type="curve" smooth="yes"/>
      <point x="652" y="-20"/>
      <point x="766" y="18"/>
      <point x="843" y="82" type="curve"/>
      <point x="702" y="369" type="line"/>
      <point x="664" y="306"/>
      <point x="600" y="269"/>
      <point x="529" y="269" type="curve" smooth="yes"/>
      <point x="416" y="269"/>
      <point x="319" y="363"/>
      <point x="319" y="471" type="curve" smooth="yes"/>
      <point x="319" y="565"/>
      <point x="391" y="632"/>
      <point x="490" y="632" type="curve" smooth="yes"/>
      <point x="563" y="632"/>
      <point x="638" y="595"/>
      <point x="704" y="527" type="curve"/>
      <point x="704" y="849" type="line"/>
      <point x="619" y="895"/>
      <point x="528" y="920"/>
      <point x="437" y="920" type="curve" smooth="yes"/>
      <point x="187" y="920"/>
      <point x="2" y="743"/>
      <point x="2" y="504" type="curve" smooth="yes"/>
      <point x="2" y="223"/>
      <point x="249" y="-20"/>
    </contour>
  </outline>
</glyph>
<glyph name="D" format="2">
  <advance width="940"/>
  <unicode hex="0044"/>
  <anchor x="507" y="0" name="bottom"/>
  <anchor x="157" y="456" name="center"/>
  <anchor x="283" y="900" name="top"/>
  <outline>
    <contour>
      <point x="135" y="0" type="line"/>
      <point x="445" y="0" type="line" smooth="yes"/>
      <point x="684" y="0"/>
      <point x="864" y="170"/>
      <point x="864" y="395" type="curve" smooth="yes"/>
      <point x="864" y="676"/>
      <point x="632" y="900"/>
      <point x="331" y="900" type="curve" smooth="yes"/>
      <point x="-89" y="900" type="line"/>
    </contour>
    <contour>
      <point x="354" y="276" type="line"/>
      <point x="268" y="624" type="line"/>
      <point x="364" y="624" type="line" smooth="yes"/>
      <point x="480" y="624"/>
      <point x="568" y="533"/>
      <point x="568" y="426" type="curve" smooth="yes"/>
      <point x="568" y="340"/>
      <point x="506" y="276"/>
      <point x="408" y="276" type="curve" smooth="yes"/>
    </contour>
  </outline>
</glyph>
<glyph name="E" format="2">
  <advance width="660"/>
  <unicode hex="0045"/>
  <anchor x="414" y="0" name="bottom"/>
  <anchor x="588" y="0" name="ogonek"/>
  <anchor x="190" y="900" name="top"/>
  <anchor x="-89" y="900" name="topleft"/>
  <outline>
    <contour>
      <point x="135" y="0" type="line"/>
      <point x="693" y="0" type="line"/>
      <point x="633" y="240" type="line"/>
      <point x="357" y="240" type="line"/>
      <point x="323" y="378" type="line"/>
      <point x="557" y="378" type="line"/>
      <point x="509" y="570" type="line"/>
      <point x="275" y="570" type="line"/>
      <point x="251" y="666" type="line"/>
      <point x="527" y="666" type="line"/>
      <point x="469" y="900" type="line"/>
      <point x="-89" y="900" type="line"/>
    </contour>
  </outline>
</glyph>
<glyph name="F" format="2">
  <advance width="630"/>
  <unicode hex="0046"/>
  <outline>
    <contour>
      <point x="135" y="0" type="line"/>
      <point x="435" y="0" type="line"/>
      <point x="348" y="351" type="line"/>
      <point x="552" y="351" type="line"/>
      <point x="502" y="549" type="line"/>
      <point x="298" y="549" type="line"/>
      <point x="271" y="660" type="line"/>
      <point x="505" y="660" type="line"/>
      <point x="445" y="900" type="line"/>
      <point x="-89" y="900" type="line"/>
    </contour>
  </outline>
</glyph>
<glyph name="H" format="2">
  <advance width="900"/>
  <unicode hex="0048"/>
  <anchor x="526" y="0" name="bottom"/>
  <anchor x="339" y="750" name="center"/>
  <anchor x="302" y="900" name="top"/>
  <anchor x="636" y="900" name="topleft"/>
  <outline>
    <contour>
      <point x="135" y="0" type="line"/>
      <point x="429" y="0" type="line"/>
      <point x="335" y="378" type="line"/>
      <point x="527" y="378" type="line"/>
      <point x="621" y="0" type="line"/>
      <point x="915" y="0" type="line"/>
      <point x="691" y="900" type="line"/>
      <point x="397" y="900" type="line"/>
      <point x="464" y="630" type="line"/>
      <point x="272" y="630" type="line"/>
      <point x="205" y="900" type="line"/>
      <point x="-89" y="900" type="line"/>
    </contour>
  </outline>
</glyph>
<glyph name="I" format="2">
  <advance width="420"/>
  <unicode hex="0049"/>
  <anchor x="285" y="0" name="bottom"/>
  <anchor x="285" y="0" name="ogonek"/>
  <anchor x="61" y="900" name="top"/>
  <anchor x="263" y="900" name="topleft"/>
  <outline>
    <contour>
      <point x="135" y="0" type="line"/>
      <point x="435" y="0" type="line"/>
      <point x="211" y="900" type="line"/>
      <point x="-89" y="900" type="line"/>
    </contour>
  </outline>
</glyph>
<glyph name="J" format="2">
  <advance width="580"/>
  <unicode hex="004A"/>
  <anchor x="377" y="0" name="bottom"/>
  <anchor x="237" y="900" name="top"/>
  <outline>
    <contour>
      <point x="245" y="-20" type="curve" smooth="yes"/>
      <point x="469" y="-20"/>
      <point x="567" y="142"/>
      <point x="519" y="336" type="curve" smooth="yes"/>
      <point x="378" y="900" type="line"/>
      <point x="84" y="900" type="line"/>
      <point x="224" y="337" type="line" smooth="yes"/>
      <point x="237" y="284"/>
      <point x="224" y="233"/>
      <point x="158" y="233" type="curve" smooth="yes"/>
      <point x="126" y="233"/>
      <point x="97" y="245"/>
      <point x="73" y="267" type="curve"/>
      <point x="73" y="26" type="line"/>
      <point x="122" y="-4"/>
      <point x="174" y="-20"/>
    </contour>
  </outline>
</glyph>
<glyph name="K" format="2">
  <advance width="880"/>
  <unicode hex="004B"/>
  <anchor x="521" y="0" name="bottom"/>
  <anchor x="229" y="900" name="top"/>
  <outline>
    <contour>
      <point x="619" y="0" type="line"/>
      <point x="961" y="0" type="line"/>
      <point x="572" y="530" type="line"/>
      <point x="681" y="900" type="line"/>
      <point x="379" y="900" type="line"/>
      <point x="263" y="494" type="line"/>
    </contour>
    <contour>
      <point x="135" y="0" type="line"/>
      <point x="423" y="0" type="line"/>
      <point x="199" y="900" type="line"/>
      <point x="-89" y="900" type="line"/>
    </contour>
  </outline>
</glyph>
<glyph name="L" format="2">
  <advance width="630"/>
  <unicode hex="004C"/>
  <anchor x="402" y="0" name="bottom"/>
  <anchor x="182" y="450" name="center"/>
  <anchor x="448" y="510" name="periodcentered"/>
  <anchor x="70" y="900" name="top"/>
  <anchor x="205" y="900" name="topright"/>
  <outline>
    <contour>
      <point x="135" y="0" type="line"/>
      <point x="669" y="0" type="line"/>
      <point x="606" y="252" type="line"/>
      <point x="378" y="252" type="line"/>
      <point x="217" y="900" type="line"/>
      <point x="-89" y="900" type="line"/>
    </contour>
  </outline>
</glyph>
<glyph name="M" format="2">
  <advance width="1080"/>
  <unicode hex="004D"/>
  <outline>
    <contour>
      <point x="135" y="0" type="line"/>
      <point x="421" y="0" type="line"/>
      <point x="391" y="122" type="line" smooth="yes"/>
      <point x="376" y="182"/>
      <point x="358" y="253"/>
      <point x="326" y="340" type="curve"/>
      <point x="384" y="276"/>
      <point x="436" y="226"/>
      <point x="478" y="187" type="curve" smooth="yes"/>
      <point x="588" y="85" type="line"/>
      <point x="648" y="187" type="line" smooth="yes"/>
      <point x="670" y="225"/>
      <point x="696" y="276"/>
      <point x="722" y="340" type="curve"/>
      <point x="734" y="253"/>
      <point x="752" y="182"/>
      <point x="767" y="122" type="curve" smooth="yes"/>
      <point x="797" y="0" type="line"/>
      <point x="1095" y="0" type="line"/>
      <point x="871" y="900" type="line"/>
      <point x="703" y="900" type="line"/>
      <point x="507" y="484" type="line"/>
      <point x="103" y="900" type="line"/>
      <point x="-89" y="900" type="line"/>
    </contour>
  </outline>
</glyph>
<glyph name="N" format="2">
  <advance width="920"/>
  <unicode hex="004E"/>
  <anchor x="588" y="30" name="bottom"/>
  <anchor x="288" y="870" name="top"/>
  <outline>
    <contour>
      <point x="765" y="0" type="line"/>
      <point x="935" y="0" type="line"/>
      <point x="711" y="900" type="line"/>
      <point x="429" y="900" type="line"/>
      <point x="523" y="521" type="line"/>
      <point x="81" y="900" type="line"/>
      <point x="-89" y="900" type="line"/>
      <point x="135" y="0" type="line"/>
      <point x="417" y="0" type="line"/>
      <point x="322" y="381" type="line"/>
    </contour>
  </outline>
</glyph>
<glyph name="O" format="2">
  <advance width="1040"/>
  <unicode hex="004F"/>
  <anchor x="595" y="0" name="bottom"/>
  <anchor x="483" y="450" name="center"/>
  <anchor x="533" y="0" name="ogonek"/>
  <anchor x="371" y="900" name="top"/>
  <anchor x="483" y="450" name="top-vertical"/>
  <anchor x="841" y="900" name="topleft"/>
  <anchor x="-99" y="900" name="topright"/>
  <outline>
    <contour>
      <point x="536" y="-17" type="curve" smooth="yes"/>
      <point x="780" y="-17"/>
      <point x="963" y="159"/>
      <point x="963" y="397" type="curve" smooth="yes"/>
      <point x="963" y="675"/>
      <point x="714" y="917"/>
      <point x="428" y="917" type="curve" smooth="yes"/>
      <point x="184" y="917"/>
      <point x="2" y="741"/>
      <point x="2" y="503" type="curve" smooth="yes"/>
      <point x="2" y="226"/>
      <point x="250" y="-17"/>
    </contour>
    <contour>
      <point x="503" y="268" type="curve" smooth="yes"/>
      <point x="395" y="268"/>
      <point x="298" y="364"/>
      <point x="298" y="472" type="curve" smooth="yes"/>
      <point x="298" y="564"/>
      <point x="368" y="632"/>
      <point x="462" y="632" type="curve" smooth="yes"/>
      <point x="571" y="632"/>
      <point x="667" y="536"/>
      <point x="667" y="428" type="curve" smooth="yes"/>
      <point x="667" y="336"/>
      <point x="597" y="268"/>
    </contour>
  </outline>
</glyph>
<glyph name="P" format="2">
  <advance width="800"/>
  <unicode hex="0050"/>
  <outline>
    <contour>
      <point x="135" y="0" type="line"/>
      <point x="423" y="0" type="line"/>
      <point x="359" y="258" type="line"/>
      <point x="417" y="258" type="line" smooth="yes"/>
      <point x="611" y="258"/>
      <point x="712" y="390"/>
      <point x="712" y="543" type="curve" smooth="yes"/>
      <point x="712" y="725"/>
      <point x="565" y="900"/>
      <point x="338" y="900" type="curve"/>
      <point x="-89" y="900" type="line"/>
    </contour>
    <contour>
      <point x="304" y="480" type="line"/>
      <point x="257" y="666" type="line"/>
      <point x="323" y="666" type="line" smooth="yes"/>
      <point x="384" y="666"/>
      <point x="428" y="615"/>
      <point x="428" y="559" type="curve" smooth="yes"/>
      <point x="428" y="511"/>
      <point x="396" y="480"/>
      <point x="346" y="480" type="curve" smooth="yes"/>
    </contour>
  </outline>
</glyph>
<glyph name="Q" format="2">
  <advance width="1040"/>
  <unicode hex="0051"/>
  <outline>
    <contour>
      <point x="779" y="-30" type="line"/>
      <point x="1135" y="-30" type="line"/>
      <point x="906" y="182" type="line"/>
      <point x="942" y="244"/>
      <point x="963" y="317"/>
      <point x="963" y="397" type="curve" smooth="yes"/>
      <point x="963" y="675"/>
      <point x="714" y="917"/>
      <point x="428" y="917" type="curve" smooth="yes"/>
      <point x="184" y="917"/>
      <point x="2" y="741"/>
      <point x="2" y="503" type="curve" smooth="yes"/>
      <point x="2" y="226"/>
      <point x="250" y="-17"/>
      <point x="536" y="-17" type="curve" smooth="yes"/>
      <point x="604" y="-17"/>
      <point x="667" y="-3"/>
      <point x="723" y="22" type="curve"/>
    </contour>
    <contour>
      <point x="514" y="248" type="curve" smooth="yes"/>
      <point x="400" y="248"/>
      <point x="298" y="349"/>
      <point x="298" y="463" type="curve" smooth="yes"/>
      <point x="298" y="560"/>
      <point x="372" y="632"/>
      <point x="471" y="632" type="curve" smooth="yes"/>
      <point x="586" y="632"/>
      <point x="687" y="531"/>
      <point x="687" y="417" type="curve" smooth="yes"/>
      <point x="687" y="410"/>
      <point x="687" y="403"/>
      <point x="686" y="396" type="curve"/>
      <point x="627" y="450" type="line"/>
      <point x="306" y="450" type="line"/>
      <point x="523" y="248" type="line"/>
      <point x="520" y="248"/>
      <point x="517" y="248"/>
    </contour>
  </outline>
</glyph>
<glyph name="R" format="2">
  <advance width="850"/>
  <unicode hex="0052"/>
  <anchor x="523" y="0" name="bottom"/>
  <anchor x="243" y="900" name="top"/>
  <outline>
    <contour>
      <point x="135" y="0" type="line"/>
      <point x="423" y="0" type="line"/>
      <point x="350" y="294" type="line"/>
      <point x="411" y="294" type="line"/>
      <point x="611" y="0" type="line"/>
      <point x="931" y="0" type="line"/>
      <point x="650" y="389" type="line"/>
      <point x="689" y="436"/>
      <point x="708" y="498"/>
      <point x="708" y="563" type="curve" smooth="yes"/>
      <point x="708" y="735"/>
      <point x="569" y="900"/>
      <point x="355" y="900" type="curve" smooth="yes"/>
      <point x="-89" y="900" type="line"/>
    </contour>
    <contour>
      <point x="298" y="504" type="line"/>
      <point x="254" y="678" type="line"/>
      <point x="324" y="678" type="line" smooth="yes"/>
      <point x="381" y="678"/>
      <point x="422" y="630"/>
      <point x="422" y="578" type="curve" smooth="yes"/>
      <point x="422" y="533"/>
      <point x="392" y="504"/>
      <point x="345" y="504" type="curve" smooth="yes"/>
    </contour>
  </outline>
</glyph>
<glyph name="S" format="2">
  <advance width="700"/>
  <unicode hex="0053"/>
  <anchor x="352" y="0" name="bottom"/>
  <anchor x="227" y="900" name="top"/>
  <outline>
    <contour>
      <point x="352" y="-20" type="curve" smooth="yes"/>
      <point x="553" y="-20"/>
      <point x="688" y="79"/>
      <point x="688" y="245" type="curve" smooth="yes"/>
      <point x="688" y="385"/>
      <point x="593" y="507"/>
      <point x="414" y="567" type="curve" smooth="yes"/>
      <point x="282" y="611" type="line" smooth="yes"/>
      <point x="240" y="625"/>
      <point x="230" y="633"/>
      <point x="230" y="644" type="curve" smooth="yes"/>
      <point x="230" y="663"/>
      <point x="256" y="672"/>
      <point x="299" y="672" type="curve" smooth="yes"/>
      <point x="371" y="672"/>
      <point x="451" y="646"/>
      <point x="522" y="600" type="curve"/>
      <point x="522" y="870" type="line"/>
      <point x="446" y="903"/>
      <point x="366" y="920"/>
      <point x="285" y="920" type="curve" smooth="yes"/>
      <point x="96" y="920"/>
      <point x="-39" y="826"/>
      <point x="-39" y="654" type="curve" smooth="yes"/>
      <point x="-39" y="506"/>
      <point x="61" y="402"/>
      <point x="257" y="334" type="curve" smooth="yes"/>
      <point x="355" y="300" type="line" smooth="yes"/>
      <point x="401" y="284"/>
      <point x="418" y="274"/>
      <point x="418" y="260" type="curve" smooth="yes"/>
      <point x="418" y="240"/>
      <point x="387" y="228"/>
      <point x="340" y="228" type="curve" smooth="yes"/>
      <point x="256" y="228"/>
      <point x="162" y="267"/>
      <point x="85" y="328" type="curve"/>
      <point x="85" y="45" type="line"/>
      <point x="154" y="4"/>
      <point x="253" y="-20"/>
    </contour>
  </outline>
</glyph>
<glyph name="T" format="2">
  <advance width="730"/>
  <unicode hex="0054"/>
  <anchor x="439" y="0" name="bottom"/>
  <anchor x="329" y="443" name="center"/>
  <anchor x="215" y="900" name="top"/>
  <outline>
    <contour>
      <point x="289" y="0" type="line"/>
      <point x="589" y="0" type="line"/>
      <point x="428" y="648" type="line"/>
      <point x="607" y="648" type="line"/>
      <point x="544" y="900" type="line"/>
      <point x="-114" y="900" type="line"/>
      <point x="-51" y="648" type="line"/>
      <point x="128" y="648" type="line"/>
    </contour>
  </outline>
</glyph>
<glyph name="U" format="2">
  <advance width="860"/>
  <unicode hex="0055"/>
  <anchor x="504" y="0" name="bottom"/>
  <anchor x="559" y="0" name="ogonek"/>
  <anchor x="282" y="900" name="top"/>
  <anchor x="330" y="720" name="top-vertical"/>
  <anchor x="657" y="900" name="topright"/>
  <outline>
    <contour>
      <point x="437" y="-15" type="curve" smooth="yes"/>
      <point x="709" y="-15"/>
      <point x="848" y="140"/>
      <point x="788" y="378" type="curve" smooth="yes"/>
      <point x="657" y="900" type="line"/>
      <point x="369" y="900" type="line"/>
      <point x="501" y="374" type="line" smooth="yes"/>
      <point x="519" y="302"/>
      <point x="491" y="256"/>
      <point x="431" y="256" type="curve" smooth="yes"/>
      <point x="383" y="256"/>
      <point x="348" y="291"/>
      <point x="332" y="353" type="curve" smooth="yes"/>
      <point x="195" y="900" type="line"/>
      <point x="-99" y="900" type="line"/>
      <point x="55" y="287" type="line" smooth="yes"/>
      <point x="104" y="93"/>
      <point x="240" y="-15"/>
    </contour>
  </outline>
</glyph>
<glyph name="V" format="2">
  <advance width="880"/>
  <unicode hex="0056"/>
  <outline>
    <contour>
      <point x="438" y="1" type="line"/>
      <point x="590" y="1" type="line"/>
      <point x="746" y="900" type="line"/>
      <point x="452" y="900" type="line"/>
      <point x="417" y="676" type="line" smooth="yes"/>
      <point x="408" y="626"/>
      <point x="404" y="589"/>
      <point x="406" y="533" type="curve"/>
      <point x="380" y="589"/>
      <point x="358" y="625"/>
      <point x="325" y="676" type="curve" smooth="yes"/>
      <point x="178" y="900" type="line"/>
      <point x="-166" y="900" type="line"/>
    </contour>
  </outline>
</glyph>
<glyph name="W" format="2">
  <advance width="1280"/>
  <unicode hex="0057"/>
  <anchor x="702" y="0" name="bottom"/>
  <anchor x="515" y="900" name="top"/>
  <outline>
    <contour>
      <point x="415" y="0" type="line"/>
      <point x="595" y="0" type="line"/>
      <point x="615" y="191" type="line" smooth="yes"/>
      <point x="620" y="240"/>
      <point x="625" y="288"/>
      <point x="629" y="342" type="curve"/>
      <point x="659" y="288"/>
      <point x="690" y="240"/>
      <point x="719" y="191" type="curve" smooth="yes"/>
      <point x="833" y="0" type="line"/>
      <point x="1013" y="0" type="line"/>
      <point x="1146" y="900" type="line"/>
      <point x="850" y="900" type="line"/>
      <point x="819" y="659" type="line" smooth="yes"/>
      <point x="813" y="611"/>
      <point x="809" y="574"/>
      <point x="809" y="523" type="curve"/>
      <point x="784" y="574"/>
      <point x="764" y="609"/>
      <point x="735" y="659" type="curve" smooth="yes"/>
      <point x="593" y="900" type="line"/>
      <point x="437" y="900" type="line"/>
      <point x="416" y="659" type="line" smooth="yes"/>
      <point x="412" y="610"/>
      <point x="409" y="573"/>
      <point x="408" y="523" type="curve"/>
      <point x="383" y="574"/>
      <point x="362" y="609"/>
      <point x="331" y="659" type="curve" smooth="yes"/>
      <point x="180" y="900" type="line"/>
      <point x="-166" y="900" type="line"/>
    </contour>
  </outline>
</glyph>
<glyph name="X" format="2">
  <advance width="890"/>
  <unicode hex="0058"/>
  <outline>
    <contour>
      <point x="59" y="0" type="line"/>
      <point x="362" y="0" type="line"/>
      <point x="417" y="206" type="line" smooth="yes"/>
      <point x="424" y="231"/>
      <point x="428" y="254"/>
      <point x="433" y="280" type="curve"/>
      <point x="452" y="254"/>
      <point x="470" y="231"/>
      <point x="489" y="206" type="curve" smooth="yes"/>
      <point x="644" y="0" type="line"/>
      <point x="981" y="0" type="line"/>
      <point x="578" y="526" type="line"/>
      <point x="711" y="900" type="line"/>
      <point x="416" y="900" type="line"/>
      <point x="376" y="768" type="line" smooth="yes"/>
      <point x="369" y="744"/>
      <point x="363" y="729"/>
      <point x="355" y="703" type="curve"/>
      <point x="339" y="727"/>
      <point x="331" y="741"/>
      <point x="310" y="769" type="curve" smooth="yes"/>
      <point x="210" y="900" type="line"/>
      <point x="-119" y="900" type="line"/>
      <point x="209" y="494" type="line"/>
    </contour>
  </outline>
</glyph>
<glyph name="Y" format="2">
  <advance width="770"/>
  <unicode hex="0059"/>
  <anchor x="458" y="0" name="bottom"/>
  <anchor x="262" y="900" name="top"/>
  <anchor x="-168" y="900" name="topleft"/>
  <outline>
    <contour>
      <point x="312" y="0" type="line"/>
      <point x="606" y="0" type="line"/>
      <point x="509" y="390" type="line"/>
      <point x="638" y="900" type="line"/>
      <point x="356" y="900" type="line"/>
      <point x="335" y="791" type="line" smooth="yes"/>
      <point x="329" y="760"/>
      <point x="322" y="723"/>
      <point x="316" y="681" type="curve"/>
      <point x="291" y="720"/>
      <point x="268" y="754"/>
      <point x="248" y="783" type="curve" smooth="yes"/>
      <point x="169" y="900" type="line"/>
      <point x="-168" y="900" type="line"/>
      <point x="222" y="361" type="line"/>
    </contour>
  </outline>
</glyph>
<glyph name="Z" format="2">
  <advance width="730"/>
  <unicode hex="005A"/>
  <anchor x="438" y="0" name="bottom"/>
  <anchor x="335" y="450" name="center"/>
  <anchor x="244" y="900" name="top"/>
  <outline>
    <contour>
      <point x="81" y="0" type="line"/>
      <point x="775" y="0" type="line"/>
      <point x="712" y="252" type="line"/>
      <point x="426" y="252" type="line"/>
      <point x="575" y="898" type="line"/>
      <point x="575" y="900" type="line"/>
      <point x="-113" y="900" type="line"/>
      <point x="-50" y="648" type="line"/>
      <point x="230" y="648" type="line"/>
      <point x="81" y="2" type="line"/>
    </contour>
  </outline>
</glyph>
<glyph name="bracketleft" format="2">
  <advance width="480"/>
  <unicode hex="005B"/>
  <outline>
    <contour>
      <point x="180" y="-180" type="line"/>
      <point x="552" y="-180" type="line"/>
      <point x="508" y="-4" type="line"/>
      <point x="376" y="-4" type="line"/>
      <point x="180" y="783" type="line"/>
      <point x="312" y="783" type="line"/>
      <point x="268" y="960" type="line"/>
      <point x="-104" y="960" type="line"/>
    </contour>
  </outline>
</glyph>
<glyph name="backslash" format="2">
  <advance width="560"/>
  <unicode hex="005C"/>
  <outline>
    <contour>
      <point x="545" y="-180" type="line"/>
      <point x="771" y="-180" type="line"/>
      <point x="-30" y="960" type="line"/>
      <point x="-256" y="960" type="line"/>
    </contour>
  </outline>
</glyph>
<glyph name="bracketright" format="2">
  <advance width="480"/>
  <unicode hex="005D"/>
  <outline>
    <contour>
      <point x="168" y="-180" type="line"/>
      <point x="540" y="-180" type="line"/>
      <point x="256" y="960" type="line"/>
      <point x="-116" y="960" type="line"/>
      <point x="-72" y="783" type="line"/>
      <point x="60" y="783" type="line"/>
      <point x="256" y="-4" type="line"/>
      <point x="124" y="-4" type="line"/>
    </contour>
  </outline>
</glyph>
<glyph name="asciicircum" format="2">
  <advance width="750"/>
  <unicode hex="005E"/>
  <outline>
    <contour>
      <point x="57" y="150" type="line"/>
      <point x="269" y="150" type="line"/>
      <point x="302" y="350" type="line" smooth="yes"/>
      <point x="308" y="383"/>
      <point x="313" y="422"/>
      <point x="319" y="457" type="curve"/>
      <point x="341" y="423"/>
      <point x="366" y="384"/>
      <point x="388" y="350" type="curve" smooth="yes"/>
      <point x="521" y="150" type="line"/>
      <point x="767" y="150" type="line"/>
      <point x="339" y="768" type="line"/>
      <point x="177" y="768" type="line"/>
    </contour>
  </outline>
</glyph>
<glyph name="underscore" format="2">
  <advance width="750"/>
  <unicode hex="005F"/>
  <outline>
    <contour>
      <point x="125" y="-225" type="line"/>
      <point x="887" y="-225" type="line"/>
      <point x="843" y="-45" type="line"/>
      <point x="81" y="-45" type="line"/>
    </contour>
  </outline>
</glyph>
<glyph name="a" format="2">
  <advance width="760"/>
  <unicode hex="0061"/>
  <anchor x="490" y="0" name="bottom"/>
  <anchor x="682" y="0" name="ogonek"/>
  <anchor x="307" y="630" name="top"/>
  <outline>
    <contour>
      <point x="385" y="-14" type="curve" smooth="yes"/>
      <point x="455" y="-14"/>
      <point x="518" y="8"/>
      <point x="554" y="44" type="curve"/>
      <point x="565" y="0" type="line"/>
      <point x="787" y="0" type="line"/>
      <point x="629" y="630" type="line"/>
      <point x="419" y="630" type="line"/>
      <point x="430" y="586" type="line"/>
      <point x="378" y="628"/>
      <point x="335" y="644"/>
      <point x="280" y="644" type="curve" smooth="yes"/>
      <point x="129" y="644"/>
      <point x="17" y="524"/>
      <point x="17" y="362" type="curve" smooth="yes"/>
      <point x="17" y="161"/>
      <point x="188" y="-14"/>
    </contour>
    <contour>
      <point x="377" y="220" type="curve" smooth="yes"/>
      <point x="320" y="220"/>
      <point x="272" y="270"/>
      <point x="272" y="328" type="curve" smooth="yes"/>
      <point x="272" y="376"/>
      <point x="306" y="410"/>
      <point x="354" y="410" type="curve" smooth="yes"/>
      <point x="411" y="410"/>
      <point x="458" y="361"/>
      <point x="458" y="302" type="curve" smooth="yes"/>
      <point x="458" y="254"/>
      <point x="424" y="220"/>
    </contour>
  </outline>
</glyph>
<glyph name="b" format="2">
  <advance width="760"/>
  <unicode hex="0062"/>
  <anchor x="461" y="0" name="bottom"/>
  <anchor x="233" y="914" name="top"/>
  <outline>
    <contour>
      <point x="472" y="-14" type="curve" smooth="yes"/>
      <point x="623" y="-14"/>
      <point x="735" y="106"/>
      <point x="735" y="268" type="curve" smooth="yes"/>
      <point x="735" y="469"/>
      <point x="564" y="644"/>
      <point x="361" y="644" type="curve" smooth="yes"/>
      <point x="311" y="644"/>
      <point x="264" y="633"/>
      <point x="228" y="615" type="curve"/>
      <point x="141" y="960" type="line"/>
      <point x="-117" y="960" type="line"/>
      <point x="123" y="0" type="line"/>
      <point x="333" y="0" type="line"/>
      <point x="322" y="44" type="line"/>
      <point x="374" y="2"/>
      <point x="417" y="-14"/>
    </contour>
    <contour>
      <point x="400" y="220" type="curve" smooth="yes"/>
      <point x="343" y="220"/>
      <point x="295" y="270"/>
      <point x="295" y="328" type="curve" smooth="yes"/>
      <point x="295" y="376"/>
      <point x="329" y="410"/>
      <point x="377" y="410" type="curve" smooth="yes"/>
      <point x="434" y="410"/>
      <point x="481" y="361"/>
      <point x="481" y="302" type="curve" smooth="yes"/>
      <point x="481" y="254"/>
      <point x="447" y="220"/>
    </contour>
  </outline>
</glyph>
<glyph name="c" format="2">
  <advance width="600"/>
  <unicode hex="0063"/>
  <anchor x="408" y="0" name="bottom"/>
  <anchor x="343" y="630" name="top"/>
  <outline>
    <contour>
      <point x="408" y="-20" type="curve" smooth="yes"/>
      <point x="488" y="-20"/>
      <point x="568" y="6"/>
      <point x="624" y="49" type="curve"/>
      <point x="512" y="274" type="line"/>
      <point x="486" y="240"/>
      <point x="447" y="221"/>
      <point x="405" y="221" type="curve" smooth="yes"/>
      <point x="343" y="221"/>
      <point x="296" y="265"/>
      <point x="296" y="322" type="curve" smooth="yes"/>
      <point x="296" y="376"/>
      <point x="338" y="410"/>
      <point x="400" y="410" type="curve" smooth="yes"/>
      <point x="443" y="410"/>
      <point x="483" y="397"/>
      <point x="528" y="363" type="curve"/>
      <point x="528" y="595" type="line"/>
      <point x="474" y="634"/>
      <point x="409" y="650"/>
      <point x="343" y="650" type="curve" smooth="yes"/>
      <point x="159" y="650"/>
      <point x="25" y="526"/>
      <point x="25" y="352" type="curve" smooth="yes"/>
      <point x="25" y="153"/>
      <point x="202" y="-20"/>
    </contour>
  </outline>
</glyph>
<glyph name="e" format="2">
  <advance width="720"/>
  <unicode hex="0065"/>
  <anchor x="486" y="0" name="bottom"/>
  <anchor x="591" y="0" name="ogonek"/>
  <anchor x="329" y="630" name="top"/>
  <outline>
    <contour>
      <point x="422" y="-20" type="curve" smooth="yes"/>
      <point x="523" y="-20"/>
      <point x="627" y="9"/>
      <point x="686" y="54" type="curve"/>
      <point x="596" y="235" type="line"/>
      <point x="556" y="201"/>
      <point x="503" y="184"/>
      <point x="440" y="184" type="curve" smooth="yes"/>
      <point x="366" y="184"/>
      <point x="313" y="208"/>
      <point x="287" y="253" type="curve"/>
      <point x="317" y="249"/>
      <point x="347" y="247"/>
      <point x="371" y="247" type="curve" smooth="yes"/>
      <point x="705" y="247" type="line"/>
      <point x="690" y="334" type="line" smooth="yes"/>
      <point x="657" y="522"/>
      <point x="512" y="649"/>
      <point x="329" y="649" type="curve" smooth="yes"/>
      <point x="150" y="649"/>
      <point x="26" y="527"/>
      <point x="26" y="352" type="curve" smooth="yes"/>
      <point x="26" y="141"/>
      <point x="198" y="-20"/>
    </contour>
    <contour>
      <point x="254" y="385" type="curve"/>
      <point x="260" y="431"/>
      <point x="291" y="459"/>
      <point x="338" y="459" type="curve" smooth="yes"/>
      <point x="383" y="459"/>
      <point x="419" y="434"/>
      <point x="445" y="385" type="curve"/>
      <point x="418" y="388"/>
      <point x="381" y="391"/>
      <point x="357" y="391" type="curve" smooth="yes"/>
      <point x="329" y="391" type="line" smooth="yes"/>
      <point x="312" y="391"/>
      <point x="292" y="389"/>
    </contour>
  </outline>
</glyph>
<glyph name="g" format="2">
  <advance width="760"/>
  <unicode hex="0067"/>
  <anchor x="487" y="-270" name="bottom"/>
  <anchor x="584" y="315" name="center"/>
  <anchor x="301" y="630" name="top"/>
  <outline>
    <contour>
      <point x="424" y="-290" type="curve" smooth="yes"/>
      <point x="677" y="-290"/>
      <point x="819" y="-128"/>
      <point x="763" y="96" type="curve" smooth="yes"/>
      <point x="629" y="630" type="line"/>
      <point x="419" y="630" type="line"/>
      <point x="430" y="586" type="line"/>
      <point x="379" y="627"/>
      <point x="336" y="644"/>
      <point x="280" y="644" type="curve" smooth="yes"/>
      <point x="129" y="644"/>
      <point x="17" y="524"/>
      <point x="17" y="362" type="curve" smooth="yes"/>
      <point x="17" y="162"/>
      <point x="187" y="-8"/>
      <point x="385" y="-8" type="curve" smooth="yes"/>
      <point x="454" y="-8"/>
      <point x="518" y="14"/>
      <point x="554" y="50" type="curve"/>
      <point x="556" y="38" type="line" smooth="yes"/>
      <point x="566" y="-23"/>
      <point x="492" y="-68"/>
      <point x="381" y="-68" type="curve" smooth="yes"/>
      <point x="317" y="-68"/>
      <point x="254" y="-48"/>
      <point x="196" y="-11" type="curve"/>
      <point x="196" y="-239" type="line"/>
      <point x="257" y="-272"/>
      <point x="339" y="-290"/>
    </contour>
    <contour>
      <point x="377" y="220" type="curve" smooth="yes"/>
      <point x="320" y="220"/>
      <point x="272" y="270"/>
      <point x="272" y="328" type="curve" smooth="yes"/>
      <point x="272" y="376"/>
      <point x="306" y="410"/>
      <point x="354" y="410" type="curve" smooth="yes"/>
      <point x="411" y="410"/>
      <point x="458" y="361"/>
      <point x="458" y="302" type="curve" smooth="yes"/>
      <point x="458" y="254"/>
      <point x="424" y="220"/>
    </contour>
  </outline>
</glyph>
<glyph name="k" format="2">
  <advance width="740"/>
  <unicode hex="006B"/>
  <anchor x="462" y="0" name="bottom"/>
  <anchor x="16" y="960" name="top"/>
  <outline>
    <contour>
      <point x="519" y="0" type="line"/>
      <point x="831" y="0" type="line"/>
      <point x="551" y="356" type="line"/>
      <point x="700" y="630" type="line"/>
      <point x="438" y="630" type="line"/>
      <point x="272" y="327" type="line"/>
    </contour>
    <contour>
      <point x="123" y="0" type="line"/>
      <point x="387" y="0" type="line"/>
      <point x="147" y="960" type="line"/>
      <point x="-117" y="960" type="line"/>
    </contour>
  </outline>
</glyph>
<glyph name="l" format="2">
  <advance width="360"/>
  <unicode hex="006C"/>
  <anchor x="255" y="0" name="bottom"/>
  <anchor x="135" y="480" name="center"/>
  <anchor x="411" y="420" name="periodcentered"/>
  <anchor x="15" y="960" name="top"/>
  <anchor x="147" y="960" name="topright"/>
  <outline>
    <contour>
      <point x="123" y="0" type="line"/>
      <point x="387" y="0" type="line"/>
      <point x="147" y="960" type="line"/>
      <point x="-117" y="960" type="line"/>
    </contour>
  </outline>
</glyph>
<glyph name="m" format="2">
  <advance width="1100"/>
  <unicode hex="006D"/>
  <anchor x="628" y="0" name="bottom"/>
  <anchor x="551" y="600" name="top"/>
  <outline>
    <contour>
      <point x="123" y="0" type="line"/>
      <point x="387" y="0" type="line"/>
      <point x="302" y="343" type="line" smooth="yes"/>
      <point x="291" y="388"/>
      <point x="308" y="416"/>
      <point x="345" y="416" type="curve" smooth="yes"/>
      <point x="376" y="416"/>
      <point x="398" y="396"/>
      <point x="407" y="358" type="curve" smooth="yes"/>
      <point x="496" y="0" type="line"/>
      <point x="760" y="0" type="line"/>
      <point x="676" y="343" type="line" smooth="yes"/>
      <point x="665" y="388"/>
      <point x="681" y="416"/>
      <point x="718" y="416" type="curve" smooth="yes"/>
      <point x="749" y="416"/>
      <point x="771" y="396"/>
      <point x="780" y="358" type="curve" smooth="yes"/>
      <point x="869" y="0" type="line"/>
      <point x="1133" y="0" type="line"/>
      <point x="1030" y="416" type="line" smooth="yes"/>
      <point x="995" y="558"/>
      <point x="884" y="650"/>
      <point x="747" y="650" type="curve" smooth="yes"/>
      <point x="676" y="650"/>
      <point x="612" y="628"/>
      <point x="566" y="585" type="curve"/>
      <point x="517" y="627"/>
      <point x="455" y="650"/>
      <point x="387" y="650" type="curve" smooth="yes"/>
      <point x="313" y="650"/>
      <point x="247" y="628"/>
      <point x="201" y="581" type="curve"/>
      <point x="188" y="630" type="line"/>
      <point x="-34" y="630" type="line"/>
    </contour>
  </outline>
</glyph>
<glyph name="n" format="2">
  <advance width="740"/>
  <unicode hex="006E"/>
  <anchor x="448" y="0" name="bottom"/>
  <anchor x="291" y="630" name="top"/>
  <outline>
    <contour>
      <point x="123" y="0" type="line"/>
      <point x="387" y="0" type="line"/>
      <point x="302" y="343" type="line" smooth="yes"/>
      <point x="292" y="385"/>
      <point x="313" y="416"/>
      <point x="352" y="416" type="curve" smooth="yes"/>
      <point x="385" y="416"/>
      <point x="411" y="394"/>
      <point x="420" y="358" type="curve" smooth="yes"/>
      <point x="509" y="0" type="line"/>
      <point x="773" y="0" type="line"/>
      <point x="670" y="416" type="line" smooth="yes"/>
      <point x="635" y="558"/>
      <point x="524" y="650"/>
      <point x="387" y="650" type="curve" smooth="yes"/>
      <point x="313" y="650"/>
      <point x="246" y="623"/>
      <point x="202" y="574" type="curve"/>
      <point x="188" y="630" type="line"/>
      <point x="-34" y="630" type="line"/>
    </contour>
  </outline>
</glyph>
<glyph name="o" format="2">
  <advance width="740"/>
  <unicode hex="006F"/>
  <anchor x="445" y="0" name="bottom"/>
  <anchor x="366" y="315" name="center"/>
  <anchor x="460" y="0" name="ogonek"/>
  <anchor x="287" y="630" name="top"/>
  <anchor x="427" y="630" name="topright"/>
  <outline>
    <contour>
      <point x="400" y="-20" type="curve" smooth="yes"/>
      <point x="578" y="-20"/>
      <point x="709" y="106"/>
      <point x="709" y="274" type="curve" smooth="yes"/>
      <point x="709" y="475"/>
      <point x="533" y="650"/>
      <point x="330" y="650" type="curve" smooth="yes"/>
      <point x="152" y="650"/>
      <point x="21" y="524"/>
      <point x="21" y="356" type="curve" smooth="yes"/>
      <point x="21" y="155"/>
      <point x="197" y="-20"/>
    </contour>
    <contour>
      <point x="377" y="220" type="curve" smooth="yes"/>
      <point x="320" y="220"/>
      <point x="271" y="270"/>
      <point x="271" y="328" type="curve" smooth="yes"/>
      <point x="271" y="376"/>
      <point x="305" y="410"/>
      <point x="353" y="410" type="curve" smooth="yes"/>
      <point x="410" y="410"/>
      <point x="459" y="360"/>
      <point x="459" y="302" type="curve" smooth="yes"/>
      <point x="459" y="254"/>
      <point x="425" y="220"/>
    </contour>
  </outline>
</glyph>
<glyph name="p" format="2">
  <advance width="760"/>
  <unicode hex="0070"/>
  <anchor x="465" y="0" name="bottom"/>
  <anchor x="307" y="630" name="top"/>
  <outline>
    <contour>
      <point x="190" y="-270" type="line"/>
      <point x="448" y="-270" type="line"/>
      <point x="380" y="6" type="line"/>
      <point x="409" y="-8"/>
      <point x="438" y="-14"/>
      <point x="472" y="-14" type="curve" smooth="yes"/>
      <point x="623" y="-14"/>
      <point x="735" y="106"/>
      <point x="735" y="268" type="curve" smooth="yes"/>
      <point x="735" y="469"/>
      <point x="564" y="644"/>
      <point x="367" y="644" type="curve" smooth="yes"/>
      <point x="297" y="644"/>
      <point x="234" y="622"/>
      <point x="198" y="586" type="curve"/>
      <point x="187" y="630" type="line"/>
      <point x="-35" y="630" type="line"/>
    </contour>
    <contour>
      <point x="399" y="220" type="curve" smooth="yes"/>
      <point x="342" y="220"/>
      <point x="294" y="270"/>
      <point x="294" y="328" type="curve" smooth="yes"/>
      <point x="294" y="376"/>
      <point x="328" y="410"/>
      <point x="376" y="410" type="curve" smooth="yes"/>
      <point x="433" y="410"/>
      <point x="480" y="361"/>
      <point x="480" y="302" type="curve" smooth="yes"/>
      <point x="480" y="254"/>
      <point x="446" y="220"/>
    </contour>
  </outline>
</glyph>
<glyph name="q" format="2">
  <advance width="760"/>
  <unicode hex="0071"/>
  <outline>
    <contour>
      <point x="596" y="-270" type="line"/>
      <point x="854" y="-270" type="line"/>
      <point x="629" y="630" type="line"/>
      <point x="419" y="630" type="line"/>
      <point x="430" y="586" type="line"/>
      <point x="378" y="628"/>
      <point x="335" y="644"/>
      <point x="280" y="644" type="curve" smooth="yes"/>
      <point x="129" y="644"/>
      <point x="17" y="524"/>
      <point x="17" y="362" type="curve" smooth="yes"/>
      <point x="17" y="161"/>
      <point x="188" y="-14"/>
      <point x="385" y="-14" type="curve" smooth="yes"/>
      <point x="438" y="-14"/>
      <point x="487" y="-1"/>
      <point x="523" y="20" type="curve"/>
    </contour>
    <contour>
      <point x="377" y="220" type="curve" smooth="yes"/>
      <point x="320" y="220"/>
      <point x="272" y="270"/>
      <point x="272" y="328" type="curve" smooth="yes"/>
      <point x="272" y="376"/>
      <point x="306" y="410"/>
      <point x="354" y="410" type="curve" smooth="yes"/>
      <point x="411" y="410"/>
      <point x="458" y="361"/>
      <point x="458" y="302" type="curve" smooth="yes"/>
      <point x="458" y="254"/>
      <point x="424" y="220"/>
    </contour>
  </outline>
</glyph>
<glyph name="r" format="2">
  <advance width="480"/>
  <unicode hex="0072"/>
  <anchor x="253" y="0" name="bottom"/>
  <anchor x="202" y="630" name="top"/>
  <outline>
    <contour>
      <point x="124" y="0" type="line"/>
      <point x="388" y="0" type="line"/>
      <point x="323" y="262" type="line" smooth="yes"/>
      <point x="301" y="349"/>
      <point x="334" y="412"/>
      <point x="405" y="420" type="curve" smooth="yes"/>
      <point x="419" y="422"/>
      <point x="433" y="421"/>
      <point x="448" y="420" type="curve"/>
      <point x="337" y="644" type="line"/>
      <point x="279" y="636"/>
      <point x="235" y="606"/>
      <point x="208" y="555" type="curve"/>
      <point x="189" y="630" type="line"/>
      <point x="-33" y="630" type="line"/>
    </contour>
  </outline>
</glyph>
<glyph name="s" format="2">
  <advance width="560"/>
  <unicode hex="0073"/>
  <anchor x="344" y="0" name="bottom"/>
  <anchor x="233" y="630" name="top"/>
  <outline>
    <contour>
      <point x="277" y="-21" type="curve" smooth="yes"/>
      <point x="454" y="-21"/>
      <point x="562" y="56"/>
      <point x="562" y="182" type="curve" smooth="yes"/>
      <point x="562" y="293"/>
      <point x="485" y="370"/>
      <point x="342" y="405" type="curve" smooth="yes"/>
      <point x="260" y="425" type="line" smooth="yes"/>
      <point x="246" y="428"/>
      <point x="237" y="436"/>
      <point x="237" y="444" type="curve" smooth="yes"/>
      <point x="237" y="454"/>
      <point x="250" y="460"/>
      <point x="272" y="460" type="curve" smooth="yes"/>
      <point x="322" y="460"/>
      <point x="408" y="434"/>
      <point x="451" y="406" type="curve"/>
      <point x="451" y="610" type="line"/>
      <point x="399" y="636"/>
      <point x="331" y="650"/>
      <point x="263" y="650" type="curve" smooth="yes"/>
      <point x="96" y="650"/>
      <point x="-5" y="575"/>
      <point x="-5" y="450" type="curve" smooth="yes"/>
      <point x="-5" y="340"/>
      <point x="73" y="261"/>
      <point x="213" y="226" type="curve" smooth="yes"/>
      <point x="298" y="205" type="line" smooth="yes"/>
      <point x="314" y="201"/>
      <point x="322" y="195"/>
      <point x="322" y="187" type="curve" smooth="yes"/>
      <point x="322" y="176"/>
      <point x="304" y="170"/>
      <point x="273" y="170" type="curve" smooth="yes"/>
      <point x="214" y="170"/>
      <point x="141" y="190"/>
      <point x="83" y="223" type="curve"/>
      <point x="83" y="19" type="line"/>
      <point x="141" y="-8"/>
      <point x="205" y="-21"/>
    </contour>
  </outline>
</glyph>
<glyph name="t" format="2">
  <advance width="450"/>
  <unicode hex="0074"/>
  <anchor x="298" y="0" name="bottom"/>
  <anchor x="226" y="300" name="center"/>
  <anchor x="92" y="822" name="top"/>
  <anchor x="186" y="960" name="topright"/>
  <outline>
    <contour>
      <point x="169" y="0" type="line"/>
      <point x="427" y="0" type="line"/>
      <point x="320" y="426" type="line"/>
      <point x="401" y="426" type="line"/>
      <point x="350" y="630" type="line"/>
      <point x="266" y="630" type="line"/>
      <point x="218" y="822" type="line"/>
      <point x="-34" y="822" type="line"/>
      <point x="14" y="630" type="line"/>
      <point x="-64" y="630" type="line"/>
      <point x="-13" y="426" type="line"/>
      <point x="62" y="426" type="line"/>
    </contour>
  </outline>
</glyph>
<glyph name="u" format="2">
  <advance width="740"/>
  <unicode hex="0075"/>
  <anchor x="442" y="0" name="bottom"/>
  <anchor x="656" y="0" name="ogonek"/>
  <anchor x="285" y="630" name="top"/>
  <anchor x="610" y="630" name="topright"/>
  <outline>
    <contour>
      <point x="346" y="-20" type="curve" smooth="yes"/>
      <point x="420" y="-20"/>
      <point x="487" y="7"/>
      <point x="531" y="56" type="curve"/>
      <point x="545" y="0" type="line"/>
      <point x="767" y="0" type="line"/>
      <point x="610" y="630" type="line"/>
      <point x="346" y="630" type="line"/>
      <point x="431" y="287" type="line" smooth="yes"/>
      <point x="441" y="245"/>
      <point x="420" y="214"/>
      <point x="381" y="214" type="curve" smooth="yes"/>
      <point x="348" y="214"/>
      <point x="322" y="236"/>
      <point x="313" y="272" type="curve" smooth="yes"/>
      <point x="224" y="630" type="line"/>
      <point x="-40" y="630" type="line"/>
      <point x="63" y="214" type="line" smooth="yes"/>
      <point x="98" y="72"/>
      <point x="209" y="-20"/>
    </contour>
  </outline>
</glyph>
<glyph name="v" format="2">
  <advance width="730"/>
  <unicode hex="0076"/>
  <outline>
    <contour>
      <point x="367" y="0" type="line"/>
      <point x="515" y="0" type="line"/>
      <point x="660" y="630" type="line"/>
      <point x="389" y="630" type="line"/>
      <point x="372" y="528" type="line" smooth="yes"/>
      <point x="367" y="500"/>
      <point x="361" y="467"/>
      <point x="359" y="417" type="curve"/>
      <point x="330" y="467"/>
      <point x="309" y="500"/>
      <point x="290" y="528" type="curve" smooth="yes"/>
      <point x="221" y="630" type="line"/>
      <point x="-94" y="630" type="line"/>
    </contour>
  </outline>
</glyph>
<glyph name="w" format="2">
  <advance width="1060"/>
  <unicode hex="0077"/>
  <anchor x="600" y="0" name="bottom"/>
  <anchor x="454" y="630" name="top"/>
  <outline>
    <contour>
      <point x="342" y="0" type="line"/>
      <point x="496" y="0" type="line"/>
      <point x="522" y="120" type="line" smooth="yes"/>
      <point x="532" y="167"/>
      <point x="536" y="205"/>
      <point x="542" y="269" type="curve"/>
      <point x="578" y="205"/>
      <point x="602" y="167"/>
      <point x="634" y="121" type="curve" smooth="yes"/>
      <point x="718" y="0" type="line"/>
      <point x="870" y="0" type="line"/>
      <point x="990" y="630" type="line"/>
      <point x="718" y="630" type="line"/>
      <point x="704" y="528" type="line" smooth="yes"/>
      <point x="699" y="494"/>
      <point x="695" y="452"/>
      <point x="696" y="380" type="curve"/>
      <point x="660" y="452"/>
      <point x="633" y="494"/>
      <point x="614" y="528" type="curve" smooth="yes"/>
      <point x="556" y="630" type="line"/>
      <point x="384" y="630" type="line"/>
      <point x="378" y="528" type="line" smooth="yes"/>
      <point x="376" y="494"/>
      <point x="369" y="452"/>
      <point x="370" y="380" type="curve"/>
      <point x="334" y="452"/>
      <point x="310" y="494"/>
      <point x="288" y="528" type="curve" smooth="yes"/>
      <point x="222" y="630" type="line"/>
      <point x="-94" y="630" type="line"/>
    </contour>
  </outline>
</glyph>
<glyph name="x" format="2">
  <advance width="730"/>
  <unicode hex="0078"/>
  <outline>
    <contour>
      <point x="69" y="0" type="line"/>
      <point x="342" y="0" type="line"/>
      <point x="360" y="65" type="line" smooth="yes"/>
      <point x="367" y="89"/>
      <point x="375" y="112"/>
      <point x="383" y="155" type="curve"/>
      <point x="405" y="113"/>
      <point x="425" y="89"/>
      <point x="442" y="66" type="curve" smooth="yes"/>
      <point x="492" y="0" type="line"/>
      <point x="811" y="0" type="line"/>
      <point x="523" y="350" type="line"/>
      <point x="626" y="630" type="line"/>
      <point x="378" y="630" type="line"/>
      <point x="359" y="574" type="line" smooth="yes"/>
      <point x="351" y="551"/>
      <point x="344" y="528"/>
      <point x="335" y="483" type="curve"/>
      <point x="311" y="527"/>
      <point x="293" y="549"/>
      <point x="276" y="573" type="curve" smooth="yes"/>
      <point x="234" y="630" type="line"/>
      <point x="-62" y="630" type="line"/>
      <point x="189" y="320" type="line"/>
    </contour>
  </outline>
</glyph>
<glyph name="y" format="2">
  <advance width="730"/>
  <unicode hex="0079"/>
  <anchor x="635" y="30" name="bottom"/>
  <anchor x="288" y="630" name="top"/>
  <outline>
    <contour>
      <point x="169" y="-270" type="line"/>
      <point x="447" y="-270" type="line"/>
      <point x="659" y="630" type="line"/>
      <point x="389" y="630" type="line"/>
      <point x="371" y="528" type="line" smooth="yes"/>
      <point x="366" y="500"/>
      <point x="362" y="467"/>
      <point x="359" y="417" type="curve"/>
      <point x="331" y="467"/>
      <point x="309" y="500"/>
      <point x="290" y="528" type="curve" smooth="yes"/>
      <point x="222" y="630" type="line"/>
      <point x="-95" y="630" type="line"/>
      <point x="271" y="138" type="line"/>
    </contour>
  </outline>
</glyph>
<glyph name="z" format="2">
  <advance width="580"/>
  <unicode hex="007A"/>
  <anchor x="348" y="0" name="bottom"/>
  <anchor x="284" y="304" name="center"/>
  <anchor x="214" y="630" name="top"/>
  <outline>
    <contour>
      <point x="69" y="0" type="line"/>
      <point x="625" y="0" type="line"/>
      <point x="574" y="204" type="line"/>
      <point x="370" y="204" type="line"/>
      <point x="504" y="628" type="line"/>
      <point x="503" y="630" type="line"/>
      <point x="-53" y="630" type="line"/>
      <point x="-2" y="426" type="line"/>
      <point x="200" y="426" type="line"/>
      <point x="68" y="2" type="line"/>
    </contour>
  </outline>
</glyph>
<glyph name="braceleft" format="2">
  <advance width="480"/>
  <unicode hex="007B"/>
  <outline>
    <contour>
      <point x="553" y="-186" type="curve"/>
      <point x="509" y="-10" type="line"/>
      <point x="429" y="-5"/>
      <point x="389" y="25"/>
      <point x="376" y="78" type="curve" smooth="yes"/>
      <point x="365" y="122"/>
      <point x="369" y="194"/>
      <point x="354" y="255" type="curve" smooth="yes"/>
      <point x="335" y="328"/>
      <point x="273" y="361"/>
      <point x="231" y="378" type="curve"/>
      <point x="263" y="403"/>
      <point x="302" y="449"/>
      <point x="283" y="523" type="curve" smooth="yes"/>
      <point x="268" y="584"/>
      <point x="233" y="650"/>
      <point x="222" y="694" type="curve" smooth="yes"/>
      <point x="208" y="750"/>
      <point x="250" y="794"/>
      <point x="308" y="794" type="curve"/>
      <point x="265" y="968" type="line"/>
      <point x="55" y="968"/>
      <point x="-52" y="852"/>
      <point x="-13" y="701" type="curve" smooth="yes"/>
      <point x="4" y="631"/>
      <point x="36" y="576"/>
      <point x="50" y="519" type="curve" smooth="yes"/>
      <point x="71" y="433"/>
      <point x="49" y="392"/>
      <point x="0" y="348" type="curve"/>
      <point x="64" y="319"/>
      <point x="103" y="286"/>
      <point x="124" y="200" type="curve" smooth="yes"/>
      <point x="138" y="143"/>
      <point x="131" y="83"/>
      <point x="148" y="13" type="curve" smooth="yes"/>
      <point x="187" y="-141"/>
      <point x="323" y="-197"/>
    </contour>
  </outline>
</glyph>
<glyph name="bar" format="2">
  <advance width="480"/>
  <unicode hex="007C"/>
  <outline>
    <contour>
      <point x="121" y="-180" type="line"/>
      <point x="313" y="-180" type="line"/>
      <point x="313" y="960" type="line"/>
      <point x="121" y="960" type="line"/>
    </contour>
  </outline>
</glyph>
<glyph name="braceright" format="2">
  <advance width="480"/>
  <unicode hex="007D"/>
  <outline>
    <contour>
      <point x="169" y="-187" type="line"/>
      <point x="379" y="-187"/>
      <point x="486" y="-71"/>
      <point x="447" y="80" type="curve" smooth="yes"/>
      <point x="430" y="150"/>
      <point x="398" y="205"/>
      <point x="384" y="262" type="curve" smooth="yes"/>
      <point x="363" y="348"/>
      <point x="385" y="389"/>
      <point x="434" y="433" type="curve"/>
      <point x="370" y="462"/>
      <point x="331" y="495"/>
      <point x="310" y="581" type="curve" smooth="yes"/>
      <point x="296" y="638"/>
      <point x="303" y="698"/>
      <point x="286" y="768" type="curve" smooth="yes"/>
      <point x="247" y="922"/>
      <point x="111" y="978"/>
      <point x="-119" y="967" type="curve"/>
      <point x="-75" y="791" type="line"/>
      <point x="5" y="786"/>
      <point x="45" y="756"/>
      <point x="58" y="703" type="curve" smooth="yes"/>
      <point x="69" y="659"/>
      <point x="65" y="587"/>
      <point x="80" y="526" type="curve" smooth="yes"/>
      <point x="99" y="453"/>
      <point x="161" y="420"/>
      <point x="203" y="403" type="curve"/>
      <point x="171" y="378"/>
      <point x="132" y="332"/>
      <point x="151" y="258" type="curve" smooth="yes"/>
      <point x="166" y="197"/>
      <point x="201" y="131"/>
      <point x="212" y="87" type="curve" smooth="yes"/>
      <point x="226" y="31"/>
      <point x="184" y="-13"/>
      <point x="126" y="-13" type="curve"/>
    </contour>
  </outline>
</glyph>
<glyph name="asciitilde" format="2">
  <advance width="750"/>
  <unicode hex="007E"/>
  <outline>
    <contour>
      <point x="23" y="330" type="line"/>
      <point x="72" y="378"/>
      <point x="110" y="396"/>
      <point x="161" y="396" type="curve" smooth="yes"/>
      <point x="273" y="396"/>
      <point x="348" y="310"/>
      <point x="482" y="310" type="curve" smooth="yes"/>
      <point x="567" y="310"/>
      <point x="629" y="345"/>
      <point x="682" y="411" type="curve"/>
      <point x="642" y="570" type="line"/>
      <point x="593" y="522"/>
      <point x="555" y="504"/>
      <point x="504" y="504" type="curve" smooth="yes"/>
      <point x="392" y="504"/>
      <point x="317" y="590"/>
      <point x="183" y="590" type="curve" smooth="yes"/>
      <point x="98" y="590"/>
      <point x="36" y="555"/>
      <point x="-17" y="489" type="curve"/>
    </contour>
  </outline>
</glyph>
<glyph name="exclamdown" format="2">
  <advance width="480"/>
  <unicode hex="00A1"/>
  <outline>
    <contour>
      <point x="209" y="-270" type="line"/>
      <point x="557" y="-270" type="line"/>
      <point x="355" y="300" type="line"/>
      <point x="127" y="300" type="line"/>
    </contour>
    <contour>
      <point x="205" y="370" type="curve" smooth="yes"/>
      <point x="277" y="370"/>
      <point x="328" y="423"/>
      <point x="328" y="493" type="curve" smooth="yes"/>
      <point x="328" y="576"/>
      <point x="254" y="650"/>
      <point x="171" y="650" type="curve" smooth="yes"/>
      <point x="104" y="650"/>
      <point x="48" y="599"/>
      <point x="48" y="525" type="curve" smooth="yes"/>
      <point x="48" y="444"/>
      <point x="122" y="370"/>
    </contour>
  </outline>
</glyph>
<glyph name="cent" format="2">
  <advance width="750"/>
  <unicode hex="00A2"/>
  <outline>
    <contour>
      <point x="427" y="0" type="line"/>
      <point x="565" y="0" type="line"/>
      <point x="531" y="130" type="line"/>
      <point x="573" y="142"/>
      <point x="610" y="160"/>
      <point x="641" y="184" type="curve"/>
      <point x="529" y="409" type="line"/>
      <point x="503" y="375"/>
      <point x="464" y="356"/>
      <point x="422" y="356" type="curve" smooth="yes"/>
      <point x="360" y="356"/>
      <point x="313" y="400"/>
      <point x="313" y="457" type="curve" smooth="yes"/>
      <point x="313" y="511"/>
      <point x="355" y="545"/>
      <point x="417" y="545" type="curve" smooth="yes"/>
      <point x="460" y="545"/>
      <point x="500" y="532"/>
      <point x="545" y="498" type="curve"/>
      <point x="544" y="730" type="line"/>
      <point x="492" y="767"/>
      <point x="431" y="784"/>
      <point x="368" y="785" type="curve"/>
      <point x="347" y="870" type="line"/>
      <point x="209" y="870" type="line"/>
      <point x="235" y="764" type="line"/>
      <point x="119" y="721"/>
      <point x="42" y="619"/>
      <point x="42" y="487" type="curve" smooth="yes"/>
      <point x="42" y="297"/>
      <point x="203" y="131"/>
      <point x="397" y="116" type="curve"/>
    </contour>
  </outline>
</glyph>
<glyph name="sterling" format="2">
  <advance width="750"/>
  <unicode hex="00A3"/>
  <outline>
    <contour>
      <point x="147" y="0" type="line"/>
      <point x="777" y="0" type="line"/>
      <point x="721" y="222" type="line"/>
      <point x="437" y="222" type="line"/>
      <point x="436" y="240"/>
      <point x="433" y="259"/>
      <point x="429" y="277" type="curve" smooth="yes"/>
      <point x="425" y="293"/>
      <point x="420" y="308"/>
      <point x="414" y="324" type="curve"/>
      <point x="594" y="324" type="line"/>
      <point x="554" y="486" type="line"/>
      <point x="347" y="486" type="line"/>
      <point x="337" y="506"/>
      <point x="330" y="536"/>
      <point x="330" y="556" type="curve" smooth="yes"/>
      <point x="330" y="622"/>
      <point x="373" y="662"/>
      <point x="444" y="662" type="curve" smooth="yes"/>
      <point x="491" y="662"/>
      <point x="538" y="642"/>
      <point x="579" y="604" type="curve"/>
      <point x="579" y="873" type="line"/>
      <point x="523" y="904"/>
      <point x="454" y="920"/>
      <point x="385" y="920" type="curve" smooth="yes"/>
      <point x="179" y="920"/>
      <point x="44" y="796"/>
      <point x="44" y="614" type="curve" smooth="yes"/>
      <point x="44" y="577"/>
      <point x="53" y="530"/>
      <point x="72" y="486" type="curve"/>
      <point x="-16" y="486" type="line"/>
      <point x="24" y="324" type="line"/>
      <point x="135" y="324" type="line"/>
      <point x="181" y="255"/>
      <point x="203" y="184"/>
      <point x="203" y="130" type="curve" smooth="yes"/>
      <point x="203" y="87"/>
      <point x="191" y="53"/>
      <point x="147" y="2" type="curve"/>
    </contour>
  </outline>
</glyph>
<glyph name="currency" format="2">
  <advance width="750"/>
  <unicode hex="00A4"/>
  <outline>
    <contour>
      <point x="398" y="115" type="curve" smooth="yes"/>
      <point x="458" y="115"/>
      <point x="513" y="130"/>
      <point x="557" y="157" type="curve"/>
      <point x="630" y="84" type="line"/>
      <point x="717" y="170" type="line"/>
      <point x="646" y="241" type="line"/>
      <point x="691" y="308"/>
      <point x="708" y="396"/>
      <point x="685" y="491" type="curve" smooth="yes"/>
      <point x="673" y="540"/>
      <point x="650" y="585"/>
      <point x="621" y="624" type="curve"/>
      <point x="716" y="720" type="line"/>
      <point x="620" y="816" type="line"/>
      <point x="521" y="717" type="line"/>
      <point x="458" y="760"/>
      <point x="380" y="785"/>
      <point x="300" y="785" type="curve" smooth="yes"/>
      <point x="240" y="785"/>
      <point x="187" y="770"/>
      <point x="142" y="744" type="curve"/>
      <point x="70" y="816" type="line"/>
      <point x="-17" y="730" type="line"/>
      <point x="53" y="661" type="line"/>
      <point x="6" y="593"/>
      <point x="-10" y="504"/>
      <point x="13" y="409" type="curve" smooth="yes"/>
      <point x="25" y="360"/>
      <point x="48" y="314"/>
      <point x="79" y="274" type="curve"/>
      <point x="-16" y="180" type="line"/>
      <point x="80" y="84" type="line"/>
      <point x="178" y="182" type="line"/>
      <point x="241" y="140"/>
      <point x="319" y="115"/>
    </contour>
    <contour>
      <point x="361" y="355" type="curve" smooth="yes"/>
      <point x="313" y="355"/>
      <point x="270" y="389"/>
      <point x="258" y="437" type="curve" smooth="yes"/>
      <point x="244" y="495"/>
      <point x="280" y="545"/>
      <point x="337" y="545" type="curve" smooth="yes"/>
      <point x="385" y="545"/>
      <point x="428" y="511"/>
      <point x="440" y="463" type="curve" smooth="yes"/>
      <point x="454" y="405"/>
      <point x="418" y="355"/>
    </contour>
  </outline>
</glyph>
<glyph name="yen" format="2">
  <advance width="750"/>
  <unicode hex="00A5"/>
  <outline>
    <contour>
      <point x="303" y="0" type="line"/>
      <point x="597" y="0" type="line"/>
      <point x="525" y="288" type="line"/>
      <point x="723" y="288" type="line"/>
      <point x="690" y="420" type="line"/>
      <point x="506" y="420" type="line"/>
      <point x="505" y="426" type="line"/>
      <point x="520" y="480" type="line"/>
      <point x="676" y="480" type="line"/>
      <point x="643" y="612" type="line"/>
      <point x="549" y="612" type="line"/>
      <point x="613" y="900" type="line"/>
      <point x="343" y="900" type="line"/>
      <point x="324" y="791" type="line" smooth="yes"/>
      <point x="319" y="760"/>
      <point x="313" y="724"/>
      <point x="307" y="682" type="curve"/>
      <point x="281" y="725"/>
      <point x="256" y="761"/>
      <point x="236" y="792" type="curve" smooth="yes"/>
      <point x="164" y="900" type="line"/>
      <point x="-161" y="900" type="line"/>
      <point x="47" y="612" type="line"/>
      <point x="-47" y="612" type="line"/>
      <point x="-14" y="480" type="line"/>
      <point x="142" y="480" type="line"/>
      <point x="183" y="426" type="line"/>
      <point x="184" y="420" type="line"/>
      <point x="0" y="420" type="line"/>
      <point x="33" y="288" type="line"/>
      <point x="231" y="288" type="line"/>
    </contour>
  </outline>
</glyph>
<glyph name="section" format="2">
  <advance width="750"/>
  <unicode hex="00A7"/>
  <outline>
    <contour>
      <point x="410" y="-197" type="curve" smooth="yes"/>
      <point x="599" y="-197"/>
      <point x="724" y="-107"/>
      <point x="724" y="41" type="curve" smooth="yes"/>
      <point x="724" y="119"/>
      <point x="689" y="185"/>
      <point x="632" y="231" type="curve"/>
      <point x="676" y="273"/>
      <point x="697" y="323"/>
      <point x="697" y="386" type="curve" smooth="yes"/>
      <point x="697" y="515"/>
      <point x="610" y="610"/>
      <point x="448" y="659" type="curve" smooth="yes"/>
      <point x="272" y="712" type="line" smooth="yes"/>
      <point x="248" y="719"/>
      <point x="235" y="729"/>
      <point x="235" y="740" type="curve" smooth="yes"/>
      <point x="235" y="753"/>
      <point x="255" y="761"/>
      <point x="287" y="761" type="curve" smooth="yes"/>
      <point x="346" y="761"/>
      <point x="432" y="733"/>
      <point x="494" y="692" type="curve"/>
      <point x="494" y="930" type="line"/>
      <point x="421" y="963"/>
      <point x="349" y="980"/>
      <point x="276" y="980" type="curve" smooth="yes"/>
      <point x="104" y="980"/>
      <point x="-16" y="884"/>
      <point x="-16" y="738" type="curve" smooth="yes"/>
      <point x="-16" y="661"/>
      <point x="18" y="597"/>
      <point x="75" y="550" type="curve"/>
      <point x="30" y="507"/>
      <point x="10" y="459"/>
      <point x="10" y="394" type="curve" smooth="yes"/>
      <point x="10" y="262"/>
      <point x="95" y="174"/>
      <point x="268" y="121" type="curve" smooth="yes"/>
      <point x="429" y="72" type="line" smooth="yes"/>
      <point x="456" y="64"/>
      <point x="470" y="53"/>
      <point x="470" y="41" type="curve" smooth="yes"/>
      <point x="470" y="26"/>
      <point x="449" y="20"/>
      <point x="414" y="20" type="curve" smooth="yes"/>
      <point x="338" y="20"/>
      <point x="251" y="49"/>
      <point x="179" y="99" type="curve"/>
      <point x="179" y="-146" type="line"/>
      <point x="241" y="-179"/>
      <point x="326" y="-197"/>
    </contour>
    <contour>
      <point x="387" y="334" type="curve" smooth="yes"/>
      <point x="380" y="334"/>
      <point x="374" y="335"/>
      <point x="369" y="336" type="curve" smooth="yes"/>
      <point x="359" y="338"/>
      <point x="349" y="341"/>
      <point x="332" y="348" type="curve" smooth="yes"/>
      <point x="287" y="367"/>
      <point x="274" y="383"/>
      <point x="274" y="407" type="curve" smooth="yes"/>
      <point x="274" y="432"/>
      <point x="291" y="448"/>
      <point x="319" y="448" type="curve" smooth="yes"/>
      <point x="326" y="448"/>
      <point x="332" y="447"/>
      <point x="337" y="446" type="curve" smooth="yes"/>
      <point x="346" y="444"/>
      <point x="357" y="441"/>
      <point x="374" y="434" type="curve" smooth="yes"/>
      <point x="420" y="415"/>
      <point x="432" y="397"/>
      <point x="432" y="376" type="curve" smooth="yes"/>
      <point x="432" y="350"/>
      <point x="414" y="334"/>
    </contour>
  </outline>
</glyph>
<glyph name="copyright" format="2">
  <advance width="1260"/>
  <unicode hex="00A9"/>
  <outline>
    <contour>
      <point x="656" y="-102" type="curve" smooth="yes"/>
      <point x="942" y="-102"/>
      <point x="1157" y="107"/>
      <point x="1157" y="389" type="curve" smooth="yes"/>
      <point x="1157" y="717"/>
      <point x="865" y="1002"/>
      <point x="530" y="1002" type="curve" smooth="yes"/>
      <point x="244" y="1002"/>
      <point x="29" y="793"/>
      <point x="29" y="511" type="curve" smooth="yes"/>
      <point x="29" y="183"/>
      <point x="321" y="-102"/>
    </contour>
    <contour>
      <point x="637" y="73" type="curve" smooth="yes"/>
      <point x="410" y="73"/>
      <point x="216" y="268"/>
      <point x="216" y="495" type="curve" smooth="yes"/>
      <point x="216" y="687"/>
      <point x="356" y="827"/>
      <point x="549" y="827" type="curve" smooth="yes"/>
      <point x="776" y="827"/>
      <point x="970" y="632"/>
      <point x="970" y="405" type="curve" smooth="yes"/>
      <point x="970" y="213"/>
      <point x="830" y="73"/>
    </contour>
    <contour>
      <point x="647" y="168" type="curve" smooth="yes"/>
      <point x="714" y="168"/>
      <point x="781" y="190"/>
      <point x="829" y="226" type="curve"/>
      <point x="734" y="415" type="line"/>
      <point x="712" y="387"/>
      <point x="680" y="371"/>
      <point x="644" y="371" type="curve" smooth="yes"/>
      <point x="592" y="371"/>
      <point x="553" y="408"/>
      <point x="553" y="456" type="curve" smooth="yes"/>
      <point x="553" y="501"/>
      <point x="588" y="530"/>
      <point x="640" y="530" type="curve" smooth="yes"/>
      <point x="676" y="530"/>
      <point x="710" y="520"/>
      <point x="748" y="486" type="curve"/>
      <point x="747" y="692" type="line"/>
      <point x="702" y="722"/>
      <point x="648" y="732"/>
      <point x="592" y="732" type="curve" smooth="yes"/>
      <point x="437" y="732"/>
      <point x="324" y="628"/>
      <point x="324" y="481" type="curve" smooth="yes"/>
      <point x="324" y="314"/>
      <point x="473" y="168"/>
    </contour>
  </outline>
</glyph>
<glyph name="ordfeminine" format="2">
  <advance width="540"/>
  <unicode hex="00AA"/>
  <outline>
    <contour>
      <point x="212" y="348" type="curve" smooth="yes"/>
      <point x="259" y="348"/>
      <point x="298" y="366"/>
      <point x="325" y="390" type="curve"/>
      <point x="332" y="360" type="line"/>
      <point x="489" y="360" type="line"/>
      <point x="385" y="780" type="line"/>
      <point x="240" y="780" type="line"/>
      <point x="246" y="753" type="line"/>
      <point x="213" y="780"/>
      <point x="178" y="792"/>
      <point x="141" y="792" type="curve" smooth="yes"/>
      <point x="37" y="792"/>
      <point x="-39" y="711"/>
      <point x="-39" y="602" type="curve" smooth="yes"/>
      <point x="-39" y="466"/>
      <point x="77" y="348"/>
    </contour>
    <contour>
      <point x="209" y="506" type="curve" smooth="yes"/>
      <point x="171" y="506"/>
      <point x="138" y="540"/>
      <point x="138" y="579" type="curve" smooth="yes"/>
      <point x="138" y="611"/>
      <point x="161" y="634"/>
      <point x="194" y="634" type="curve" smooth="yes"/>
      <point x="232" y="634"/>
      <point x="264" y="601"/>
      <point x="264" y="561" type="curve" smooth="yes"/>
      <point x="264" y="529"/>
      <point x="241" y="506"/>
    </contour>
  </outline>
</glyph>
<glyph name="logicalnot" format="2">
  <advance width="750"/>
  <unicode hex="00AC"/>
  <outline>
    <contour>
      <point x="521" y="190" type="line"/>
      <point x="707" y="190" type="line"/>
      <point x="617" y="552" type="line"/>
      <point x="-23" y="552" type="line"/>
      <point x="27" y="352" type="line"/>
      <point x="481" y="352" type="line"/>
    </contour>
  </outline>
</glyph>
<glyph name="registered" format="2">
  <advance width="660"/>
  <unicode hex="00AE"/>
  <outline>
    <contour>
      <point x="271" y="378" type="curve" smooth="yes"/>
      <point x="410" y="378"/>
      <point x="525" y="482"/>
      <point x="525" y="628" type="curve" smooth="yes"/>
      <point x="525" y="794"/>
      <point x="375" y="942"/>
      <point x="204" y="942" type="curve" smooth="yes"/>
      <point x="59" y="942"/>
      <point x="-49" y="834"/>
      <point x="-49" y="694" type="curve" smooth="yes"/>
      <point x="-49" y="527"/>
      <point x="103" y="378"/>
    </contour>
    <contour>
      <point x="259" y="478" type="curve" smooth="yes"/>
      <point x="148" y="478"/>
      <point x="56" y="576"/>
      <point x="56" y="682" type="curve" smooth="yes"/>
      <point x="56" y="772"/>
      <point x="123" y="842"/>
      <point x="217" y="842" type="curve" smooth="yes"/>
      <point x="328" y="842"/>
      <point x="420" y="745"/>
      <point x="420" y="638" type="curve" smooth="yes"/>
      <point x="420" y="547"/>
      <point x="353" y="478"/>
    </contour>
    <contour>
      <point x="146" y="546" type="line"/>
      <point x="248" y="546" type="line"/>
      <point x="234" y="604" type="line"/>
      <point x="254" y="604" type="line"/>
      <point x="294" y="546" type="line"/>
      <point x="408" y="546" type="line"/>
      <point x="337" y="636" type="line"/>
      <point x="353" y="650"/>
      <point x="362" y="671"/>
      <point x="362" y="693" type="curve" smooth="yes"/>
      <point x="362" y="729"/>
      <point x="332" y="786"/>
      <point x="245" y="786" type="curve" smooth="yes"/>
      <point x="87" y="786" type="line"/>
    </contour>
    <contour>
      <point x="219" y="668" type="line"/>
      <point x="206" y="718" type="line"/>
      <point x="227" y="718" type="line" smooth="yes"/>
      <point x="245" y="718"/>
      <point x="259" y="705"/>
      <point x="259" y="690" type="curve" smooth="yes"/>
      <point x="259" y="677"/>
      <point x="249" y="668"/>
      <point x="233" y="668" type="curve" smooth="yes"/>
    </contour>
  </outline>
</glyph>
<glyph name="degree" format="2">
  <advance width="480"/>
  <unicode hex="00B0"/>
  <outline>
    <contour>
      <point x="161" y="498" type="curve" smooth="yes"/>
      <point x="273" y="498"/>
      <point x="353" y="575"/>
      <point x="353" y="680" type="curve" smooth="yes"/>
      <point x="353" y="804"/>
      <point x="244" y="912"/>
      <point x="117" y="912" type="curve" smooth="yes"/>
      <point x="5" y="912"/>
      <point x="-75" y="835"/>
      <point x="-75" y="730" type="curve" smooth="yes"/>
      <point x="-75" y="606"/>
      <point x="34" y="498"/>
    </contour>
    <contour>
      <point x="146" y="646" type="curve" smooth="yes"/>
      <point x="111" y="646"/>
      <point x="80" y="677"/>
      <point x="80" y="713" type="curve" smooth="yes"/>
      <point x="80" y="742"/>
      <point x="102" y="764"/>
      <point x="132" y="764" type="curve" smooth="yes"/>
      <point x="167" y="764"/>
      <point x="198" y="733"/>
      <point x="198" y="697" type="curve" smooth="yes"/>
      <point x="198" y="668"/>
      <point x="176" y="646"/>
    </contour>
  </outline>
</glyph>
<glyph name="plusminus" format="2">
  <advance width="750"/>
  <unicode hex="00B1"/>
  <outline>
    <contour>
      <point x="295" y="222" type="line"/>
      <point x="493" y="222" type="line"/>
      <point x="446" y="412" type="line"/>
      <point x="682" y="412" type="line"/>
      <point x="633" y="608" type="line"/>
      <point x="397" y="608" type="line"/>
      <point x="343" y="823" type="line"/>
      <point x="145" y="823" type="line"/>
      <point x="199" y="608" type="line"/>
      <point x="-37" y="608" type="line"/>
      <point x="12" y="412" type="line"/>
      <point x="248" y="412" type="line"/>
    </contour>
    <contour>
      <point x="135" y="0" type="line"/>
      <point x="765" y="0" type="line"/>
      <point x="724" y="162" type="line"/>
      <point x="94" y="162" type="line"/>
    </contour>
  </outline>
</glyph>
<glyph name="micro" format="2">
  <advance width="770"/>
  <unicode hex="00B5"/>
  <unicode hex="03BC"/>
  <outline>
    <contour>
      <point x="190" y="-270" type="line"/>
      <point x="448" y="-270" type="line"/>
      <point x="385" y="-16" type="line"/>
      <point x="401" y="-19"/>
      <point x="417" y="-20"/>
      <point x="432" y="-20" type="curve" smooth="yes"/>
      <point x="494" y="-20"/>
      <point x="546" y="-1"/>
      <point x="584" y="37" type="curve"/>
      <point x="639" y="0"/>
      <point x="706" y="-20"/>
      <point x="774" y="-20" type="curve"/>
      <point x="774" y="220" type="line"/>
      <point x="738" y="220"/>
      <point x="712" y="241"/>
      <point x="704" y="275" type="curve" smooth="yes"/>
      <point x="616" y="630" type="line"/>
      <point x="352" y="630" type="line"/>
      <point x="437" y="287" type="line" smooth="yes"/>
      <point x="447" y="245"/>
      <point x="426" y="214"/>
      <point x="387" y="214" type="curve" smooth="yes"/>
      <point x="354" y="214"/>
      <point x="328" y="236"/>
      <point x="319" y="272" type="curve" smooth="yes"/>
      <point x="230" y="630" type="line"/>
      <point x="-34" y="630" type="line"/>
    </contour>
  </outline>
</glyph>
<glyph name="paragraph" format="2">
  <advance width="750"/>
  <unicode hex="00B6"/>
  <outline>
    <contour>
      <point x="353" y="-180" type="line"/>
      <point x="551" y="-180" type="line"/>
      <point x="307" y="798" type="line"/>
      <point x="380" y="798" type="line"/>
      <point x="623" y="-180" type="line"/>
      <point x="821" y="-180" type="line"/>
      <point x="537" y="960" type="line"/>
      <point x="177" y="960" type="line" smooth="yes"/>
      <point x="14" y="960"/>
      <point x="-77" y="842"/>
      <point x="-77" y="710" type="curve" smooth="yes"/>
      <point x="-77" y="560"/>
      <point x="39" y="409"/>
      <point x="215" y="373" type="curve"/>
    </contour>
  </outline>
</glyph>
<glyph name="ordmasculine" format="2">
  <advance width="540"/>
  <unicode hex="00BA"/>
  <outline>
    <contour>
      <point x="227" y="342" type="curve" smooth="yes"/>
      <point x="352" y="342"/>
      <point x="443" y="427"/>
      <point x="443" y="542" type="curve" smooth="yes"/>
      <point x="443" y="680"/>
      <point x="320" y="798"/>
      <point x="179" y="798" type="curve" smooth="yes"/>
      <point x="54" y="798"/>
      <point x="-37" y="713"/>
      <point x="-37" y="598" type="curve" smooth="yes"/>
      <point x="-37" y="460"/>
      <point x="86" y="342"/>
    </contour>
    <contour>
      <point x="211" y="506" type="curve" smooth="yes"/>
      <point x="173" y="506"/>
      <point x="140" y="539"/>
      <point x="140" y="579" type="curve" smooth="yes"/>
      <point x="140" y="611"/>
      <point x="163" y="634"/>
      <point x="195" y="634" type="curve" smooth="yes"/>
      <point x="233" y="634"/>
      <point x="266" y="601"/>
      <point x="266" y="561" type="curve" smooth="yes"/>
      <point x="266" y="529"/>
      <point x="243" y="506"/>
    </contour>
  </outline>
</glyph>
<glyph name="questiondown" format="2">
  <advance width="480"/>
  <unicode hex="00BF"/>
  <outline>
    <contour>
      <point x="353" y="-290" type="curve" smooth="yes"/>
      <point x="432" y="-290"/>
      <point x="516" y="-270"/>
      <point x="583" y="-210" type="curve"/>
      <point x="526" y="20" type="line"/>
      <point x="497" y="-24"/>
      <point x="454" y="-62"/>
      <point x="409" y="-62" type="curve" smooth="yes"/>
      <point x="369" y="-62"/>
      <point x="354" y="-35"/>
      <point x="354" y="-7" type="curve" smooth="yes"/>
      <point x="354" y="41"/>
      <point x="399" y="165"/>
      <point x="357" y="300" type="curve"/>
      <point x="125" y="300" type="line"/>
      <point x="163" y="186"/>
      <point x="91" y="85"/>
      <point x="91" y="-25" type="curve" smooth="yes"/>
      <point x="91" y="-142"/>
      <point x="163" y="-290"/>
    </contour>
    <contour>
      <point x="205" y="370" type="curve" smooth="yes"/>
      <point x="277" y="370"/>
      <point x="328" y="423"/>
      <point x="328" y="493" type="curve" smooth="yes"/>
      <point x="328" y="576"/>
      <point x="254" y="650"/>
      <point x="171" y="650" type="curve" smooth="yes"/>
      <point x="104" y="650"/>
      <point x="48" y="599"/>
      <point x="48" y="525" type="curve" smooth="yes"/>
      <point x="48" y="444"/>
      <point x="122" y="370"/>
    </contour>
  </outline>
</glyph>
<glyph name="Aring" format="2">
  <advance width="860"/>
  <unicode hex="00C5"/>
  <outline>
    <contour>
      <point x="59" y="0" type="line"/>
      <point x="333" y="0" type="line"/>
      <point x="347" y="75" type="line"/>
      <point x="589" y="75" type="line"/>
      <point x="639" y="0" type="line"/>
      <point x="951" y="0" type="line"/>
      <point x="395" y="844" type="line"/>
      <point x="426" y="873"/>
      <point x="446" y="914"/>
      <point x="446" y="963" type="curve" smooth="yes"/>
      <point x="446" y="1071"/>
      <point x="349" y="1166"/>
      <point x="238" y="1166" type="curve" smooth="yes"/>
      <point x="145" y="1166"/>
      <point x="74" y="1096"/>
      <point x="74" y="1006" type="curve" smooth="yes"/>
      <point x="74" y="928"/>
      <point x="125" y="857"/>
      <point x="193" y="823" type="curve"/>
    </contour>
    <contour>
      <point x="363" y="237" type="line"/>
      <point x="367" y="266" type="line" smooth="yes"/>
      <point x="375" y="322"/>
      <point x="378" y="362"/>
      <point x="379" y="431" type="curve"/>
      <point x="415" y="362"/>
      <point x="436" y="324"/>
      <point x="473" y="266" type="curve" smooth="yes"/>
      <point x="491" y="237" type="line"/>
    </contour>
    <contour>
      <point x="265" y="930" type="curve" smooth="yes"/>
      <point x="234" y="930"/>
      <point x="206" y="959"/>
      <point x="206" y="989" type="curve" smooth="yes"/>
      <point x="206" y="1017"/>
      <point x="226" y="1038"/>
      <point x="255" y="1038" type="curve" smooth="yes"/>
      <point x="286" y="1038"/>
      <point x="314" y="1009"/>
      <point x="314" y="979" type="curve" smooth="yes"/>
      <point x="314" y="950"/>
      <point x="294" y="930"/>
    </contour>
  </outline>
</glyph>
<glyph name="AE" format="2">
  <advance width="1060"/>
  <unicode hex="00C6"/>
  <anchor x="509" y="0" name="bottom"/>
  <anchor x="406" y="900" name="top"/>
  <outline>
    <contour>
      <point x="59" y="0" type="line"/>
      <point x="333" y="0" type="line"/>
      <point x="347" y="75" type="line"/>
      <point x="589" y="75" type="line"/>
      <point x="639" y="0" type="line"/>
      <point x="1151" y="0" type="line"/>
      <point x="990" y="240" type="line"/>
      <point x="782" y="240" type="line"/>
      <point x="688" y="378" type="line"/>
      <point x="897" y="378" type="line"/>
      <point x="769" y="570" type="line"/>
      <point x="561" y="570" type="line"/>
      <point x="496" y="666" type="line"/>
      <point x="763" y="666" type="line"/>
      <point x="607" y="900" type="line"/>
      <point x="204" y="900" type="line"/>
    </contour>
    <contour>
      <point x="363" y="237" type="line"/>
      <point x="367" y="266" type="line" smooth="yes"/>
      <point x="374" y="324"/>
      <point x="377" y="362"/>
      <point x="379" y="431" type="curve"/>
      <point x="414" y="362"/>
      <point x="438" y="322"/>
      <point x="473" y="266" type="curve" smooth="yes"/>
      <point x="491" y="237" type="line"/>
    </contour>
  </outline>
</glyph>
<glyph name="Ccedilla" format="2">
  <advance width="830"/>
  <unicode hex="00C7"/>
  <outline>
    <contour>
      <point x="258" y="-220" type="line"/>
      <point x="598" y="-220" type="line"/>
      <point x="664" y="-5" type="line"/>
      <point x="732" y="12"/>
      <point x="795" y="42"/>
      <point x="843" y="82" type="curve"/>
      <point x="702" y="369" type="line"/>
      <point x="664" y="306"/>
      <point x="600" y="269"/>
      <point x="529" y="269" type="curve" smooth="yes"/>
      <point x="416" y="269"/>
      <point x="319" y="363"/>
      <point x="319" y="471" type="curve" smooth="yes"/>
      <point x="319" y="565"/>
      <point x="391" y="632"/>
      <point x="490" y="632" type="curve" smooth="yes"/>
      <point x="563" y="632"/>
      <point x="638" y="595"/>
      <point x="704" y="527" type="curve"/>
      <point x="704" y="849" type="line"/>
      <point x="619" y="895"/>
      <point x="528" y="920"/>
      <point x="437" y="920" type="curve" smooth="yes"/>
      <point x="187" y="920"/>
      <point x="2" y="743"/>
      <point x="2" y="504" type="curve" smooth="yes"/>
      <point x="2" y="267"/>
      <point x="178" y="57"/>
      <point x="404" y="-3" type="curve"/>
    </contour>
  </outline>
</glyph>
<glyph name="Eth" format="2">
  <advance width="980"/>
  <unicode hex="00D0"/>
  <outline>
    <contour>
      <point x="180" y="0" type="line"/>
      <point x="490" y="0" type="line" smooth="yes"/>
      <point x="729" y="0"/>
      <point x="909" y="170"/>
      <point x="909" y="395" type="curve" smooth="yes"/>
      <point x="909" y="676"/>
      <point x="677" y="900"/>
      <point x="376" y="900" type="curve" smooth="yes"/>
      <point x="-44" y="900" type="line"/>
      <point x="46" y="540" type="line"/>
      <point x="-30" y="540" type="line"/>
      <point x="12" y="372" type="line"/>
      <point x="87" y="372" type="line"/>
    </contour>
    <contour>
      <point x="399" y="276" type="line"/>
      <point x="375" y="372" type="line"/>
      <point x="492" y="372" type="line"/>
      <point x="450" y="540" type="line"/>
      <point x="334" y="540" type="line"/>
      <point x="313" y="624" type="line"/>
      <point x="409" y="624" type="line" smooth="yes"/>
      <point x="525" y="624"/>
      <point x="613" y="533"/>
      <point x="613" y="426" type="curve" smooth="yes"/>
      <point x="613" y="340"/>
      <point x="551" y="276"/>
      <point x="453" y="276" type="curve" smooth="yes"/>
    </contour>
  </outline>
</glyph>
<glyph name="multiply" format="2">
  <advance width="750"/>
  <unicode hex="00D7"/>
  <outline>
    <contour>
      <point x="236" y="137" type="line"/>
      <point x="367" y="309" type="line"/>
      <point x="582" y="137" type="line"/>
      <point x="696" y="289" type="line"/>
      <point x="481" y="461" type="line"/>
      <point x="612" y="633" type="line"/>
      <point x="450" y="763" type="line"/>
      <point x="319" y="591" type="line"/>
      <point x="104" y="763" type="line"/>
      <point x="-10" y="611" type="line"/>
      <point x="205" y="439" type="line"/>
      <point x="74" y="267" type="line"/>
    </contour>
  </outline>
</glyph>
<glyph name="Oslash" format="2">
  <advance width="1040"/>
  <unicode hex="00D8"/>
  <anchor x="520" y="0" name="bottom"/>
  <anchor x="370" y="900" name="top"/>
  <outline>
    <contour>
      <point x="536" y="-17" type="curve" smooth="yes"/>
      <point x="780" y="-17"/>
      <point x="963" y="159"/>
      <point x="963" y="397" type="curve" smooth="yes"/>
      <point x="963" y="528"/>
      <point x="908" y="651"/>
      <point x="820" y="744" type="curve"/>
      <point x="887" y="826" type="line"/>
      <point x="774" y="917" type="line"/>
      <point x="707" y="836" type="line"/>
      <point x="625" y="887"/>
      <point x="529" y="917"/>
      <point x="428" y="917" type="curve" smooth="yes"/>
      <point x="184" y="917"/>
      <point x="2" y="741"/>
      <point x="2" y="503" type="curve" smooth="yes"/>
      <point x="2" y="373"/>
      <point x="57" y="250"/>
      <point x="145" y="156" type="curve"/>
      <point x="78" y="75" type="line"/>
      <point x="191" y="-17" type="line"/>
      <point x="258" y="64" type="line"/>
      <point x="340" y="13"/>
      <point x="435" y="-17"/>
    </contour>
    <contour>
      <point x="314" y="360" type="line"/>
      <point x="292" y="394"/>
      <point x="280" y="433"/>
      <point x="280" y="474" type="curve" smooth="yes"/>
      <point x="280" y="575"/>
      <point x="357" y="650"/>
      <point x="460" y="650" type="curve" smooth="yes"/>
      <point x="488" y="650"/>
      <point x="515" y="644"/>
      <point x="540" y="634" type="curve"/>
    </contour>
    <contour>
      <point x="505" y="250" type="curve" smooth="yes"/>
      <point x="477" y="250"/>
      <point x="450" y="256"/>
      <point x="425" y="266" type="curve"/>
      <point x="651" y="540" type="line"/>
      <point x="673" y="506"/>
      <point x="685" y="467"/>
      <point x="685" y="426" type="curve" smooth="yes"/>
      <point x="685" y="325"/>
      <point x="608" y="250"/>
    </contour>
  </outline>
</glyph>
<glyph name="Thorn" format="2">
  <advance width="800"/>
  <unicode hex="00DE"/>
  <outline>
    <contour>
      <point x="135" y="0" type="line"/>
      <point x="423" y="0" type="line"/>
      <point x="389" y="138" type="line"/>
      <point x="447" y="138" type="line" smooth="yes"/>
      <point x="641" y="138"/>
      <point x="742" y="270"/>
      <point x="742" y="423" type="curve" smooth="yes"/>
      <point x="742" y="605"/>
      <point x="595" y="780"/>
      <point x="368" y="780" type="curve" smooth="yes"/>
      <point x="229" y="780" type="line"/>
      <point x="199" y="900" type="line"/>
      <point x="-89" y="900" type="line"/>
    </contour>
    <contour>
      <point x="331" y="372" type="line"/>
      <point x="284" y="558" type="line"/>
      <point x="350" y="558" type="line" smooth="yes"/>
      <point x="411" y="558"/>
      <point x="455" y="507"/>
      <point x="455" y="451" type="curve" smooth="yes"/>
      <point x="455" y="403"/>
      <point x="423" y="372"/>
      <point x="373" y="372" type="curve" smooth="yes"/>
    </contour>
  </outline>
</glyph>
<glyph name="germandbls" format="2">
  <advance width="740"/>
  <unicode hex="00DF"/>
  <outline>
    <contour>
      <point x="461" y="-12" type="line"/>
      <point x="607" y="15"/>
      <point x="706" y="137"/>
      <point x="706" y="292" type="curve" smooth="yes"/>
      <point x="706" y="423"/>
      <point x="645" y="535"/>
      <point x="533" y="609" type="curve"/>
      <point x="549" y="637"/>
      <point x="556" y="665"/>
      <point x="556" y="696" type="curve" smooth="yes"/>
      <point x="556" y="849"/>
      <point x="416" y="972"/>
      <point x="243" y="972" type="curve" smooth="yes"/>
      <point x="29" y="972"/>
      <point x="-86" y="838"/>
      <point x="-38" y="645" type="curve" smooth="yes"/>
      <point x="123" y="0" type="line"/>
      <point x="381" y="0" type="line"/>
      <point x="211" y="680" type="line" smooth="yes"/>
      <point x="199" y="726"/>
      <point x="216" y="756"/>
      <point x="255" y="756" type="curve" smooth="yes"/>
      <point x="292" y="756"/>
      <point x="322" y="718"/>
      <point x="322" y="669" type="curve" smooth="yes"/>
      <point x="322" y="633"/>
      <point x="305" y="588"/>
      <point x="272" y="535" type="curve"/>
      <point x="272" y="533" type="line"/>
      <point x="388" y="468"/>
      <point x="442" y="401"/>
      <point x="442" y="323" type="curve" smooth="yes"/>
      <point x="442" y="269"/>
      <point x="409" y="233"/>
      <point x="349" y="222" type="curve"/>
    </contour>
  </outline>
</glyph>
<glyph name="ae" format="2">
  <advance width="1100"/>
  <unicode hex="00E6"/>
  <anchor x="625" y="0" name="bottom"/>
  <anchor x="467" y="630" name="top"/>
  <outline>
    <contour>
      <point x="305" y="-20" type="curve" smooth="yes"/>
      <point x="399" y="-20"/>
      <point x="487" y="17"/>
      <point x="541" y="69" type="curve"/>
      <point x="610" y="13"/>
      <point x="701" y="-20"/>
      <point x="802" y="-20" type="curve" smooth="yes"/>
      <point x="903" y="-20"/>
      <point x="1007" y="9"/>
      <point x="1066" y="54" type="curve"/>
      <point x="976" y="235" type="line"/>
      <point x="936" y="201"/>
      <point x="883" y="184"/>
      <point x="820" y="184" type="curve" smooth="yes"/>
      <point x="746" y="184"/>
      <point x="693" y="208"/>
      <point x="667" y="253" type="curve"/>
      <point x="697" y="249"/>
      <point x="727" y="247"/>
      <point x="751" y="247" type="curve" smooth="yes"/>
      <point x="1085" y="247" type="line"/>
      <point x="1070" y="334" type="line" smooth="yes"/>
      <point x="1038" y="522"/>
      <point x="892" y="649"/>
      <point x="709" y="649" type="curve" smooth="yes"/>
      <point x="633" y="649"/>
      <point x="566" y="627"/>
      <point x="515" y="588" type="curve"/>
      <point x="460" y="629"/>
      <point x="386" y="650"/>
      <point x="293" y="650" type="curve" smooth="yes"/>
      <point x="178" y="650"/>
      <point x="75" y="619"/>
      <point x="-7" y="558" type="curve"/>
      <point x="82" y="381" type="line"/>
      <point x="126" y="420"/>
      <point x="203" y="446"/>
      <point x="278" y="446" type="curve" smooth="yes"/>
      <point x="345" y="446"/>
      <point x="399" y="422"/>
      <point x="405" y="386" type="curve"/>
      <point x="405" y="384"/>
      <point x="405" y="382"/>
      <point x="405" y="380" type="curve"/>
      <point x="374" y="390"/>
      <point x="333" y="396"/>
      <point x="293" y="396" type="curve" smooth="yes"/>
      <point x="148" y="396"/>
      <point x="51" y="318"/>
      <point x="51" y="196" type="curve" smooth="yes"/>
      <point x="51" y="70"/>
      <point x="153" y="-20"/>
    </contour>
    <contour>
      <point x="338" y="152" type="curve" smooth="yes"/>
      <point x="302" y="152"/>
      <point x="276" y="172"/>
      <point x="276" y="201" type="curve" smooth="yes"/>
      <point x="276" y="232"/>
      <point x="307" y="252"/>
      <point x="358" y="252" type="curve" smooth="yes"/>
      <point x="379" y="252"/>
      <point x="399" y="249"/>
      <point x="423" y="241" type="curve"/>
      <point x="432" y="216" type="line"/>
      <point x="421" y="182"/>
      <point x="380" y="152"/>
    </contour>
    <contour>
      <point x="634" y="385" type="curve"/>
      <point x="640" y="431"/>
      <point x="671" y="459"/>
      <point x="718" y="459" type="curve" smooth="yes"/>
      <point x="763" y="459"/>
      <point x="799" y="434"/>
      <point x="825" y="385" type="curve"/>
      <point x="798" y="388"/>
      <point x="761" y="391"/>
      <point x="737" y="391" type="curve" smooth="yes"/>
      <point x="709" y="391" type="line" smooth="yes"/>
      <point x="692" y="391"/>
      <point x="672" y="389"/>
    </contour>
  </outline>
</glyph>
<glyph name="ccedilla" format="2">
  <advance width="600"/>
  <unicode hex="00E7"/>
  <outline>
    <contour>
      <point x="151" y="-220" type="line"/>
      <point x="441" y="-220" type="line"/>
      <point x="515" y="-5" type="line"/>
      <point x="556" y="7"/>
      <point x="594" y="26"/>
      <point x="624" y="49" type="curve"/>
      <point x="512" y="274" type="line"/>
      <point x="486" y="240"/>
      <point x="447" y="221"/>
      <point x="405" y="221" type="curve" smooth="yes"/>
      <point x="343" y="221"/>
      <point x="296" y="265"/>
      <point x="296" y="322" type="curve" smooth="yes"/>
      <point x="296" y="376"/>
      <point x="338" y="410"/>
      <point x="400" y="410" type="curve" smooth="yes"/>
      <point x="443" y="410"/>
      <point x="483" y="397"/>
      <point x="528" y="363" type="curve"/>
      <point x="528" y="595" type="line"/>
      <point x="474" y="634"/>
      <point x="409" y="650"/>
      <point x="343" y="650" type="curve" smooth="yes"/>
      <point x="159" y="650"/>
      <point x="25" y="526"/>
      <point x="25" y="352" type="curve" smooth="yes"/>
      <point x="25" y="190"/>
      <point x="142" y="45"/>
      <point x="297" y="-3" type="curve"/>
    </contour>
  </outline>
</glyph>
<glyph name="eth" format="2">
  <advance width="740"/>
  <unicode hex="00F0"/>
  <outline>
    <contour>
      <point x="399" y="-20" type="curve" smooth="yes"/>
      <point x="583" y="-20"/>
      <point x="705" y="110"/>
      <point x="705" y="289" type="curve" smooth="yes"/>
      <point x="705" y="410"/>
      <point x="653" y="536"/>
      <point x="543" y="663" type="curve" smooth="yes"/>
      <point x="510" y="703"/>
      <point x="474" y="739"/>
      <point x="400" y="807" type="curve"/>
      <point x="488" y="855" type="line"/>
      <point x="411" y="960" type="line"/>
      <point x="291" y="895" type="line"/>
      <point x="266" y="916"/>
      <point x="239" y="937"/>
      <point x="208" y="960" type="curve"/>
      <point x="-104" y="960" type="line"/>
      <point x="-36" y="911"/>
      <point x="32" y="858"/>
      <point x="92" y="805" type="curve"/>
      <point x="-37" y="735" type="line"/>
      <point x="42" y="628" type="line"/>
      <point x="195" y="711" type="line"/>
      <point x="223" y="688"/>
      <point x="248" y="663"/>
      <point x="274" y="634" type="curve"/>
      <point x="261" y="632"/>
      <point x="247" y="628"/>
      <point x="220" y="619" type="curve" smooth="yes"/>
      <point x="96" y="576"/>
      <point x="26" y="474"/>
      <point x="26" y="349" type="curve" smooth="yes"/>
      <point x="26" y="149"/>
      <point x="195" y="-20"/>
    </contour>
    <contour>
      <point x="377" y="220" type="curve" smooth="yes"/>
      <point x="320" y="220"/>
      <point x="271" y="270"/>
      <point x="271" y="328" type="curve" smooth="yes"/>
      <point x="271" y="376"/>
      <point x="305" y="410"/>
      <point x="353" y="410" type="curve" smooth="yes"/>
      <point x="410" y="410"/>
      <point x="459" y="360"/>
      <point x="459" y="302" type="curve" smooth="yes"/>
      <point x="459" y="254"/>
      <point x="425" y="220"/>
    </contour>
  </outline>
</glyph>
<glyph name="divide" format="2">
  <advance width="750"/>
  <unicode hex="00F7"/>
  <outline>
    <contour>
      <point x="27" y="352" type="line"/>
      <point x="697" y="352" type="line"/>
      <point x="649" y="548" type="line"/>
      <point x="-21" y="548" type="line"/>
    </contour>
    <contour>
      <point x="415" y="84" type="curve" smooth="yes"/>
      <point x="473" y="84"/>
      <point x="517" y="129"/>
      <point x="517" y="186" type="curve" smooth="yes"/>
      <point x="517" y="255"/>
      <point x="456" y="316"/>
      <point x="387" y="316" type="curve" smooth="yes"/>
      <point x="330" y="316"/>
      <point x="285" y="273"/>
      <point x="285" y="214" type="curve" smooth="yes"/>
      <point x="285" y="145"/>
      <point x="346" y="84"/>
    </contour>
    <contour>
      <point x="290" y="584" type="curve" smooth="yes"/>
      <point x="348" y="584"/>
      <point x="392" y="629"/>
      <point x="392" y="686" type="curve" smooth="yes"/>
      <point x="392" y="755"/>
      <point x="331" y="816"/>
      <point x="262" y="816" type="curve" smooth="yes"/>
      <point x="205" y="816"/>
      <point x="160" y="773"/>
      <point x="160" y="714" type="curve" smooth="yes"/>
      <point x="160" y="645"/>
      <point x="221" y="584"/>
    </contour>
  </outline>
</glyph>
<glyph name="oslash" format="2">
  <advance width="740"/>
  <unicode hex="00F8"/>
  <anchor x="287" y="630" name="top"/>
  <outline>
    <contour>
      <point x="400" y="-18" type="curve" smooth="yes"/>
      <point x="578" y="-18"/>
      <point x="709" y="106"/>
      <point x="709" y="274" type="curve" smooth="yes"/>
      <point x="709" y="365"/>
      <point x="673" y="450"/>
      <point x="615" y="516" type="curve"/>
      <point x="673" y="585" type="line"/>
      <point x="577" y="669" type="line"/>
      <point x="516" y="597" type="line"/>
      <point x="461" y="629"/>
      <point x="397" y="648"/>
      <point x="330" y="648" type="curve" smooth="yes"/>
      <point x="152" y="648"/>
      <point x="21" y="524"/>
      <point x="21" y="356" type="curve" smooth="yes"/>
      <point x="21" y="266"/>
      <point x="56" y="182"/>
      <point x="113" y="116" type="curve"/>
      <point x="58" y="51" type="line"/>
      <point x="154" y="-33" type="line"/>
      <point x="211" y="35" type="line"/>
      <point x="267" y="1"/>
      <point x="332" y="-18"/>
    </contour>
    <contour>
      <point x="250" y="280" type="line"/>
      <point x="244" y="296"/>
      <point x="240" y="314"/>
      <point x="240" y="332" type="curve" smooth="yes"/>
      <point x="240" y="396"/>
      <point x="285" y="441"/>
      <point x="349" y="441" type="curve" smooth="yes"/>
      <point x="360" y="441"/>
      <point x="371" y="440"/>
      <point x="382" y="437" type="curve"/>
    </contour>
    <contour>
      <point x="381" y="189" type="curve" smooth="yes"/>
      <point x="369" y="189"/>
      <point x="356" y="191"/>
      <point x="345" y="194" type="curve"/>
      <point x="478" y="353" type="line"/>
      <point x="486" y="336"/>
      <point x="490" y="317"/>
      <point x="490" y="298" type="curve" smooth="yes"/>
      <point x="490" y="234"/>
      <point x="445" y="189"/>
    </contour>
  </outline>
</glyph>
<glyph name="thorn" format="2">
  <advance width="760"/>
  <unicode hex="00FE"/>
  <outline>
    <contour>
      <point x="190" y="-270" type="line"/>
      <point x="448" y="-270" type="line"/>
      <point x="380" y="6" type="line"/>
      <point x="409" y="-8"/>
      <point x="438" y="-14"/>
      <point x="472" y="-14" type="curve" smooth="yes"/>
      <point x="623" y="-14"/>
      <point x="735" y="106"/>
      <point x="735" y="268" type="curve" smooth="yes"/>
      <point x="735" y="469"/>
      <point x="564" y="644"/>
      <point x="367" y="644" type="curve" smooth="yes"/>
      <point x="314" y="644"/>
      <point x="264" y="631"/>
      <point x="228" y="609" type="curve"/>
      <point x="141" y="960" type="line"/>
      <point x="-117" y="960" type="line"/>
    </contour>
    <contour>
      <point x="399" y="220" type="curve" smooth="yes"/>
      <point x="342" y="220"/>
      <point x="294" y="270"/>
      <point x="294" y="328" type="curve" smooth="yes"/>
      <point x="294" y="376"/>
      <point x="328" y="410"/>
      <point x="376" y="410" type="curve" smooth="yes"/>
      <point x="433" y="410"/>
      <point x="480" y="361"/>
      <point x="480" y="302" type="curve" smooth="yes"/>
      <point x="480" y="254"/>
      <point x="446" y="220"/>
    </contour>
  </outline>
</glyph>
<glyph name="Aogonek" format="2">
  <advance width="860"/>
  <unicode hex="0104"/>
  <outline>
    <contour>
      <point x="979" y="-290" type="curve"/>
      <point x="979" y="-124" type="line"/>
      <point x="935" y="-121"/>
      <point x="885" y="-95"/>
      <point x="885" y="-60" type="curve" smooth="yes"/>
      <point x="885" y="-39"/>
      <point x="903" y="-15"/>
      <point x="951" y="0" type="curve"/>
      <point x="358" y="900" type="line"/>
      <point x="206" y="900" type="line"/>
      <point x="59" y="0" type="line"/>
      <point x="333" y="0" type="line"/>
      <point x="347" y="75" type="line"/>
      <point x="589" y="75" type="line"/>
      <point x="639" y="0" type="line"/>
      <point x="623" y="-33"/>
      <point x="615" y="-60"/>
      <point x="615" y="-95" type="curve" smooth="yes"/>
      <point x="615" y="-225"/>
      <point x="737" y="-290"/>
    </contour>
    <contour>
      <point x="363" y="237" type="line"/>
      <point x="367" y="266" type="line" smooth="yes"/>
      <point x="375" y="322"/>
      <point x="378" y="362"/>
      <point x="379" y="431" type="curve"/>
      <point x="415" y="362"/>
      <point x="436" y="324"/>
      <point x="473" y="266" type="curve" smooth="yes"/>
      <point x="491" y="237" type="line"/>
    </contour>
  </outline>
</glyph>
<glyph name="aogonek" format="2">
  <advance width="760"/>
  <unicode hex="0105"/>
  <outline>
    <contour>
      <point x="836" y="-290" type="curve"/>
      <point x="836" y="-124" type="line"/>
      <point x="787" y="-121"/>
      <point x="753" y="-95"/>
      <point x="753" y="-60" type="curve" smooth="yes"/>
      <point x="753" y="-39"/>
      <point x="765" y="-15"/>
      <point x="787" y="0" type="curve"/>
      <point x="629" y="630" type="line"/>
      <point x="419" y="630" type="line"/>
      <point x="430" y="586" type="line"/>
      <point x="378" y="628"/>
      <point x="335" y="644"/>
      <point x="280" y="644" type="curve" smooth="yes"/>
      <point x="129" y="644"/>
      <point x="17" y="524"/>
      <point x="17" y="362" type="curve" smooth="yes"/>
      <point x="17" y="161"/>
      <point x="188" y="-14"/>
      <point x="385" y="-14" type="curve" smooth="yes"/>
      <point x="455" y="-14"/>
      <point x="518" y="8"/>
      <point x="554" y="44" type="curve"/>
      <point x="565" y="0" type="line"/>
      <point x="541" y="-38"/>
      <point x="530" y="-69"/>
      <point x="530" y="-110" type="curve" smooth="yes"/>
      <point x="530" y="-225"/>
      <point x="632" y="-290"/>
    </contour>
    <contour>
      <point x="377" y="220" type="curve" smooth="yes"/>
      <point x="320" y="220"/>
      <point x="272" y="270"/>
      <point x="272" y="328" type="curve" smooth="yes"/>
      <point x="272" y="376"/>
      <point x="306" y="410"/>
      <point x="354" y="410" type="curve" smooth="yes"/>
      <point x="411" y="410"/>
      <point x="458" y="361"/>
      <point x="458" y="302" type="curve" smooth="yes"/>
      <point x="458" y="254"/>
      <point x="424" y="220"/>
    </contour>
  </outline>
</glyph>
<glyph name="Eogonek" format="2">
  <advance width="660"/>
  <unicode hex="0118"/>
  <anchor x="190" y="900" name="top"/>
  <outline>
    <contour>
      <point x="742" y="-290" type="curve"/>
      <point x="742" y="-124" type="line"/>
      <point x="693" y="-121"/>
      <point x="659" y="-95"/>
      <point x="659" y="-60" type="curve" smooth="yes"/>
      <point x="659" y="-39"/>
      <point x="671" y="-15"/>
      <point x="693" y="0" type="curve"/>
      <point x="633" y="240" type="line"/>
      <point x="357" y="240" type="line"/>
      <point x="323" y="378" type="line"/>
      <point x="557" y="378" type="line"/>
      <point x="509" y="570" type="line"/>
      <point x="275" y="570" type="line"/>
      <point x="251" y="666" type="line"/>
      <point x="527" y="666" type="line"/>
      <point x="469" y="900" type="line"/>
      <point x="-89" y="900" type="line"/>
      <point x="135" y="0" type="line"/>
      <point x="483" y="0" type="line"/>
      <point x="450" y="-41"/>
      <point x="436" y="-78"/>
      <point x="436" y="-122" type="curve" smooth="yes"/>
      <point x="436" y="-235"/>
      <point x="536" y="-290"/>
    </contour>
  </outline>
</glyph>
<glyph name="eogonek" format="2">
  <advance width="720"/>
  <unicode hex="0119"/>
  <anchor x="360" y="630" name="top"/>
  <outline>
    <contour>
      <point x="745" y="-290" type="curve"/>
      <point x="745" y="-124" type="line"/>
      <point x="686" y="-119"/>
      <point x="656" y="-71"/>
      <point x="656" y="-23" type="curve" smooth="yes"/>
      <point x="656" y="5"/>
      <point x="666" y="34"/>
      <point x="686" y="54" type="curve"/>
      <point x="596" y="235" type="line"/>
      <point x="556" y="201"/>
      <point x="503" y="184"/>
      <point x="440" y="184" type="curve" smooth="yes"/>
      <point x="366" y="184"/>
      <point x="313" y="208"/>
      <point x="287" y="253" type="curve"/>
      <point x="317" y="249"/>
      <point x="347" y="247"/>
      <point x="371" y="247" type="curve" smooth="yes"/>
      <point x="705" y="247" type="line"/>
      <point x="690" y="334" type="line" smooth="yes"/>
      <point x="658" y="522"/>
      <point x="512" y="649"/>
      <point x="329" y="649" type="curve" smooth="yes"/>
      <point x="150" y="649"/>
      <point x="26" y="527"/>
      <point x="26" y="352" type="curve" smooth="yes"/>
      <point x="26" y="141"/>
      <point x="198" y="-20"/>
      <point x="422" y="-20" type="curve" smooth="yes"/>
      <point x="436" y="-20"/>
      <point x="451" y="-19"/>
      <point x="465" y="-18" type="curve"/>
      <point x="446" y="-51"/>
      <point x="437" y="-82"/>
      <point x="437" y="-112" type="curve" smooth="yes"/>
      <point x="437" y="-216"/>
      <point x="553" y="-290"/>
    </contour>
    <contour>
      <point x="254" y="385" type="curve"/>
      <point x="260" y="431"/>
      <point x="291" y="459"/>
      <point x="338" y="459" type="curve" smooth="yes"/>
      <point x="383" y="459"/>
      <point x="419" y="434"/>
      <point x="445" y="385" type="curve"/>
      <point x="418" y="388"/>
      <point x="381" y="391"/>
      <point x="357" y="391" type="curve" smooth="yes"/>
      <point x="329" y="391" type="line" smooth="yes"/>
      <point x="312" y="391"/>
      <point x="292" y="389"/>
    </contour>
  </outline>
</glyph>
<glyph name="Hbar" format="2">
  <advance width="900"/>
  <unicode hex="0126"/>
  <outline>
    <contour>
      <point x="135" y="0" type="line"/>
      <point x="429" y="0" type="line"/>
      <point x="347" y="330" type="line"/>
      <point x="539" y="330" type="line"/>
      <point x="621" y="0" type="line"/>
      <point x="915" y="0" type="line"/>
      <point x="745" y="681" type="line"/>
      <point x="793" y="681" type="line"/>
      <point x="759" y="819" type="line"/>
      <point x="711" y="819" type="line"/>
      <point x="691" y="900" type="line"/>
      <point x="409" y="900" type="line"/>
      <point x="429" y="819" type="line"/>
      <point x="213" y="819" type="line"/>
      <point x="193" y="900" type="line"/>
      <point x="-89" y="900" type="line"/>
      <point x="-69" y="819" type="line"/>
      <point x="-117" y="819" type="line"/>
      <point x="-83" y="681" type="line"/>
      <point x="-35" y="681" type="line"/>
    </contour>
    <contour>
      <point x="275" y="570" type="line"/>
      <point x="247" y="681" type="line"/>
      <point x="463" y="681" type="line"/>
      <point x="491" y="570" type="line"/>
    </contour>
  </outline>
</glyph>
<glyph name="hbar" format="2">
  <advance width="740"/>
  <unicode hex="0127"/>
  <outline>
    <contour>
      <point x="123" y="0" type="line"/>
      <point x="387" y="0" type="line"/>
      <point x="302" y="343" type="line" smooth="yes"/>
      <point x="292" y="385"/>
      <point x="313" y="416"/>
      <point x="352" y="416" type="curve" smooth="yes"/>
      <point x="385" y="416"/>
      <point x="411" y="394"/>
      <point x="420" y="358" type="curve" smooth="yes"/>
      <point x="509" y="0" type="line"/>
      <point x="773" y="0" type="line"/>
      <point x="670" y="416" type="line" smooth="yes"/>
      <point x="635" y="558"/>
      <point x="524" y="650"/>
      <point x="387" y="650" type="curve" smooth="yes"/>
      <point x="328" y="650"/>
      <point x="273" y="633"/>
      <point x="231" y="600" type="curve"/>
      <point x="204" y="707" type="line"/>
      <point x="350" y="707" type="line"/>
      <point x="314" y="853" type="line"/>
      <point x="168" y="853" type="line"/>
      <point x="141" y="960" type="line"/>
      <point x="-117" y="960" type="line"/>
      <point x="-90" y="853" type="line"/>
      <point x="-138" y="853" type="line"/>
      <point x="-102" y="707" type="line"/>
      <point x="-54" y="707" type="line"/>
    </contour>
  </outline>
</glyph>
<glyph name="Iogonek" format="2">
  <advance width="420"/>
  <unicode hex="012E"/>
  <outline>
    <contour>
      <point x="463" y="-290" type="curve"/>
      <point x="463" y="-124" type="line"/>
      <point x="424" y="-121"/>
      <point x="390" y="-95"/>
      <point x="390" y="-60" type="curve" smooth="yes"/>
      <point x="390" y="-39"/>
      <point x="402" y="-15"/>
      <point x="435" y="0" type="curve"/>
      <point x="211" y="900" type="line"/>
      <point x="-89" y="900" type="line"/>
      <point x="135" y="0" type="line"/>
      <point x="119" y="-33"/>
      <point x="111" y="-60"/>
      <point x="111" y="-95" type="curve" smooth="yes"/>
      <point x="111" y="-225"/>
      <point x="227" y="-290"/>
    </contour>
  </outline>
</glyph>
<glyph name="idotless" format="2">
  <advance width="360"/>
  <unicode hex="0131"/>
  <anchor x="255" y="0" name="bottom"/>
  <anchor x="255" y="0" name="ogonek"/>
  <anchor x="97" y="630" name="top"/>
  <outline>
    <contour>
      <point x="123" y="0" type="line"/>
      <point x="387" y="0" type="line"/>
      <point x="229" y="630" type="line"/>
      <point x="-35" y="630" type="line"/>
    </contour>
  </outline>
</glyph>
<glyph name="kgreenlandic" format="2">
  <advance width="740"/>
  <unicode hex="0138"/>
  <anchor x="461" y="0" name="bottom"/>
  <anchor x="291" y="630" name="top"/>
  <outline>
    <contour>
      <point x="519" y="0" type="line"/>
      <point x="831" y="0" type="line"/>
      <point x="551" y="356" type="line"/>
      <point x="700" y="630" type="line"/>
      <point x="438" y="630" type="line"/>
      <point x="272" y="327" type="line"/>
    </contour>
    <contour>
      <point x="123" y="0" type="line"/>
      <point x="387" y="0" type="line"/>
      <point x="230" y="630" type="line"/>
      <point x="-34" y="630" type="line"/>
    </contour>
  </outline>
</glyph>
<glyph name="Lslash" format="2">
  <advance width="680"/>
  <unicode hex="0141"/>
  <outline>
    <contour>
      <point x="185" y="0" type="line"/>
      <point x="719" y="0" type="line"/>
      <point x="656" y="252" type="line"/>
      <point x="416" y="252" type="line"/>
      <point x="365" y="457" type="line"/>
      <point x="550" y="576" type="line"/>
      <point x="467" y="704" type="line"/>
      <point x="326" y="613" type="line"/>
      <point x="255" y="900" type="line"/>
      <point x="-39" y="900" type="line"/>
      <point x="73" y="451" type="line"/>
      <point x="-23" y="389" type="line"/>
      <point x="60" y="261" type="line"/>
      <point x="112" y="294" type="line"/>
    </contour>
  </outline>
</glyph>
<glyph name="lslash" format="2">
  <advance width="460"/>
  <unicode hex="0142"/>
  <outline>
    <contour>
      <point x="173" y="0" type="line"/>
      <point x="437" y="0" type="line"/>
      <point x="310" y="509" type="line"/>
      <point x="405" y="598" type="line"/>
      <point x="314" y="691" type="line"/>
      <point x="274" y="653" type="line"/>
      <point x="197" y="960" type="line"/>
      <point x="-67" y="960" type="line"/>
      <point x="60" y="452" type="line"/>
      <point x="-34" y="364" type="line"/>
      <point x="56" y="270" type="line"/>
      <point x="96" y="308" type="line"/>
    </contour>
  </outline>
</glyph>
<glyph name="Eng" format="2">
  <advance width="920"/>
  <unicode hex="014A"/>
  <anchor x="535" y="0" name="bottom"/>
  <anchor x="311" y="900" name="top"/>
  <outline>
    <contour>
      <point x="640" y="-200" type="curve" smooth="yes"/>
      <point x="864" y="-200"/>
      <point x="948" y="-50"/>
      <point x="900" y="144" type="curve" smooth="yes"/>
      <point x="711" y="900" type="line"/>
      <point x="429" y="900" type="line"/>
      <point x="523" y="521" type="line"/>
      <point x="73" y="900" type="line"/>
      <point x="-89" y="900" type="line"/>
      <point x="135" y="0" type="line"/>
      <point x="417" y="0" type="line"/>
      <point x="322" y="381" type="line"/>
      <point x="619" y="130" type="line"/>
      <point x="621" y="122" type="line" smooth="yes"/>
      <point x="630" y="86"/>
      <point x="617" y="53"/>
      <point x="556" y="53" type="curve" smooth="yes"/>
      <point x="521" y="53"/>
      <point x="493" y="64"/>
      <point x="468" y="87" type="curve"/>
      <point x="468" y="-154" type="line"/>
      <point x="517" y="-184"/>
      <point x="569" y="-200"/>
    </contour>
  </outline>
</glyph>
<glyph name="eng" format="2">
  <advance width="740"/>
  <unicode hex="014B"/>
  <outline>
    <contour>
      <point x="580" y="-290" type="line"/>
      <point x="730" y="-271"/>
      <point x="818" y="-170"/>
      <point x="777" y="-15" type="curve" smooth="yes"/>
      <point x="670" y="416" type="line" smooth="yes"/>
      <point x="635" y="558"/>
      <point x="524" y="650"/>
      <point x="387" y="650" type="curve" smooth="yes"/>
      <point x="313" y="650"/>
      <point x="246" y="623"/>
      <point x="202" y="574" type="curve"/>
      <point x="188" y="630" type="line"/>
      <point x="-34" y="630" type="line"/>
      <point x="123" y="0" type="line"/>
      <point x="387" y="0" type="line"/>
      <point x="302" y="343" type="line" smooth="yes"/>
      <point x="292" y="385"/>
      <point x="313" y="416"/>
      <point x="352" y="416" type="curve" smooth="yes"/>
      <point x="385" y="416"/>
      <point x="411" y="394"/>
      <point x="420" y="358" type="curve" smooth="yes"/>
      <point x="512" y="-11" type="line" smooth="yes"/>
      <point x="521" y="-44"/>
      <point x="507" y="-67"/>
      <point x="473" y="-72" type="curve"/>
    </contour>
  </outline>
</glyph>
<glyph name="OE" format="2">
  <advance width="1320"/>
  <unicode hex="0152"/>
  <anchor x="845" y="0" name="bottom"/>
  <anchor x="621" y="900" name="top"/>
  <outline>
    <contour>
      <point x="538" y="-17" type="curve" smooth="yes"/>
      <point x="630" y="-17"/>
      <point x="714" y="8"/>
      <point x="782" y="52" type="curve"/>
      <point x="795" y="0" type="line"/>
      <point x="1353" y="0" type="line"/>
      <point x="1293" y="240" type="line"/>
      <point x="1017" y="240" type="line"/>
      <point x="983" y="378" type="line"/>
      <point x="1217" y="378" type="line"/>
      <point x="1169" y="570" type="line"/>
      <point x="935" y="570" type="line"/>
      <point x="911" y="666" type="line"/>
      <point x="1187" y="666" type="line"/>
      <point x="1129" y="900" type="line"/>
      <point x="661" y="900" type="line"/>
      <point x="676" y="838" type="line"/>
      <point x="598" y="888"/>
      <point x="507" y="917"/>
      <point x="412" y="917" type="curve" smooth="yes"/>
      <point x="178" y="917"/>
      <point x="3" y="741"/>
      <point x="3" y="503" type="curve" smooth="yes"/>
      <point x="3" y="225"/>
      <point x="252" y="-17"/>
    </contour>
    <contour>
      <point x="504" y="268" type="curve" smooth="yes"/>
      <point x="395" y="268"/>
      <point x="299" y="364"/>
      <point x="299" y="472" type="curve" smooth="yes"/>
      <point x="299" y="564"/>
      <point x="369" y="632"/>
      <point x="463" y="632" type="curve" smooth="yes"/>
      <point x="571" y="632"/>
      <point x="668" y="536"/>
      <point x="668" y="428" type="curve" smooth="yes"/>
      <point x="668" y="336"/>
      <point x="598" y="268"/>
    </contour>
  </outline>
</glyph>
<glyph name="oe" format="2">
  <advance width="1130"/>
  <unicode hex="0153"/>
  <anchor x="652" y="0" name="bottom"/>
  <anchor x="491" y="630" name="top"/>
  <outline>
    <contour>
      <point x="400" y="-20" type="curve" smooth="yes"/>
      <point x="479" y="-20"/>
      <point x="548" y="5"/>
      <point x="601" y="46" type="curve"/>
      <point x="666" y="4"/>
      <point x="745" y="-20"/>
      <point x="832" y="-20" type="curve" smooth="yes"/>
      <point x="933" y="-20"/>
      <point x="1037" y="9"/>
      <point x="1096" y="54" type="curve"/>
      <point x="1006" y="235" type="line"/>
      <point x="966" y="201"/>
      <point x="913" y="184"/>
      <point x="850" y="184" type="curve" smooth="yes"/>
      <point x="776" y="184"/>
      <point x="723" y="208"/>
      <point x="697" y="253" type="curve"/>
      <point x="727" y="249"/>
      <point x="757" y="247"/>
      <point x="781" y="247" type="curve" smooth="yes"/>
      <point x="1115" y="247" type="line"/>
      <point x="1100" y="334" type="line" smooth="yes"/>
      <point x="1067" y="522"/>
      <point x="922" y="649"/>
      <point x="739" y="649" type="curve" smooth="yes"/>
      <point x="660" y="649"/>
      <point x="592" y="625"/>
      <point x="540" y="584" type="curve"/>
      <point x="479" y="625"/>
      <point x="407" y="650"/>
      <point x="330" y="650" type="curve" smooth="yes"/>
      <point x="152" y="650"/>
      <point x="21" y="524"/>
      <point x="21" y="356" type="curve" smooth="yes"/>
      <point x="21" y="155"/>
      <point x="197" y="-20"/>
    </contour>
    <contour>
      <point x="377" y="220" type="curve" smooth="yes"/>
      <point x="320" y="220"/>
      <point x="271" y="270"/>
      <point x="271" y="328" type="curve" smooth="yes"/>
      <point x="271" y="376"/>
      <point x="305" y="410"/>
      <point x="353" y="410" type="curve" smooth="yes"/>
      <point x="410" y="410"/>
      <point x="459" y="360"/>
      <point x="459" y="302" type="curve" smooth="yes"/>
      <point x="459" y="254"/>
      <point x="425" y="220"/>
    </contour>
    <contour>
      <point x="664" y="385" type="curve"/>
      <point x="670" y="431"/>
      <point x="701" y="459"/>
      <point x="748" y="459" type="curve" smooth="yes"/>
      <point x="793" y="459"/>
      <point x="829" y="434"/>
      <point x="855" y="385" type="curve"/>
      <point x="828" y="388"/>
      <point x="791" y="391"/>
      <point x="767" y="391" type="curve" smooth="yes"/>
      <point x="739" y="391" type="line" smooth="yes"/>
      <point x="722" y="391"/>
      <point x="702" y="389"/>
    </contour>
  </outline>
</glyph>
<glyph name="Scedilla" format="2">
  <advance width="700"/>
  <unicode hex="015E"/>
  <outline>
    <contour>
      <point x="105" y="-220" type="line"/>
      <point x="445" y="-220" type="line"/>
      <point x="514" y="6" type="line"/>
      <point x="622" y="46"/>
      <point x="688" y="129"/>
      <point x="688" y="245" type="curve" smooth="yes"/>
      <point x="688" y="385"/>
      <point x="593" y="507"/>
      <point x="414" y="567" type="curve" smooth="yes"/>
      <point x="282" y="611" type="line" smooth="yes"/>
      <point x="240" y="625"/>
      <point x="230" y="633"/>
      <point x="230" y="644" type="curve" smooth="yes"/>
      <point x="230" y="663"/>
      <point x="256" y="672"/>
      <point x="299" y="672" type="curve" smooth="yes"/>
      <point x="371" y="672"/>
      <point x="451" y="646"/>
      <point x="522" y="600" type="curve"/>
      <point x="522" y="870" type="line"/>
      <point x="446" y="903"/>
      <point x="366" y="920"/>
      <point x="285" y="920" type="curve" smooth="yes"/>
      <point x="96" y="920"/>
      <point x="-39" y="826"/>
      <point x="-39" y="654" type="curve" smooth="yes"/>
      <point x="-39" y="506"/>
      <point x="61" y="402"/>
      <point x="257" y="334" type="curve" smooth="yes"/>
      <point x="355" y="300" type="line" smooth="yes"/>
      <point x="401" y="284"/>
      <point x="418" y="274"/>
      <point x="418" y="260" type="curve" smooth="yes"/>
      <point x="418" y="240"/>
      <point x="387" y="228"/>
      <point x="340" y="228" type="curve" smooth="yes"/>
      <point x="256" y="228"/>
      <point x="162" y="267"/>
      <point x="85" y="328" type="curve"/>
      <point x="85" y="45" type="line"/>
      <point x="129" y="19"/>
      <point x="185" y="0"/>
      <point x="246" y="-11" type="curve"/>
    </contour>
  </outline>
</glyph>
<glyph name="scedilla" format="2">
  <advance width="560"/>
  <unicode hex="015F"/>
  <outline>
    <contour>
      <point x="87" y="-220" type="line"/>
      <point x="377" y="-220" type="line"/>
      <point x="451" y="13" type="line"/>
      <point x="522" y="47"/>
      <point x="562" y="105"/>
      <point x="562" y="182" type="curve" smooth="yes"/>
      <point x="562" y="293"/>
      <point x="485" y="370"/>
      <point x="342" y="405" type="curve" smooth="yes"/>
      <point x="260" y="425" type="line" smooth="yes"/>
      <point x="246" y="428"/>
      <point x="237" y="436"/>
      <point x="237" y="444" type="curve" smooth="yes"/>
      <point x="237" y="454"/>
      <point x="250" y="460"/>
      <point x="272" y="460" type="curve" smooth="yes"/>
      <point x="322" y="460"/>
      <point x="408" y="434"/>
      <point x="451" y="406" type="curve"/>
      <point x="451" y="610" type="line"/>
      <point x="399" y="636"/>
      <point x="331" y="650"/>
      <point x="263" y="650" type="curve" smooth="yes"/>
      <point x="96" y="650"/>
      <point x="-5" y="575"/>
      <point x="-5" y="450" type="curve" smooth="yes"/>
      <point x="-5" y="340"/>
      <point x="73" y="261"/>
      <point x="213" y="226" type="curve" smooth="yes"/>
      <point x="298" y="205" type="line" smooth="yes"/>
      <point x="314" y="201"/>
      <point x="322" y="195"/>
      <point x="322" y="187" type="curve" smooth="yes"/>
      <point x="322" y="176"/>
      <point x="304" y="170"/>
      <point x="273" y="170" type="curve" smooth="yes"/>
      <point x="214" y="170"/>
      <point x="141" y="190"/>
      <point x="83" y="223" type="curve"/>
      <point x="83" y="19" type="line"/>
      <point x="126" y="-1"/>
      <point x="172" y="-13"/>
      <point x="223" y="-18" type="curve"/>
    </contour>
  </outline>
</glyph>
<glyph name="Tcedilla" format="2">
  <advance width="730"/>
  <unicode hex="0162"/>
  <outline>
    <contour>
      <point x="175" y="-220" type="line"/>
      <point x="547" y="-220" type="line"/>
      <point x="589" y="0" type="line"/>
      <point x="428" y="648" type="line"/>
      <point x="607" y="648" type="line"/>
      <point x="544" y="900" type="line"/>
      <point x="-114" y="900" type="line"/>
      <point x="-51" y="648" type="line"/>
      <point x="128" y="648" type="line"/>
      <point x="289" y="0" type="line"/>
    </contour>
  </outline>
</glyph>
<glyph name="tcedilla" format="2">
  <advance width="450"/>
  <unicode hex="0163"/>
  <outline>
    <contour>
      <point x="41" y="-220" type="line"/>
      <point x="331" y="-220" type="line"/>
      <point x="427" y="0" type="line"/>
      <point x="320" y="426" type="line"/>
      <point x="401" y="426" type="line"/>
      <point x="350" y="630" type="line"/>
      <point x="266" y="630" type="line"/>
      <point x="218" y="822" type="line"/>
      <point x="-34" y="822" type="line"/>
      <point x="14" y="630" type="line"/>
      <point x="-64" y="630" type="line"/>
      <point x="-13" y="426" type="line"/>
      <point x="62" y="426" type="line"/>
      <point x="169" y="0" type="line"/>
    </contour>
  </outline>
</glyph>
<glyph name="Tbar" format="2">
  <advance width="730"/>
  <unicode hex="0166"/>
  <outline>
    <contour>
      <point x="289" y="0" type="line"/>
      <point x="589" y="0" type="line"/>
      <point x="500" y="356" type="line"/>
      <point x="601" y="356" type="line"/>
      <point x="558" y="530" type="line"/>
      <point x="457" y="530" type="line"/>
      <point x="428" y="648" type="line"/>
      <point x="607" y="648" type="line"/>
      <point x="544" y="900" type="line"/>
      <point x="-114" y="900" type="line"/>
      <point x="-51" y="648" type="line"/>
      <point x="128" y="648" type="line"/>
      <point x="157" y="530" type="line"/>
      <point x="56" y="530" type="line"/>
      <point x="99" y="356" type="line"/>
      <point x="200" y="356" type="line"/>
    </contour>
  </outline>
</glyph>
<glyph name="tbar" format="2">
  <advance width="450"/>
  <unicode hex="0167"/>
  <outline>
    <contour>
      <point x="169" y="0" type="line"/>
      <point x="427" y="0" type="line"/>
      <point x="370" y="227" type="line"/>
      <point x="441" y="227" type="line"/>
      <point x="404" y="373" type="line"/>
      <point x="333" y="373" type="line"/>
      <point x="317" y="438" type="line"/>
      <point x="398" y="438" type="line"/>
      <point x="350" y="630" type="line"/>
      <point x="266" y="630" type="line"/>
      <point x="218" y="822" type="line"/>
      <point x="-34" y="822" type="line"/>
      <point x="14" y="630" type="line"/>
      <point x="-64" y="630" type="line"/>
      <point x="-16" y="438" type="line"/>
      <point x="59" y="438" type="line"/>
      <point x="75" y="373" type="line"/>
      <point x="10" y="373" type="line"/>
      <point x="47" y="227" type="line"/>
      <point x="112" y="227" type="line"/>
    </contour>
  </outline>
</glyph>
<glyph name="Uogonek" format="2">
  <advance width="860"/>
  <unicode hex="0172"/>
  <outline>
    <contour>
      <point x="714" y="-290" type="curve"/>
      <point x="714" y="-124" type="line"/>
      <point x="665" y="-120"/>
      <point x="631" y="-85"/>
      <point x="631" y="-39" type="curve" smooth="yes"/>
      <point x="631" y="-16"/>
      <point x="639" y="10"/>
      <point x="654" y="29" type="curve"/>
      <point x="778" y="91"/>
      <point x="830" y="215"/>
      <point x="789" y="378" type="curve" smooth="yes"/>
      <point x="658" y="900" type="line"/>
      <point x="370" y="900" type="line"/>
      <point x="502" y="374" type="line" smooth="yes"/>
      <point x="520" y="302"/>
      <point x="492" y="256"/>
      <point x="432" y="256" type="curve" smooth="yes"/>
      <point x="384" y="256"/>
      <point x="349" y="291"/>
      <point x="333" y="353" type="curve" smooth="yes"/>
      <point x="196" y="900" type="line"/>
      <point x="-98" y="900" type="line"/>
      <point x="56" y="287" type="line" smooth="yes"/>
      <point x="105" y="93"/>
      <point x="241" y="-15"/>
      <point x="444" y="-15" type="curve"/>
      <point x="419" y="-50"/>
      <point x="408" y="-83"/>
      <point x="408" y="-122" type="curve" smooth="yes"/>
      <point x="408" y="-235"/>
      <point x="508" y="-290"/>
    </contour>
  </outline>
</glyph>
<glyph name="uogonek" format="2">
  <advance width="740"/>
  <unicode hex="0173"/>
  <outline>
    <contour>
      <point x="816" y="-290" type="curve"/>
      <point x="816" y="-124" type="line"/>
      <point x="767" y="-121"/>
      <point x="733" y="-95"/>
      <point x="733" y="-60" type="curve" smooth="yes"/>
      <point x="733" y="-39"/>
      <point x="745" y="-15"/>
      <point x="767" y="0" type="curve"/>
      <point x="610" y="630" type="line"/>
      <point x="346" y="630" type="line"/>
      <point x="431" y="287" type="line" smooth="yes"/>
      <point x="441" y="245"/>
      <point x="420" y="214"/>
      <point x="381" y="214" type="curve" smooth="yes"/>
      <point x="348" y="214"/>
      <point x="322" y="236"/>
      <point x="313" y="272" type="curve" smooth="yes"/>
      <point x="224" y="630" type="line"/>
      <point x="-40" y="630" type="line"/>
      <point x="63" y="214" type="line" smooth="yes"/>
      <point x="98" y="72"/>
      <point x="209" y="-20"/>
      <point x="346" y="-20" type="curve" smooth="yes"/>
      <point x="420" y="-20"/>
      <point x="487" y="7"/>
      <point x="531" y="56" type="curve"/>
      <point x="545" y="0" type="line"/>
      <point x="521" y="-38"/>
      <point x="510" y="-69"/>
      <point x="510" y="-110" type="curve" smooth="yes"/>
      <point x="510" y="-225"/>
      <point x="612" y="-290"/>
    </contour>
  </outline>
</glyph>
<glyph name="Schwa" format="2">
  <advance width="1040"/>
  <unicode hex="018F"/>
  <outline>
    <contour>
      <point x="535" y="-20" type="curve" smooth="yes"/>
      <point x="796" y="-19"/>
      <point x="973" y="166"/>
      <point x="973" y="396" type="curve" smooth="yes"/>
      <point x="973" y="669"/>
      <point x="728" y="920"/>
      <point x="429" y="920" type="curve" smooth="yes"/>
      <point x="335" y="920"/>
      <point x="201" y="891"/>
      <point x="108" y="804" type="curve"/>
      <point x="222" y="576" type="line"/>
      <point x="281" y="639"/>
      <point x="373" y="664"/>
      <point x="438" y="664" type="curve" smooth="yes"/>
      <point x="515" y="664"/>
      <point x="600" y="622"/>
      <point x="634" y="537" type="curve"/>
      <point x="585" y="542"/>
      <point x="551" y="544"/>
      <point x="518" y="544" type="curve" smooth="yes"/>
      <point x="-14" y="544" type="line"/>
      <point x="-10" y="493"/>
      <point x="-1" y="441"/>
      <point x="11" y="392" type="curve" smooth="yes"/>
      <point x="70" y="155"/>
      <point x="292" y="-20"/>
    </contour>
    <contour>
      <point x="512" y="237" type="curve" smooth="yes"/>
      <point x="439" y="237"/>
      <point x="363" y="280"/>
      <point x="330" y="362" type="curve"/>
      <point x="563" y="362" type="line" smooth="yes"/>
      <point x="597" y="362"/>
      <point x="631" y="365"/>
      <point x="678" y="370" type="curve"/>
      <point x="678" y="303"/>
      <point x="608" y="237"/>
    </contour>
  </outline>
</glyph>
<glyph name="florin" format="2">
  <advance width="750"/>
  <unicode hex="0192"/>
  <outline>
    <contour>
      <point x="331" y="-201" type="curve" smooth="yes"/>
      <point x="519" y="-201"/>
      <point x="606" y="-90"/>
      <point x="561" y="91" type="curve" smooth="yes"/>
      <point x="497" y="348" type="line"/>
      <point x="690" y="348" type="line"/>
      <point x="639" y="552" type="line"/>
      <point x="446" y="552" type="line"/>
      <point x="407" y="711" type="line" smooth="yes"/>
      <point x="400" y="739"/>
      <point x="415" y="761"/>
      <point x="443" y="761" type="curve" smooth="yes"/>
      <point x="455" y="761"/>
      <point x="466" y="757"/>
      <point x="478" y="749" type="curve"/>
      <point x="478" y="955" type="line"/>
      <point x="451" y="966"/>
      <point x="417" y="972"/>
      <point x="375" y="972" type="curve" smooth="yes"/>
      <point x="187" y="972"/>
      <point x="100" y="861"/>
      <point x="145" y="680" type="curve" smooth="yes"/>
      <point x="177" y="552" type="line"/>
      <point x="-15" y="552" type="line"/>
      <point x="36" y="348" type="line"/>
      <point x="227" y="348" type="line"/>
      <point x="299" y="60" type="line" smooth="yes"/>
      <point x="306" y="31"/>
      <point x="291" y="10"/>
      <point x="263" y="10" type="curve" smooth="yes"/>
      <point x="251" y="10"/>
      <point x="240" y="14"/>
      <point x="228" y="22" type="curve"/>
      <point x="228" y="-184" type="line"/>
      <point x="255" y="-195"/>
      <point x="289" y="-201"/>
    </contour>
  </outline>
</glyph>
<glyph name="Ohorn" format="2">
  <advance width="1050"/>
  <unicode hex="01A0"/>
  <anchor x="598" y="0" name="bottom"/>
  <anchor x="374" y="900" name="top"/>
  <outline>
    <contour>
      <point x="536" y="-17" type="curve" smooth="yes"/>
      <point x="780" y="-17"/>
      <point x="963" y="159"/>
      <point x="963" y="397" type="curve" smooth="yes"/>
      <point x="963" y="505"/>
      <point x="926" y="607"/>
      <point x="863" y="692" type="curve"/>
      <point x="894" y="720"/>
      <point x="915" y="762"/>
      <point x="915" y="815" type="curve" smooth="yes"/>
      <point x="915" y="869"/>
      <point x="896" y="918"/>
      <point x="861" y="960" type="curve"/>
      <point x="672" y="960" type="line"/>
      <point x="694" y="933"/>
      <point x="721" y="880"/>
      <point x="721" y="849" type="curve" smooth="yes"/>
      <point x="721" y="841"/>
      <point x="719" y="835"/>
      <point x="717" y="830" type="curve"/>
      <point x="632" y="885"/>
      <point x="533" y="917"/>
      <point x="428" y="917" type="curve" smooth="yes"/>
      <point x="184" y="917"/>
      <point x="2" y="741"/>
      <point x="2" y="503" type="curve" smooth="yes"/>
      <point x="2" y="226"/>
      <point x="250" y="-17"/>
    </contour>
    <contour>
      <point x="503" y="268" type="curve" smooth="yes"/>
      <point x="395" y="268"/>
      <point x="298" y="364"/>
      <point x="298" y="472" type="curve" smooth="yes"/>
      <point x="298" y="564"/>
      <point x="368" y="632"/>
      <point x="462" y="632" type="curve" smooth="yes"/>
      <point x="571" y="632"/>
      <point x="667" y="536"/>
      <point x="667" y="428" type="curve" smooth="yes"/>
      <point x="667" y="336"/>
      <point x="597" y="268"/>
    </contour>
  </outline>
</glyph>
<glyph name="ohorn" format="2">
  <advance width="810"/>
  <unicode hex="01A1"/>
  <anchor x="445" y="0" name="bottom"/>
  <anchor x="287" y="630" name="top"/>
  <outline>
    <contour>
      <point x="400" y="-20" type="curve" smooth="yes"/>
      <point x="578" y="-20"/>
      <point x="709" y="106"/>
      <point x="709" y="274" type="curve" smooth="yes"/>
      <point x="709" y="326"/>
      <point x="697" y="377"/>
      <point x="676" y="423" type="curve"/>
      <point x="722" y="448"/>
      <point x="750" y="488"/>
      <point x="750" y="545" type="curve" smooth="yes"/>
      <point x="750" y="579"/>
      <point x="741" y="638"/>
      <point x="695" y="690" type="curve"/>
      <point x="515" y="690" type="line"/>
      <point x="537" y="664"/>
      <point x="564" y="610"/>
      <point x="564" y="578" type="curve" smooth="yes"/>
      <point x="564" y="574"/>
      <point x="564" y="570"/>
      <point x="563" y="566" type="curve"/>
      <point x="498" y="618"/>
      <point x="416" y="650"/>
      <point x="330" y="650" type="curve" smooth="yes"/>
      <point x="152" y="650"/>
      <point x="21" y="524"/>
      <point x="21" y="356" type="curve" smooth="yes"/>
      <point x="21" y="155"/>
      <point x="197" y="-20"/>
    </contour>
    <contour>
      <point x="377" y="220" type="curve" smooth="yes"/>
      <point x="320" y="220"/>
      <point x="271" y="270"/>
      <point x="271" y="328" type="curve" smooth="yes"/>
      <point x="271" y="376"/>
      <point x="305" y="410"/>
      <point x="353" y="410" type="curve" smooth="yes"/>
      <point x="410" y="410"/>
      <point x="459" y="360"/>
      <point x="459" y="302" type="curve" smooth="yes"/>
      <point x="459" y="254"/>
      <point x="425" y="220"/>
    </contour>
  </outline>
</glyph>
<glyph name="Uhorn" format="2">
  <advance width="1060"/>
  <unicode hex="01AF"/>
  <anchor x="508" y="0" name="bottom"/>
  <anchor x="284" y="900" name="top"/>
  <outline>
    <contour>
      <point x="438" y="-15" type="curve" smooth="yes"/>
      <point x="710" y="-15"/>
      <point x="849" y="140"/>
      <point x="789" y="378" type="curve" smooth="yes"/>
      <point x="717" y="664" type="line"/>
      <point x="735" y="658"/>
      <point x="753" y="656"/>
      <point x="771" y="656" type="curve" smooth="yes"/>
      <point x="846" y="656"/>
      <point x="917" y="717"/>
      <point x="917" y="815" type="curve" smooth="yes"/>
      <point x="917" y="869"/>
      <point x="898" y="918"/>
      <point x="863" y="960" type="curve"/>
      <point x="674" y="960" type="line"/>
      <point x="696" y="933"/>
      <point x="723" y="880"/>
      <point x="723" y="849" type="curve" smooth="yes"/>
      <point x="723" y="824"/>
      <point x="707" y="813"/>
      <point x="690" y="813" type="curve" smooth="yes"/>
      <point x="685" y="813"/>
      <point x="682" y="813"/>
      <point x="674" y="814" type="curve"/>
      <point x="652" y="900" type="line"/>
      <point x="370" y="900" type="line"/>
      <point x="502" y="374" type="line" smooth="yes"/>
      <point x="520" y="302"/>
      <point x="492" y="256"/>
      <point x="432" y="256" type="curve" smooth="yes"/>
      <point x="384" y="256"/>
      <point x="349" y="291"/>
      <point x="333" y="353" type="curve" smooth="yes"/>
      <point x="196" y="900" type="line"/>
      <point x="-98" y="900" type="line"/>
      <point x="56" y="287" type="line" smooth="yes"/>
      <point x="105" y="93"/>
      <point x="241" y="-15"/>
    </contour>
  </outline>
</glyph>
<glyph name="uhorn" format="2">
  <advance width="930"/>
  <unicode hex="01B0"/>
  <anchor x="438" y="0" name="bottom"/>
  <anchor x="280" y="630" name="top"/>
  <outline>
    <contour>
      <point x="346" y="-20" type="curve" smooth="yes"/>
      <point x="420" y="-20"/>
      <point x="487" y="7"/>
      <point x="531" y="56" type="curve"/>
      <point x="545" y="0" type="line"/>
      <point x="767" y="0" type="line"/>
      <point x="669" y="394" type="line"/>
      <point x="687" y="388"/>
      <point x="705" y="386"/>
      <point x="723" y="386" type="curve" smooth="yes"/>
      <point x="795" y="386"/>
      <point x="866" y="447"/>
      <point x="866" y="545" type="curve" smooth="yes"/>
      <point x="866" y="599"/>
      <point x="847" y="648"/>
      <point x="812" y="690" type="curve"/>
      <point x="623" y="690" type="line"/>
      <point x="645" y="663"/>
      <point x="672" y="610"/>
      <point x="672" y="579" type="curve" smooth="yes"/>
      <point x="672" y="554"/>
      <point x="656" y="543"/>
      <point x="639" y="543" type="curve" smooth="yes"/>
      <point x="634" y="543"/>
      <point x="631" y="543"/>
      <point x="626" y="544" type="curve"/>
      <point x="604" y="630" type="line"/>
      <point x="346" y="630" type="line"/>
      <point x="431" y="287" type="line" smooth="yes"/>
      <point x="441" y="245"/>
      <point x="420" y="214"/>
      <point x="381" y="214" type="curve" smooth="yes"/>
      <point x="348" y="214"/>
      <point x="322" y="236"/>
      <point x="313" y="272" type="curve" smooth="yes"/>
      <point x="224" y="630" type="line"/>
      <point x="-40" y="630" type="line"/>
      <point x="63" y="214" type="line" smooth="yes"/>
      <point x="98" y="72"/>
      <point x="209" y="-20"/>
    </contour>
  </outline>
</glyph>
<glyph name="Ezh" format="2">
  <advance width="710"/>
  <unicode hex="01B7"/>
  <anchor x="368" y="0" name="bottom"/>
  <anchor x="217" y="900" name="top"/>
  <outline>
    <contour>
      <point x="330" y="-20" type="curve" smooth="yes"/>
      <point x="532" y="-20"/>
      <point x="681" y="106"/>
      <point x="681" y="278" type="curve" smooth="yes"/>
      <point x="681" y="416"/>
      <point x="591" y="546"/>
      <point x="455" y="604" type="curve"/>
      <point x="537" y="898" type="line"/>
      <point x="537" y="900" type="line"/>
      <point x="-103" y="900" type="line"/>
      <point x="-47" y="678" type="line"/>
      <point x="218" y="678" type="line"/>
      <point x="140" y="375" type="line"/>
      <point x="142" y="373" type="line"/>
      <point x="196" y="395"/>
      <point x="237" y="404"/>
      <point x="283" y="404" type="curve" smooth="yes"/>
      <point x="350" y="404"/>
      <point x="397" y="363"/>
      <point x="397" y="306" type="curve" smooth="yes"/>
      <point x="397" y="259"/>
      <point x="353" y="226"/>
      <point x="290" y="226" type="curve" smooth="yes"/>
      <point x="240" y="226"/>
      <point x="186" y="250"/>
      <point x="121" y="299" type="curve"/>
      <point x="59" y="60" type="line"/>
      <point x="132" y="9"/>
      <point x="229" y="-20"/>
    </contour>
  </outline>
</glyph>
<glyph name="Gstroke" format="2">
  <advance width="910"/>
  <unicode hex="01E4"/>
  <outline>
    <contour>
      <point x="541" y="-17" type="curve" smooth="yes"/>
      <point x="680" y="-17"/>
      <point x="824" y="40"/>
      <point x="902" y="125" type="curve"/>
      <point x="857" y="306" type="line"/>
      <point x="908" y="306" type="line"/>
      <point x="866" y="474" type="line"/>
      <point x="815" y="474" type="line"/>
      <point x="803" y="524" type="line"/>
      <point x="556" y="524" type="line"/>
      <point x="569" y="474" type="line"/>
      <point x="446" y="474" type="line"/>
      <point x="488" y="306" type="line"/>
      <point x="611" y="306" type="line"/>
      <point x="621" y="267" type="line"/>
      <point x="594" y="247"/>
      <point x="563" y="238"/>
      <point x="524" y="238" type="curve" smooth="yes"/>
      <point x="400" y="238"/>
      <point x="296" y="349"/>
      <point x="296" y="481" type="curve" smooth="yes"/>
      <point x="296" y="586"/>
      <point x="375" y="656"/>
      <point x="493" y="656" type="curve" smooth="yes"/>
      <point x="568" y="656"/>
      <point x="648" y="628"/>
      <point x="714" y="579" type="curve"/>
      <point x="714" y="859" type="line"/>
      <point x="637" y="898"/>
      <point x="544" y="920"/>
      <point x="454" y="920" type="curve" smooth="yes"/>
      <point x="191" y="920"/>
      <point x="2" y="746"/>
      <point x="2" y="504" type="curve" smooth="yes"/>
      <point x="2" y="221"/>
      <point x="249" y="-17"/>
    </contour>
  </outline>
</glyph>
<glyph name="Oogonek" format="2">
  <advance width="1040"/>
  <unicode hex="01EA"/>
  <anchor x="520" y="900" name="top"/>
  <outline>
    <contour>
      <point x="740" y="-290" type="curve"/>
      <point x="740" y="-124" type="line"/>
      <point x="701" y="-121"/>
      <point x="667" y="-90"/>
      <point x="667" y="-49" type="curve" smooth="yes"/>
      <point x="667" y="-29"/>
      <point x="675" y="-6"/>
      <point x="697" y="11" type="curve"/>
      <point x="856" y="70"/>
      <point x="963" y="216"/>
      <point x="963" y="397" type="curve" smooth="yes"/>
      <point x="963" y="675"/>
      <point x="714" y="917"/>
      <point x="428" y="917" type="curve" smooth="yes"/>
      <point x="184" y="917"/>
      <point x="2" y="741"/>
      <point x="2" y="503" type="curve" smooth="yes"/>
      <point x="2" y="267"/>
      <point x="182" y="55"/>
      <point x="413" y="-2" type="curve"/>
      <point x="395" y="-36"/>
      <point x="388" y="-62"/>
      <point x="388" y="-95" type="curve" smooth="yes"/>
      <point x="388" y="-225"/>
      <point x="504" y="-290"/>
    </contour>
    <contour>
      <point x="503" y="268" type="curve" smooth="yes"/>
      <point x="395" y="268"/>
      <point x="298" y="364"/>
      <point x="298" y="472" type="curve" smooth="yes"/>
      <point x="298" y="564"/>
      <point x="368" y="632"/>
      <point x="462" y="632" type="curve" smooth="yes"/>
      <point x="571" y="632"/>
      <point x="667" y="536"/>
      <point x="667" y="428" type="curve" smooth="yes"/>
      <point x="667" y="336"/>
      <point x="597" y="268"/>
    </contour>
  </outline>
</glyph>
<glyph name="oogonek" format="2">
  <advance width="740"/>
  <unicode hex="01EB"/>
  <anchor x="287" y="630" name="top"/>
  <outline>
    <contour>
      <point x="594" y="-290" type="curve"/>
      <point x="594" y="-124" type="line"/>
      <point x="545" y="-121"/>
      <point x="511" y="-95"/>
      <point x="511" y="-60" type="curve" smooth="yes"/>
      <point x="511" y="-40"/>
      <point x="522" y="-16"/>
      <point x="543" y="11" type="curve"/>
      <point x="644" y="58"/>
      <point x="709" y="156"/>
      <point x="709" y="274" type="curve" smooth="yes"/>
      <point x="709" y="475"/>
      <point x="533" y="650"/>
      <point x="330" y="650" type="curve" smooth="yes"/>
      <point x="152" y="650"/>
      <point x="21" y="524"/>
      <point x="21" y="356" type="curve" smooth="yes"/>
      <point x="21" y="180"/>
      <point x="156" y="24"/>
      <point x="326" y="-12" type="curve"/>
      <point x="299" y="-48"/>
      <point x="288" y="-82"/>
      <point x="288" y="-122" type="curve" smooth="yes"/>
      <point x="288" y="-235"/>
      <point x="388" y="-290"/>
    </contour>
    <contour>
      <point x="377" y="220" type="curve" smooth="yes"/>
      <point x="320" y="220"/>
      <point x="271" y="270"/>
      <point x="271" y="328" type="curve" smooth="yes"/>
      <point x="271" y="376"/>
      <point x="305" y="410"/>
      <point x="353" y="410" type="curve" smooth="yes"/>
      <point x="410" y="410"/>
      <point x="459" y="360"/>
      <point x="459" y="302" type="curve" smooth="yes"/>
      <point x="459" y="254"/>
      <point x="425" y="220"/>
    </contour>
  </outline>
</glyph>
<glyph name="jdotless" format="2">
  <advance width="360"/>
  <unicode hex="0237"/>
  <anchor x="328" y="-300" name="bottom"/>
  <anchor x="96" y="630" name="top"/>
  <outline>
    <contour>
      <point x="192" y="-290" type="line"/>
      <point x="342" y="-271"/>
      <point x="427" y="-169"/>
      <point x="389" y="-15" type="curve" smooth="yes"/>
      <point x="228" y="630" type="line"/>
      <point x="-36" y="630" type="line"/>
      <point x="124" y="-11" type="line" smooth="yes"/>
      <point x="132" y="-44"/>
      <point x="119" y="-67"/>
      <point x="85" y="-72" type="curve"/>
    </contour>
  </outline>
</glyph>
<glyph name="schwa" format="2">
  <advance width="720"/>
  <unicode hex="0259"/>
  <outline>
    <contour>
      <point x="384" y="-20" type="curve" smooth="yes"/>
      <point x="563" y="-20"/>
      <point x="687" y="102"/>
      <point x="687" y="277" type="curve" smooth="yes"/>
      <point x="687" y="488"/>
      <point x="515" y="649"/>
      <point x="291" y="649" type="curve" smooth="yes"/>
      <point x="190" y="649"/>
      <point x="86" y="620"/>
      <point x="27" y="575" type="curve"/>
      <point x="117" y="394" type="line"/>
      <point x="157" y="428"/>
      <point x="210" y="445"/>
      <point x="273" y="445" type="curve" smooth="yes"/>
      <point x="347" y="445"/>
      <point x="400" y="421"/>
      <point x="426" y="376" type="curve"/>
      <point x="396" y="380"/>
      <point x="366" y="382"/>
      <point x="342" y="382" type="curve" smooth="yes"/>
      <point x="8" y="382" type="line"/>
      <point x="23" y="295" type="line" smooth="yes"/>
      <point x="56" y="107"/>
      <point x="201" y="-20"/>
    </contour>
    <contour>
      <point x="375" y="170" type="curve" smooth="yes"/>
      <point x="330" y="170"/>
      <point x="294" y="195"/>
      <point x="268" y="244" type="curve"/>
      <point x="295" y="241"/>
      <point x="332" y="238"/>
      <point x="356" y="238" type="curve" smooth="yes"/>
      <point x="384" y="238" type="line" smooth="yes"/>
      <point x="401" y="238"/>
      <point x="421" y="240"/>
      <point x="459" y="244" type="curve"/>
      <point x="453" y="198"/>
      <point x="422" y="170"/>
    </contour>
  </outline>
</glyph>
<glyph name="ezh" format="2">
  <advance width="660"/>
  <unicode hex="0292"/>
  <anchor x="422" y="-282" name="bottom"/>
  <anchor x="285" y="630" name="top"/>
  <outline>
    <contour>
      <point x="356" y="-282" type="curve" smooth="yes"/>
      <point x="558" y="-282"/>
      <point x="701" y="-158"/>
      <point x="701" y="17" type="curve" smooth="yes"/>
      <point x="701" y="151"/>
      <point x="614" y="277"/>
      <point x="481" y="334" type="curve"/>
      <point x="559" y="628" type="line"/>
      <point x="559" y="630" type="line"/>
      <point x="-52" y="630" type="line"/>
      <point x="2" y="414" type="line"/>
      <point x="254" y="414" type="line"/>
      <point x="175" y="99" type="line"/>
      <point x="178" y="97" type="line"/>
      <point x="225" y="117"/>
      <point x="272" y="128"/>
      <point x="310" y="128" type="curve" smooth="yes"/>
      <point x="383" y="128"/>
      <point x="432" y="88"/>
      <point x="432" y="34" type="curve" smooth="yes"/>
      <point x="432" y="-17"/>
      <point x="389" y="-50"/>
      <point x="326" y="-50" type="curve" smooth="yes"/>
      <point x="272" y="-50"/>
      <point x="217" y="-26"/>
      <point x="154" y="22" type="curve"/>
      <point x="96" y="-202" type="line"/>
      <point x="168" y="-254"/>
      <point x="260" y="-282"/>
    </contour>
  </outline>
</glyph>
<glyph name="gravecomb" format="2">
  <unicode hex="0300"/>
  <anchor x="352" y="630" name="_top"/>
  <anchor x="159" y="912" name="top"/>
  <outline>
    <contour>
      <point x="234" y="692" type="line"/>
      <point x="456" y="692" type="line"/>
      <point x="306" y="912" type="line"/>
      <point x="12" y="912" type="line"/>
    </contour>
  </outline>
</glyph>
<glyph name="acutecomb" format="2">
  <unicode hex="0301"/>
  <anchor x="203" y="630" name="_top"/>
  <anchor x="273" y="930" name="top"/>
  <outline>
    <contour>
      <point x="81" y="692" type="line"/>
      <point x="275" y="692" type="line"/>
      <point x="400" y="930" type="line"/>
      <point x="146" y="930" type="line"/>
    </contour>
  </outline>
</glyph>
<glyph name="circumflexcomb" format="2">
  <unicode hex="0302"/>
  <anchor x="278" y="630" name="_top"/>
  <anchor x="224" y="912" name="top"/>
  <outline>
    <contour>
      <point x="-5" y="692" type="line"/>
      <point x="206" y="692" type="line"/>
      <point x="221" y="714"/>
      <point x="235" y="746"/>
      <point x="245" y="771" type="curve"/>
      <point x="267" y="746"/>
      <point x="297" y="714"/>
      <point x="322" y="692" type="curve"/>
      <point x="559" y="692" type="line"/>
      <point x="328" y="912" type="line"/>
      <point x="118" y="912" type="line"/>
    </contour>
  </outline>
</glyph>
<glyph name="tildecomb" format="2">
  <unicode hex="0303"/>
  <anchor x="278" y="630" name="_top"/>
  <anchor x="208" y="909" name="top"/>
  <outline>
    <contour>
      <point x="33" y="672" type="line"/>
      <point x="52" y="710"/>
      <point x="85" y="729"/>
      <point x="130" y="729" type="curve" smooth="yes"/>
      <point x="190" y="729"/>
      <point x="268" y="675"/>
      <point x="343" y="675" type="curve" smooth="yes"/>
      <point x="405" y="675"/>
      <point x="461" y="708"/>
      <point x="489" y="766" type="curve"/>
      <point x="441" y="912" type="line"/>
      <point x="422" y="874"/>
      <point x="392" y="855"/>
      <point x="347" y="855" type="curve" smooth="yes"/>
      <point x="287" y="855"/>
      <point x="209" y="909"/>
      <point x="134" y="909" type="curve" smooth="yes"/>
      <point x="72" y="909"/>
      <point x="13" y="876"/>
      <point x="-15" y="818" type="curve"/>
    </contour>
  </outline>
</glyph>
<glyph name="macroncomb" format="2">
  <unicode hex="0304"/>
  <anchor x="278" y="630" name="_top"/>
  <anchor x="213" y="893" name="top"/>
  <outline>
    <contour>
      <point x="33" y="699" type="line"/>
      <point x="489" y="699" type="line"/>
      <point x="443" y="885" type="line"/>
      <point x="-13" y="885" type="line"/>
    </contour>
  </outline>
</glyph>
<glyph name="brevecomb" format="2">
  <unicode hex="0306"/>
  <anchor x="278" y="630" name="_top"/>
  <anchor x="211" y="900" name="top"/>
  <outline>
    <contour>
      <point x="243" y="680" type="curve" smooth="yes"/>
      <point x="381" y="680"/>
      <point x="462" y="773"/>
      <point x="448" y="888" type="curve"/>
      <point x="281" y="888" type="line"/>
      <point x="283" y="855"/>
      <point x="260" y="829"/>
      <point x="227" y="829" type="curve" smooth="yes"/>
      <point x="194" y="829"/>
      <point x="163" y="855"/>
      <point x="158" y="888" type="curve"/>
      <point x="-20" y="888" type="line"/>
      <point x="12" y="758"/>
      <point x="109" y="680"/>
    </contour>
  </outline>
</glyph>
<glyph name="hookabovecomb" format="2">
  <unicode hex="0309"/>
  <anchor x="278" y="630" name="_top"/>
  <anchor x="199" y="950" name="top"/>
  <outline>
    <contour>
      <point x="182" y="692" type="curve"/>
      <point x="363" y="692" type="line"/>
      <point x="379" y="719"/>
      <point x="388" y="751"/>
      <point x="388" y="783" type="curve" smooth="yes"/>
      <point x="388" y="885"/>
      <point x="304" y="950"/>
      <point x="199" y="950" type="curve" smooth="yes"/>
      <point x="123" y="950"/>
      <point x="58" y="917"/>
      <point x="18" y="886" type="curve"/>
      <point x="88" y="755" type="line"/>
      <point x="104" y="775"/>
      <point x="124" y="790"/>
      <point x="148" y="790" type="curve" smooth="yes"/>
      <point x="176" y="790"/>
      <point x="195" y="769"/>
      <point x="195" y="743" type="curve" smooth="yes"/>
      <point x="195" y="728"/>
      <point x="191" y="712"/>
    </contour>
  </outline>
</glyph>
<glyph name="ringcomb" format="2">
  <unicode hex="030A"/>
  <anchor x="278" y="630" name="_top"/>
  <anchor x="194" y="965" name="top"/>
  <outline>
    <contour>
      <point x="247" y="671" type="curve" smooth="yes"/>
      <point x="328" y="671"/>
      <point x="387" y="727"/>
      <point x="387" y="803" type="curve" smooth="yes"/>
      <point x="387" y="893"/>
      <point x="307" y="971"/>
      <point x="215" y="971" type="curve" smooth="yes"/>
      <point x="134" y="971"/>
      <point x="75" y="915"/>
      <point x="75" y="839" type="curve" smooth="yes"/>
      <point x="75" y="749"/>
      <point x="155" y="671"/>
    </contour>
    <contour>
      <point x="236" y="779" type="curve" smooth="yes"/>
      <point x="211" y="779"/>
      <point x="189" y="801"/>
      <point x="189" y="827" type="curve" smooth="yes"/>
      <point x="189" y="847"/>
      <point x="205" y="863"/>
      <point x="226" y="863" type="curve" smooth="yes"/>
      <point x="251" y="863"/>
      <point x="273" y="841"/>
      <point x="273" y="815" type="curve" smooth="yes"/>
      <point x="273" y="795"/>
      <point x="257" y="779"/>
    </contour>
  </outline>
</glyph>
<glyph name="hungarumlautcomb" format="2">
  <unicode hex="030B"/>
  <anchor x="217" y="630" name="_top"/>
  <anchor x="290" y="900" name="top"/>
  <outline>
    <contour>
      <point x="255" y="692" type="line"/>
      <point x="426" y="692" type="line"/>
      <point x="550" y="900" type="line"/>
      <point x="307" y="900" type="line"/>
    </contour>
    <contour>
      <point x="-24" y="692" type="line"/>
      <point x="147" y="692" type="line"/>
      <point x="271" y="900" type="line"/>
      <point x="28" y="900" type="line"/>
    </contour>
  </outline>
</glyph>
<glyph name="caroncomb" format="2">
  <unicode hex="030C"/>
  <anchor x="278" y="630" name="_top"/>
  <anchor x="224" y="912" name="top"/>
  <outline>
    <contour>
      <point x="156" y="692" type="line"/>
      <point x="368" y="692" type="line"/>
      <point x="491" y="912" type="line"/>
      <point x="280" y="912" type="line"/>
      <point x="265" y="890"/>
      <point x="251" y="858"/>
      <point x="241" y="833" type="curve"/>
      <point x="219" y="858"/>
      <point x="189" y="890"/>
      <point x="164" y="912" type="curve"/>
      <point x="-75" y="912" type="line"/>
    </contour>
  </outline>
</glyph>
<glyph name="dblgravecomb" format="2">
  <unicode hex="030F"/>
  <anchor x="337" y="630" name="_top"/>
  <anchor x="184" y="900" name="top"/>
  <outline>
    <contour>
      <point x="377" y="692" type="line"/>
      <point x="556" y="692" type="line"/>
      <point x="454" y="900" type="line"/>
      <point x="203" y="900" type="line"/>
    </contour>
    <contour>
      <point x="90" y="692" type="line"/>
      <point x="269" y="692" type="line"/>
      <point x="167" y="900" type="line"/>
      <point x="-84" y="900" type="line"/>
    </contour>
  </outline>
</glyph>
<glyph name="breveinvertedcomb" format="2">
  <unicode hex="0311"/>
  <anchor x="278" y="630" name="_top"/>
  <anchor x="206" y="920" name="top"/>
  <outline>
    <contour>
      <point x="29" y="692" type="curve"/>
      <point x="196" y="692" type="line"/>
      <point x="194" y="725"/>
      <point x="217" y="751"/>
      <point x="250" y="751" type="curve" smooth="yes"/>
      <point x="283" y="751"/>
      <point x="314" y="725"/>
      <point x="319" y="692" type="curve"/>
      <point x="497" y="692" type="line"/>
      <point x="465" y="822"/>
      <point x="368" y="900"/>
      <point x="234" y="900" type="curve" smooth="yes"/>
      <point x="96" y="900"/>
      <point x="15" y="807"/>
    </contour>
  </outline>
</glyph>
<glyph name="commaturnedabovecomb" format="2">
  <unicode hex="0312"/>
  <anchor x="278" y="630" name="_top"/>
  <anchor x="252" y="930" name="top"/>
  <outline>
    <contour>
      <point x="133" y="692" type="curve"/>
      <point x="391" y="692" type="line"/>
      <point x="349" y="775"/>
      <point x="341" y="856"/>
      <point x="362" y="942" type="curve"/>
      <point x="110" y="942" type="line"/>
      <point x="90" y="858"/>
      <point x="98" y="773"/>
    </contour>
  </outline>
</glyph>
<glyph name="horncomb" format="2">
  <unicode hex="031B"/>
  <anchor x="148" y="630" name="_topright"/>
  <outline>
    <contour>
      <point x="267" y="386" type="curve" smooth="yes"/>
      <point x="339" y="386"/>
      <point x="410" y="447"/>
      <point x="410" y="545" type="curve" smooth="yes"/>
      <point x="410" y="599"/>
      <point x="391" y="648"/>
      <point x="356" y="690" type="curve"/>
      <point x="167" y="690" type="line"/>
      <point x="189" y="663"/>
      <point x="216" y="610"/>
      <point x="216" y="579" type="curve" smooth="yes"/>
      <point x="216" y="554"/>
      <point x="200" y="543"/>
      <point x="183" y="543" type="curve" smooth="yes"/>
      <point x="178" y="543"/>
      <point x="175" y="543"/>
      <point x="170" y="544" type="curve"/>
      <point x="207" y="394" type="line"/>
      <point x="227" y="388"/>
      <point x="247" y="386"/>
    </contour>
  </outline>
</glyph>
<glyph name="dotbelowcomb" format="2">
  <unicode hex="0323"/>
  <anchor x="435" y="0" name="_bottom"/>
  <anchor x="510" y="-300" name="bottom"/>
  <outline>
    <contour>
      <point x="494" y="-300" type="curve" smooth="yes"/>
      <point x="559" y="-300"/>
      <point x="608" y="-250"/>
      <point x="608" y="-186" type="curve" smooth="yes"/>
      <point x="608" y="-110"/>
      <point x="540" y="-42"/>
      <point x="464" y="-42" type="curve" smooth="yes"/>
      <point x="401" y="-42"/>
      <point x="350" y="-89"/>
      <point x="350" y="-156" type="curve" smooth="yes"/>
      <point x="350" y="-232"/>
      <point x="418" y="-300"/>
    </contour>
  </outline>
</glyph>
<glyph name="dieresisbelowcomb" format="2">
  <unicode hex="0324"/>
  <anchor x="435" y="0" name="_bottom"/>
  <anchor x="360" y="-282" name="bottom"/>
  <outline>
    <contour>
      <point x="638" y="-282" type="curve" smooth="yes"/>
      <point x="698" y="-282"/>
      <point x="744" y="-235"/>
      <point x="744" y="-176" type="curve" smooth="yes"/>
      <point x="744" y="-105"/>
      <point x="681" y="-42"/>
      <point x="610" y="-42" type="curve" smooth="yes"/>
      <point x="551" y="-42"/>
      <point x="504" y="-86"/>
      <point x="504" y="-148" type="curve" smooth="yes"/>
      <point x="504" y="-219"/>
      <point x="567" y="-282"/>
    </contour>
    <contour>
      <point x="342" y="-282" type="curve" smooth="yes"/>
      <point x="402" y="-282"/>
      <point x="448" y="-235"/>
      <point x="448" y="-176" type="curve" smooth="yes"/>
      <point x="448" y="-105"/>
      <point x="385" y="-42"/>
      <point x="314" y="-42" type="curve" smooth="yes"/>
      <point x="255" y="-42"/>
      <point x="208" y="-86"/>
      <point x="208" y="-148" type="curve" smooth="yes"/>
      <point x="208" y="-219"/>
      <point x="271" y="-282"/>
    </contour>
  </outline>
</glyph>
<glyph name="commaaccentcomb" format="2">
  <unicode hex="0326"/>
  <anchor x="435" y="0" name="_bottom"/>
  <anchor x="354" y="-282" name="bottom"/>
  <outline>
    <contour>
      <point x="350" y="-312" type="curve"/>
      <point x="602" y="-312" type="line"/>
      <point x="622" y="-228"/>
      <point x="614" y="-143"/>
      <point x="579" y="-62" type="curve"/>
      <point x="321" y="-62" type="line"/>
      <point x="363" y="-145"/>
      <point x="371" y="-226"/>
    </contour>
  </outline>
</glyph>
<glyph name="cedillacomb" format="2">
  <unicode hex="0327"/>
  <anchor x="529" y="0" name="_bottom"/>
  <anchor x="417" y="-220" name="bottom"/>
  <outline>
    <contour>
      <point x="272" y="-220" type="line"/>
      <point x="562" y="-220" type="line"/>
      <point x="638" y="0" type="line"/>
      <point x="420" y="0" type="line"/>
    </contour>
  </outline>
</glyph>
<glyph name="ogonekcomb" format="2">
  <unicode hex="0328"/>
  <anchor x="467" y="0" name="_ogonek"/>
  <outline>
    <contour>
      <point x="621" y="-290" type="curve"/>
      <point x="621" y="-124" type="line"/>
      <point x="572" y="-121"/>
      <point x="538" y="-95"/>
      <point x="538" y="-60" type="curve" smooth="yes"/>
      <point x="538" y="-39"/>
      <point x="550" y="-15"/>
      <point x="572" y="0" type="curve"/>
      <point x="362" y="0" type="line"/>
      <point x="329" y="-41"/>
      <point x="315" y="-78"/>
      <point x="315" y="-122" type="curve" smooth="yes"/>
      <point x="315" y="-235"/>
      <point x="415" y="-290"/>
    </contour>
  </outline>
</glyph>
<glyph name="brevebelowcomb" format="2">
  <unicode hex="032E"/>
  <anchor x="435" y="0" name="_bottom"/>
  <anchor x="502" y="-270" name="bottom"/>
  <outline>
    <contour>
      <point x="479" y="-270" type="curve" smooth="yes"/>
      <point x="617" y="-270"/>
      <point x="698" y="-177"/>
      <point x="684" y="-62" type="curve"/>
      <point x="517" y="-62" type="line"/>
      <point x="519" y="-95"/>
      <point x="496" y="-121"/>
      <point x="463" y="-121" type="curve" smooth="yes"/>
      <point x="430" y="-121"/>
      <point x="399" y="-95"/>
      <point x="394" y="-62" type="curve"/>
      <point x="216" y="-62" type="line"/>
      <point x="248" y="-192"/>
      <point x="345" y="-270"/>
    </contour>
  </outline>
</glyph>
<glyph name="macronbelowcomb" format="2">
  <unicode hex="0331"/>
  <anchor x="435" y="0" name="_bottom"/>
  <anchor x="498" y="-255" name="bottom"/>
  <outline>
    <contour>
      <point x="270" y="-255" type="line"/>
      <point x="726" y="-255" type="line"/>
      <point x="680" y="-69" type="line"/>
      <point x="224" y="-69" type="line"/>
    </contour>
  </outline>
</glyph>
<glyph name="strokeshortcomb" format="2">
  <unicode hex="0335"/>
  <anchor x="336" y="300" name="_center"/>
  <outline>
    <contour>
      <point x="64" y="227" type="line"/>
      <point x="512" y="227" type="line"/>
      <point x="476" y="373" type="line"/>
      <point x="28" y="373" type="line"/>
    </contour>
  </outline>
</glyph>
<glyph name="slashshortcomb" format="2">
  <unicode hex="0337"/>
  <anchor x="275" y="300" name="_center"/>
  <outline>
    <contour>
      <point x="56" y="184" type="line"/>
      <point x="146" y="90" type="line"/>
      <point x="495" y="418" type="line"/>
      <point x="404" y="511" type="line"/>
    </contour>
  </outline>
</glyph>
<glyph name="slashlongcomb" format="2">
  <unicode hex="0338"/>
  <anchor x="275" y="315" name="_center"/>
  <outline>
    <contour>
      <point x="64" y="-33" type="line"/>
      <point x="583" y="585" type="line"/>
      <point x="487" y="669" type="line"/>
      <point x="-32" y="51" type="line"/>
    </contour>
  </outline>
</glyph>
<glyph name="pi" format="2">
  <advance width="740"/>
  <unicode hex="03C0"/>
  <outline>
    <contour>
      <point x="123" y="0" type="line"/>
      <point x="387" y="0" type="line"/>
      <point x="283" y="414" type="line"/>
      <point x="399" y="414" type="line"/>
      <point x="503" y="0" type="line"/>
      <point x="767" y="0" type="line"/>
      <point x="609" y="630" type="line"/>
      <point x="-35" y="630" type="line"/>
    </contour>
  </outline>
</glyph>
<glyph name="baht" format="2">
  <advance width="750"/>
  <unicode hex="0E3F"/>
  <outline>
    <contour>
      <point x="406" y="-120" type="line"/>
      <point x="544" y="-120" type="line"/>
      <point x="510" y="11" type="line"/>
      <point x="650" y="40"/>
      <point x="727" y="127"/>
      <point x="727" y="260" type="curve" smooth="yes"/>
      <point x="727" y="402"/>
      <point x="640" y="488"/>
      <point x="563" y="531" type="curve"/>
      <point x="581" y="560"/>
      <point x="591" y="591"/>
      <point x="591" y="633" type="curve" smooth="yes"/>
      <point x="591" y="795"/>
      <point x="472" y="900"/>
      <point x="289" y="900" type="curve"/>
      <point x="266" y="990" type="line"/>
      <point x="128" y="990" type="line"/>
      <point x="151" y="900" type="line"/>
      <point x="-90" y="900" type="line"/>
      <point x="135" y="0" type="line"/>
      <point x="376" y="0" type="line"/>
    </contour>
    <contour>
      <point x="337" y="222" type="line"/>
      <point x="294" y="396" type="line"/>
      <point x="368" y="396" type="line" smooth="yes"/>
      <point x="422" y="396"/>
      <point x="466" y="351"/>
      <point x="466" y="296" type="curve" smooth="yes"/>
      <point x="466" y="251"/>
      <point x="437" y="222"/>
      <point x="390" y="222" type="curve" smooth="yes"/>
    </contour>
    <contour>
      <point x="252" y="564" type="line"/>
      <point x="216" y="708" type="line"/>
      <point x="283" y="708" type="line" smooth="yes"/>
      <point x="327" y="708"/>
      <point x="364" y="671"/>
      <point x="364" y="625" type="curve" smooth="yes"/>
      <point x="364" y="588"/>
      <point x="340" y="564"/>
      <point x="301" y="564" type="curve" smooth="yes"/>
    </contour>
  </outline>
</glyph>
<glyph name="Germandbls" format="2">
  <advance width="1080"/>
  <unicode hex="1E9E"/>
  <outline>
    <contour>
      <point x="694" y="-20" type="curve" smooth="yes"/>
      <point x="896" y="-20"/>
      <point x="1045" y="106"/>
      <point x="1045" y="278" type="curve" smooth="yes"/>
      <point x="1045" y="416"/>
      <point x="955" y="546"/>
      <point x="819" y="604" type="curve"/>
      <point x="901" y="898" type="line"/>
      <point x="901" y="900" type="line"/>
      <point x="-90" y="900" type="line"/>
      <point x="135" y="0" type="line"/>
      <point x="429" y="0" type="line"/>
      <point x="263" y="666" type="line"/>
      <point x="579" y="666" type="line"/>
      <point x="513" y="375" type="line"/>
      <point x="515" y="373" type="line"/>
      <point x="567" y="395"/>
      <point x="607" y="404"/>
      <point x="651" y="404" type="curve" smooth="yes"/>
      <point x="716" y="404"/>
      <point x="761" y="363"/>
      <point x="761" y="306" type="curve" smooth="yes"/>
      <point x="761" y="259"/>
      <point x="717" y="226"/>
      <point x="654" y="226" type="curve" smooth="yes"/>
      <point x="606" y="226"/>
      <point x="555" y="248"/>
      <point x="494" y="292" type="curve"/>
      <point x="439" y="49" type="line"/>
      <point x="510" y="5"/>
      <point x="600" y="-20"/>
    </contour>
  </outline>
</glyph>
<glyph name="endash" format="2">
  <advance width="720"/>
  <unicode hex="2013"/>
  <outline>
    <contour>
      <point x="67" y="217" type="line"/>
      <point x="707" y="217" type="line"/>
      <point x="659" y="413" type="line"/>
      <point x="19" y="413" type="line"/>
    </contour>
  </outline>
</glyph>
<glyph name="emdash" format="2">
  <advance width="1440"/>
  <unicode hex="2014"/>
  <outline>
    <contour>
      <point x="88" y="213" type="line"/>
      <point x="1408" y="213" type="line"/>
      <point x="1358" y="417" type="line"/>
      <point x="38" y="417" type="line"/>
    </contour>
  </outline>
</glyph>
<glyph name="dblverticalbar" format="2">
  <advance width="480"/>
  <unicode hex="2016"/>
  <outline>
    <contour>
      <point x="260" y="-180" type="line"/>
      <point x="416" y="-180" type="line"/>
      <point x="416" y="960" type="line"/>
      <point x="260" y="960" type="line"/>
    </contour>
    <contour>
      <point x="20" y="-180" type="line"/>
      <point x="176" y="-180" type="line"/>
      <point x="176" y="960" type="line"/>
      <point x="20" y="960" type="line"/>
    </contour>
  </outline>
</glyph>
<glyph name="quoteleft" format="2">
  <advance width="330"/>
  <unicode hex="2018"/>
  <outline>
    <contour>
      <point x="-14" y="510" type="curve"/>
      <point x="226" y="510" type="line"/>
      <point x="167" y="667"/>
      <point x="191" y="811"/>
      <point x="215" y="900" type="curve"/>
      <point x="-28" y="900" type="line"/>
      <point x="-60" y="801"/>
      <point x="-68" y="650"/>
    </contour>
  </outline>
</glyph>
<glyph name="quoteright" format="2">
  <advance width="330"/>
  <unicode hex="2019"/>
  <outline>
    <contour>
      <point x="-72" y="510" type="curve"/>
      <point x="155" y="510" type="line"/>
      <point x="187" y="609"/>
      <point x="195" y="760"/>
      <point x="141" y="900" type="curve"/>
      <point x="-83" y="900" type="line"/>
      <point x="-24" y="743"/>
      <point x="-48" y="599"/>
    </contour>
  </outline>
</glyph>
<glyph name="dagger" format="2">
  <advance width="660"/>
  <unicode hex="2020"/>
  <outline>
    <contour>
      <point x="289" y="0" type="line"/>
      <point x="519" y="0" type="line"/>
      <point x="389" y="495" type="line"/>
      <point x="583" y="489" type="line"/>
      <point x="534" y="687" type="line"/>
      <point x="342" y="681" type="line"/>
      <point x="295" y="900" type="line"/>
      <point x="65" y="900" type="line"/>
      <point x="126" y="681" type="line"/>
      <point x="-66" y="687" type="line"/>
      <point x="-17" y="489" type="line"/>
      <point x="173" y="495" type="line"/>
    </contour>
  </outline>
</glyph>
<glyph name="daggerdbl" format="2">
  <advance width="660"/>
  <unicode hex="2021"/>
  <outline>
    <contour>
      <point x="289" y="0" type="line"/>
      <point x="519" y="0" type="line"/>
      <point x="456" y="225" type="line"/>
      <point x="649" y="219" type="line"/>
      <point x="602" y="405" type="line"/>
      <point x="413" y="399" type="line"/>
      <point x="401" y="450" type="line"/>
      <point x="387" y="501" type="line"/>
      <point x="582" y="495" type="line"/>
      <point x="535" y="681" type="line"/>
      <point x="344" y="675" type="line"/>
      <point x="295" y="900" type="line"/>
      <point x="65" y="900" type="line"/>
      <point x="128" y="675" type="line"/>
      <point x="-63" y="681" type="line"/>
      <point x="-16" y="495" type="line"/>
      <point x="171" y="501" type="line"/>
      <point x="183" y="450" type="line"/>
      <point x="197" y="399" type="line"/>
      <point x="4" y="405" type="line"/>
      <point x="51" y="219" type="line"/>
      <point x="240" y="225" type="line"/>
    </contour>
  </outline>
</glyph>
<glyph name="ellipsis" format="2">
  <advance width="1440"/>
  <unicode hex="2026"/>
  <outline>
    <contour>
      <point x="302" y="-20" type="curve" smooth="yes"/>
      <point x="369" y="-20"/>
      <point x="425" y="31"/>
      <point x="425" y="105" type="curve" smooth="yes"/>
      <point x="425" y="186"/>
      <point x="351" y="260"/>
      <point x="268" y="260" type="curve" smooth="yes"/>
      <point x="196" y="260"/>
      <point x="145" y="207"/>
      <point x="145" y="137" type="curve" smooth="yes"/>
      <point x="145" y="54"/>
      <point x="219" y="-20"/>
    </contour>
    <contour>
      <point x="1262" y="-20" type="curve" smooth="yes"/>
      <point x="1329" y="-20"/>
      <point x="1385" y="31"/>
      <point x="1385" y="105" type="curve" smooth="yes"/>
      <point x="1385" y="186"/>
      <point x="1311" y="260"/>
      <point x="1228" y="260" type="curve" smooth="yes"/>
      <point x="1156" y="260"/>
      <point x="1105" y="207"/>
      <point x="1105" y="137" type="curve" smooth="yes"/>
      <point x="1105" y="54"/>
      <point x="1179" y="-20"/>
    </contour>
    <contour>
      <point x="782" y="-20" type="curve" smooth="yes"/>
      <point x="849" y="-20"/>
      <point x="905" y="31"/>
      <point x="905" y="105" type="curve" smooth="yes"/>
      <point x="905" y="186"/>
      <point x="831" y="260"/>
      <point x="748" y="260" type="curve" smooth="yes"/>
      <point x="676" y="260"/>
      <point x="625" y="207"/>
      <point x="625" y="137" type="curve" smooth="yes"/>
      <point x="625" y="54"/>
      <point x="699" y="-20"/>
    </contour>
  </outline>
</glyph>
<glyph name="minute" format="2">
  <advance width="330"/>
  <unicode hex="2032"/>
  <outline>
    <contour>
      <point x="40" y="510" type="line"/>
      <point x="226" y="510" type="line"/>
      <point x="120" y="900" type="line"/>
      <point x="-134" y="900" type="line"/>
    </contour>
  </outline>
</glyph>
<glyph name="guilsinglleft" format="2">
  <advance width="480"/>
  <unicode hex="2039"/>
  <outline>
    <contour>
      <point x="232" y="120" type="line"/>
      <point x="528" y="120" type="line"/>
      <point x="279" y="325" type="line"/>
      <point x="414" y="510" type="line"/>
      <point x="150" y="510" type="line"/>
      <point x="3" y="309" type="line"/>
    </contour>
  </outline>
</glyph>
<glyph name="guilsinglright" format="2">
  <advance width="480"/>
  <unicode hex="203A"/>
  <outline>
    <contour>
      <point x="59" y="120" type="line"/>
      <point x="323" y="120" type="line"/>
      <point x="470" y="321" type="line"/>
      <point x="241" y="510" type="line"/>
      <point x="-55" y="510" type="line"/>
      <point x="194" y="305" type="line"/>
    </contour>
  </outline>
</glyph>
<glyph name="fraction" format="2">
  <advance width="180"/>
  <unicode hex="2044"/>
  <outline>
    <contour>
      <point x="-142" y="-30" type="line"/>
      <point x="32" y="-30" type="line"/>
      <point x="247" y="930" type="line"/>
      <point x="73" y="930" type="line"/>
    </contour>
  </outline>
</glyph>
<glyph name="commercialMinusSign" format="2">
  <advance width="750"/>
  <unicode hex="2052"/>
  <outline>
    <contour>
      <point x="142" y="-30" type="line"/>
      <point x="316" y="-30" type="line"/>
      <point x="531" y="930" type="line"/>
      <point x="357" y="930" type="line"/>
    </contour>
    <contour>
      <point x="105" y="521" type="curve" smooth="yes"/>
      <point x="171" y="521"/>
      <point x="227" y="572"/>
      <point x="227" y="645" type="curve" smooth="yes"/>
      <point x="227" y="725"/>
      <point x="153" y="799"/>
      <point x="71" y="799" type="curve" smooth="yes"/>
      <point x="0" y="799"/>
      <point x="-51" y="746"/>
      <point x="-51" y="677" type="curve" smooth="yes"/>
      <point x="-51" y="595"/>
      <point x="23" y="521"/>
    </contour>
    <contour>
      <point x="603" y="101" type="curve" smooth="yes"/>
      <point x="669" y="101"/>
      <point x="725" y="152"/>
      <point x="725" y="225" type="curve" smooth="yes"/>
      <point x="725" y="305"/>
      <point x="651" y="379"/>
      <point x="569" y="379" type="curve" smooth="yes"/>
      <point x="498" y="379"/>
      <point x="447" y="326"/>
      <point x="447" y="257" type="curve" smooth="yes"/>
      <point x="447" y="175"/>
      <point x="521" y="101"/>
    </contour>
  </outline>
</glyph>
